<svg width="116" height="116" viewBox="0 0 116 116" fill="none" xmlns="http://www.w3.org/2000/svg">
<mask id="mask0_1359_49862" style="mask-type:alpha" maskUnits="userSpaceOnUse" x="0" y="0" width="116" height="116">
<path d="M115.031 58.4066C115.031 90.1637 89.2884 115.907 57.5312 115.907C25.7741 115.907 0.03125 90.1637 0.03125 58.4066C0.03125 26.6495 25.7741 0.906616 57.5312 0.906616C89.2884 0.906616 115.031 26.6495 115.031 58.4066Z" fill="#00AFB8"/>
</mask>
<g mask="url(#mask0_1359_49862)">
<path d="M115.031 0.906616H0.03125V115.907H115.031V0.906616Z" fill="#E6E7E8"/>
<path d="M115.023 61.7164C100.761 47.4542 83.8153 30.5088 83.7434 30.4529C83.2403 29.862 82.8411 29.7262 82.7133 29.6943C82.5376 29.6464 82.346 29.7103 82.2262 29.846C81.9387 30.1654 81.6273 30.4849 81.3158 30.7963C81.1482 30.964 81.1242 31.2355 81.2599 31.4352C81.2759 31.4591 81.2919 31.4831 81.3079 31.507C75.143 37.3924 64.4903 41.3452 57.0477 41.3452H52.3841L52.0009 40.7144H40.7892L40.0225 39.8439H36.5568V40.7144H34.265C32.7238 40.7144 31.446 41.7525 31.0468 43.1659C29.3219 43.4135 27.9883 44.8828 27.9883 46.6796V52.2615C27.9883 53.3315 28.4674 54.2738 29.2101 54.9207C29.3299 55.0564 40.2062 66.1723 40.302 66.2522L40.9329 78.4701C40.9728 79.1968 41.3322 79.7957 41.8433 80.2029C41.9071 80.2828 61.9508 100.319 77.5386 115.906H115.023V61.7244V61.7164Z" fill="#A7A9AC"/>
<path d="M48.5671 74.8283C48.1758 74.8762 47.8005 74.6686 47.7206 74.2773L46.1235 65.6369C45.9958 64.9581 46.4829 64.3752 47.1616 64.2314C47.8644 64.0797 48.2876 63.353 48.072 62.6583L47.2255 59.9512H47.7126C48.5751 59.9512 49.3736 59.488 49.8048 58.7374L50.1003 58.2183H46.6825V58.1943L37.1797 58.2183V62.6024C37.1797 63.3051 37.7467 63.8721 38.4494 63.8721C39.3358 63.8721 40.1024 64.5029 40.2621 65.3813L40.9409 78.4617C41.0208 80.0668 42.6338 81.1289 44.1431 80.5859L49.3417 78.7012C49.6771 78.5974 49.8767 78.262 49.8128 77.9187L49.3497 75.3953C49.2858 75.0279 48.9424 74.7883 48.5831 74.8363L48.5671 74.8283Z" fill="white"/>
<path d="M46.6745 58.1943L37.1797 58.2183V61.8118H47.8085L47.2255 59.9512H47.7126C48.5751 59.9512 49.3736 59.488 49.8048 58.7374L50.1003 58.2183H46.6825V58.1943H46.6745Z" fill="#E6E7E8"/>
<path d="M57.0484 41.3371H41.4766V57.5877H57.0484C65.0419 57.5877 76.7248 62.1315 82.5942 68.7515C82.5942 68.7515 86.563 67.7613 86.563 49.4664C86.563 31.1715 82.5942 30.1813 82.5942 30.1813C76.7248 36.7933 65.0419 41.3451 57.0484 41.3451V41.3371Z" fill="white"/>
<path d="M58.8451 54.5931H41.4766V57.5877H57.0484C65.0419 57.5877 76.7248 62.1315 82.5942 68.7515C82.5942 68.7515 84.8541 68.1845 85.9641 60.0473C79.0885 56.7812 67.1741 54.5931 58.8531 54.5931H58.8451Z" fill="#E6E7E8"/>
<path d="M82.7131 29.6939C82.5374 29.646 82.3457 29.7099 82.226 29.8456C81.9385 30.1651 81.627 30.4845 81.3156 30.7959C81.1479 30.9636 81.1239 31.2351 81.2597 31.4348C82.3138 32.9361 84.0866 37.2802 84.0866 49.4662C84.0866 61.6521 82.3138 65.9963 81.2597 67.4976C81.1239 67.6972 81.1479 67.9607 81.3156 68.1364C81.627 68.4478 81.9385 68.7593 82.226 69.0867C82.3218 69.1905 82.4575 69.2544 82.5933 69.2544C82.6332 69.2544 82.6731 69.2544 82.7131 69.2384C83.1603 69.1266 87.0572 67.6253 87.0572 49.4742C87.0572 31.323 83.1603 29.8137 82.7131 29.7099V29.6939Z" fill="#3F3738"/>
<path d="M31.5577 43.1093H37.1715V55.8222H31.5577C29.5932 55.8222 27.9961 54.2251 27.9961 52.2607V46.6788C27.9961 44.7144 29.5932 43.1172 31.5577 43.1172V43.1093Z" fill="#AA191E"/>
<path d="M34.2641 40.7061H52V58.2184H34.2641C32.4115 58.2184 30.9102 56.7171 30.9102 54.8645V44.06C30.9102 42.2073 32.4115 40.7061 34.2641 40.7061Z" fill="#D51F26"/>
<path d="M40.0126 39.8358H36.5469V40.7062H40.0126V39.8358Z" fill="#3F3738"/>
<path d="M44.4474 78.0467C44.4474 78.5738 44.0242 78.997 43.4972 78.997C42.9701 78.997 42.5469 78.5738 42.5469 78.0467C42.5469 77.5197 42.9701 77.0964 43.4972 77.0964C44.0242 77.0964 44.4474 77.5197 44.4474 78.0467Z" fill="#85868A"/>
<path d="M40.0217 61.8116C40.0217 62.3387 39.5984 62.7619 39.0714 62.7619C38.5443 62.7619 38.1211 62.3387 38.1211 61.8116C38.1211 61.2846 38.5443 60.8613 39.0714 60.8613C39.5984 60.8613 40.0217 61.2846 40.0217 61.8116Z" fill="#85868A"/>
<path d="M49.0225 40.7061H46.1797V58.2184H49.0225V40.7061Z" fill="#AA191E"/>
</g>
<circle cx="57.5312" cy="58.4066" r="56.5" stroke="#D51F26" stroke-width="2"/>
</svg>
