<svg width="116" height="116" viewBox="0 0 116 116" fill="none" xmlns="http://www.w3.org/2000/svg">
<mask id="mask0_1359_49884" style="mask-type:alpha" maskUnits="userSpaceOnUse" x="0" y="0" width="116" height="116">
<path d="M115.27 58.1602C115.27 89.9173 89.5266 115.66 57.7695 115.66C26.0124 115.66 0.269531 89.9173 0.269531 58.1602C0.269531 26.403 26.0124 0.660156 57.7695 0.660156C89.5266 0.660156 115.27 26.403 115.27 58.1602Z" fill="#00AFB8"/>
</mask>
<g mask="url(#mask0_1359_49884)">
<rect x="0.269531" y="0.0317383" width="114.916" height="114.916" fill="#E6E7E8"/>
<path d="M115.288 115.66V66.9284C115.214 66.8537 87.4352 40.9558 87.3044 40.8344C85.4359 41.3015 77.4127 40.8344 75.3573 40.8344L40.9104 46.8885L26.2695 72.6605L72.3209 115.651H115.288V115.66Z" fill="#85868A"/>
<path d="M57.5924 57.0808L88.2481 40.8514L57.5924 26.4252L26.0352 40.8514L57.5924 57.0808Z" fill="white"/>
<path d="M57.4434 90.6086L57.5924 57.0808L26.0352 40.8513V72.4086L57.4434 90.6086Z" fill="#E6E7E8"/>
<path d="M57.4449 90.6086L57.5935 57.0808L88.25 40.8513V72.4086L57.4449 90.6086Z" fill="#A7A9AC"/>
<path d="M42.2628 49.4169L72.9184 33.1875L67.9594 31.3842L38.6562 47.1628V58.8841L42.2628 60.6874V49.4169Z" fill="#D51F26"/>
</g>
<ellipse cx="40.0895" cy="69.5527" rx="8.79781" ry="5.65574" transform="rotate(31.2129 40.0895 69.5527)" fill="#D51F26"/>
<ellipse rx="8.79781" ry="5.65574" transform="matrix(-0.837209 0.546884 0.546884 0.837209 74.161 69.4783)" fill="#AA191E"/>
<circle cx="57.7695" cy="58.1602" r="56.5" stroke="#D51F26" stroke-width="2"/>
<line x1="26.3945" y1="40.6602" x2="26.3945" y2="72.6602" stroke="#85868A" stroke-width="0.25"/>
</svg>
