<svg width="116" height="116" viewBox="0 0 116 116" fill="none" xmlns="http://www.w3.org/2000/svg">
<mask id="mask0_1359_49906" style="mask-type:alpha" maskUnits="userSpaceOnUse" x="0" y="0" width="116" height="116">
<path d="M115.031 57.9249C115.031 89.682 89.2884 115.425 57.5312 115.425C25.7741 115.425 0.03125 89.682 0.03125 57.9249C0.03125 26.1678 25.7741 0.424927 57.5312 0.424927C89.2884 0.424927 115.031 26.1678 115.031 57.9249Z" fill="#00AFB8"/>
</mask>
<g mask="url(#mask0_1359_49906)">
<path d="M115.031 0.424927H0.03125V115.425H115.031V0.424927Z" fill="#E6E7E8"/>
<path d="M115.032 70.9734C99.4272 55.3686 79.406 35.3474 79.3661 35.3074C73.7917 29.6852 66.0612 26.1953 57.532 26.1953C40.5695 26.1953 26.7695 39.9953 26.7695 56.9578C26.7695 65.4869 30.2595 73.2175 35.8817 78.7918C35.9216 78.8318 56.6536 99.5637 72.514 115.424H115.024V70.9734H115.032Z" fill="#A7A9AC"/>
<path d="M57.532 26.1875C40.5695 26.1875 26.7695 39.9875 26.7695 56.95C26.7695 73.9125 40.5695 87.7125 57.532 87.7125C74.4945 87.7125 88.2946 73.9125 88.2946 56.95C88.2946 39.9875 74.4945 26.1875 57.532 26.1875Z" fill="#AA191E"/>
<path d="M57.5316 29.446C42.3659 29.446 30.0273 41.7846 30.0273 56.9502C30.0273 72.1158 42.3659 84.4543 57.5316 84.4543C72.6972 84.4543 85.0357 72.1158 85.0357 56.9502C85.0357 41.7846 72.6972 29.446 57.5316 29.446Z" fill="#A7A9AC"/>
<path d="M79.9733 69.9039C82.1775 66.0945 83.4552 61.6702 83.4552 56.9584C83.4552 42.6633 71.8275 31.0355 57.5324 31.0355C43.2372 31.0355 31.6094 42.6633 31.6094 56.9584C31.6094 61.6702 32.8793 66.0945 35.0914 69.9039H79.9813H79.9733Z" fill="white"/>
<path d="M57.5324 32.9681C71.4601 32.9681 82.8483 44.005 83.4313 57.789C83.4392 57.5095 83.4552 57.2379 83.4552 56.9584C83.4552 42.6633 71.8275 31.0355 57.5324 31.0355C43.2372 31.0355 31.6094 42.6633 31.6094 56.9584C31.6094 57.2379 31.6254 57.5175 31.6334 57.789C32.2163 44.005 43.6046 32.9681 57.5324 32.9681Z" fill="#E6E7E8"/>
<path d="M56.5641 41.5529V33.7744C53.1141 33.9182 49.8558 34.8366 46.9648 36.3539L50.8541 43.0862C52.595 42.2237 54.5276 41.6886 56.5641 41.5529Z" fill="#85868A"/>
<path d="M70.0753 48.2293L76.7997 44.3481C75.0028 41.521 72.5989 39.1252 69.7719 37.3203L65.8906 44.0446C67.5437 45.1547 68.9653 46.5762 70.0753 48.2293Z" fill="#D51F26"/>
<path d="M72.5685 55.6241H80.347C80.2032 52.1741 79.2849 48.9158 77.7675 46.0248L71.0352 49.914C71.8977 51.655 72.4328 53.5876 72.5685 55.6241Z" fill="#AA191E"/>
<path d="M64.2062 43.0862L68.0954 36.3539C65.2044 34.8366 61.9461 33.9182 58.4961 33.7744V41.5529C60.5405 41.6807 62.4652 42.2157 64.2062 43.0862Z" fill="#E9ACAE"/>
<path d="M42.4933 57.5573H34.7148C34.8586 61.0073 35.777 64.2656 37.2943 67.1566L44.0267 63.2673C43.1642 61.5264 42.6291 59.5937 42.4933 57.5573Z" fill="#E6E7E8"/>
<path d="M71.0352 63.2673L77.7675 67.1566C79.2849 64.2656 80.2032 61.0073 80.347 57.5573H72.5685C72.4407 59.6017 71.9056 61.5264 71.0352 63.2673Z" fill="#6B1013"/>
<path d="M49.1707 44.0446L45.2894 37.3203C42.4624 39.1172 40.0666 41.521 38.2617 44.3481L44.986 48.2293C46.096 46.5762 47.5176 45.1547 49.1707 44.0446Z" fill="#A7A9AC"/>
<path d="M44.0267 49.914L37.2943 46.0248C35.777 48.9158 34.8586 52.1741 34.7148 55.6241H42.4933C42.6211 53.5797 43.1562 51.655 44.0267 49.914Z" fill="#E6E7E8"/>
<path d="M67.9391 80.7572H47.1194C44.7795 80.7572 42.8867 78.8644 42.8867 76.5245C42.8867 74.1846 44.7795 72.2919 47.1194 72.2919H67.9391C70.2791 72.2919 72.1718 74.1846 72.1718 76.5245C72.1718 78.8644 70.2791 80.7572 67.9391 80.7572Z" fill="#3F3738"/>
<path d="M47.1194 74.2245H67.9391C69.9437 74.2245 71.6128 75.6221 72.052 77.4908C72.1239 77.1794 72.1718 76.8599 72.1718 76.5245C72.1718 74.1846 70.2791 72.2919 67.9391 72.2919H47.1194C44.7795 72.2919 42.8867 74.1846 42.8867 76.5245C42.8867 76.8599 42.9347 77.1794 43.0065 77.4908C43.4458 75.6221 45.1149 74.2245 47.1194 74.2245Z" fill="#3F3738"/>
<path d="M46.16 73.6645C46.16 73.6645 46.3437 73.8322 46.6711 74.1756V75.9086C46.6711 75.9086 46.5034 76.0923 46.16 76.4197C46.144 76.4197 46.088 76.3638 45.9922 76.252V73.8322C45.9922 73.8322 46.0482 73.7604 46.16 73.6645ZM46.16 76.5874C46.16 76.5874 46.3437 76.7552 46.6711 77.0986V78.8315C46.6711 78.8315 46.5034 79.0152 46.16 79.3427C46.144 79.3427 46.088 79.2867 45.9922 79.1749V76.7552C45.9922 76.7552 46.0482 76.6833 46.16 76.5874ZM46.8228 78.8715H48.5558C48.5558 78.8715 48.7395 79.0392 49.0669 79.3826C49.0669 79.3986 49.0109 79.4545 48.8991 79.5503H46.4793C46.4793 79.5503 46.4075 79.4944 46.3117 79.3826C46.3117 79.3666 46.4794 79.1989 46.8228 78.8715ZM46.5033 73.4808H48.9231C48.9231 73.4808 48.995 73.5368 49.0908 73.6486C49.0908 73.6645 48.9231 73.8323 48.5797 74.1597H46.8468C46.8468 74.1597 46.6631 73.992 46.3356 73.6486C46.3356 73.6326 46.3915 73.5767 46.5033 73.4808ZM46.6711 76.1562H48.6755C48.6755 76.1562 48.8033 76.268 49.019 76.4996V76.5156C49.019 76.5156 48.9071 76.6434 48.6755 76.859H46.6711C46.6711 76.859 46.5433 76.7472 46.3276 76.5156V76.4996C46.3276 76.4996 46.4395 76.3718 46.6711 76.1562ZM49.2426 73.6566C49.2426 73.6566 49.3144 73.7124 49.4103 73.8242V76.244C49.4103 76.244 49.3544 76.3159 49.2426 76.4118C49.2266 76.4118 49.0589 76.2441 48.7315 75.9006V74.1677C48.7315 74.1677 48.8992 73.984 49.2426 73.6566ZM49.2426 76.6194C49.2426 76.6194 49.3144 76.6753 49.4103 76.7871V79.2069C49.4103 79.2069 49.3544 79.2788 49.2426 79.3746C49.2266 79.3746 49.0589 79.2069 48.7315 78.8635V77.1305C48.7315 77.1305 48.8992 76.9468 49.2426 76.6194Z" fill="#E6E7E8"/>
<path d="M50.9685 73.6645C50.9685 73.6645 51.1522 73.8322 51.4796 74.1756V75.9086C51.4796 75.9086 51.3119 76.0923 50.9685 76.4197C50.9525 76.4197 50.8966 76.3638 50.8008 76.252V73.8322C50.8008 73.8322 50.8567 73.7604 50.9685 73.6645ZM51.6314 78.8715H53.3643C53.3643 78.8715 53.548 79.0392 53.8754 79.3826C53.8754 79.3986 53.8195 79.4545 53.7077 79.5503H51.2879C51.2879 79.5503 51.2161 79.4944 51.1202 79.3826C51.1202 79.3666 51.288 79.1989 51.6314 78.8715ZM51.3119 73.4808H53.7317C53.7317 73.4808 53.8036 73.5368 53.8994 73.6486C53.8994 73.6645 53.7317 73.8323 53.3883 74.1597H51.6553C51.6553 74.1597 51.4717 73.992 51.1442 73.6486C51.1442 73.6326 51.2001 73.5767 51.3119 73.4808ZM51.4796 76.1562H53.4841C53.4841 76.1562 53.6119 76.268 53.8275 76.4996V76.5156C53.8275 76.5156 53.7157 76.6434 53.4841 76.859H51.4796C51.4796 76.859 51.3519 76.7472 51.1362 76.5156V76.4996C51.1362 76.4996 51.248 76.3718 51.4796 76.1562ZM54.0512 76.6194C54.0512 76.6194 54.123 76.6753 54.2189 76.7871V79.2069C54.2189 79.2069 54.163 79.2788 54.0512 79.3746C54.0352 79.3746 53.8675 79.2069 53.5401 78.8635V77.1305C53.5401 77.1305 53.7078 76.9468 54.0512 76.6194Z" fill="#E6E7E8"/>
<path d="M55.7771 73.4808H58.1969C58.1969 73.4808 58.2687 73.5368 58.3645 73.6486C58.3645 73.6645 58.1969 73.8323 57.8535 74.1597H56.1205C56.1205 74.1597 55.9368 73.992 55.6094 73.6486C55.6094 73.6326 55.6652 73.5767 55.7771 73.4808ZM58.5163 73.6486C58.5163 73.6486 58.5882 73.7045 58.684 73.8163V76.2361C58.684 76.2361 58.6281 76.3079 58.5163 76.4038C58.5004 76.4038 58.3326 76.2361 58.0052 75.8927V74.1597C58.0052 74.1597 58.1729 73.976 58.5163 73.6486ZM58.5163 76.5954C58.5163 76.5954 58.5882 76.6514 58.684 76.7632V79.3826C58.684 79.3826 58.6281 79.4545 58.5163 79.5503C58.5004 79.5503 58.3326 79.3826 58.0052 79.0392V77.0986C58.0052 77.0986 58.1729 76.9149 58.5163 76.5874V76.5954Z" fill="#E6E7E8"/>
<path d="M60.5817 73.4808H63.0016C63.0016 73.4808 63.0734 73.5368 63.1692 73.6486C63.1692 73.6645 63.0015 73.8323 62.6581 74.1597H60.9252C60.9252 74.1597 60.7415 73.992 60.4141 73.6486C60.4141 73.6326 60.4699 73.5767 60.5817 73.4808ZM60.9412 78.8715H62.6741C62.6741 78.8715 62.8578 79.0392 63.1852 79.3826C63.1852 79.3986 63.1293 79.4545 63.0175 79.5503H60.5977C60.5977 79.5503 60.5259 79.4944 60.4301 79.3826C60.4301 79.3666 60.5978 79.1989 60.9412 78.8715ZM60.8214 76.1482H62.8259C62.8259 76.1482 62.9536 76.26 63.1692 76.4916V76.5076C63.1692 76.5076 63.0575 76.6354 62.8259 76.851H60.8214C60.8214 76.851 60.6935 76.7392 60.4779 76.5076V76.4916C60.4779 76.4916 60.5898 76.3638 60.8214 76.1482ZM63.337 73.6645C63.337 73.6645 63.4089 73.7204 63.5047 73.8322V76.252C63.5047 76.252 63.4488 76.3239 63.337 76.4197C63.321 76.4197 63.1533 76.252 62.8259 75.9086V74.1756C62.8259 74.1756 62.9936 73.992 63.337 73.6645ZM63.337 76.5874C63.337 76.5874 63.4089 76.6434 63.5047 76.7552V79.1749C63.5047 79.1749 63.4488 79.2468 63.337 79.3427C63.321 79.3427 63.1533 79.1749 62.8259 78.8315V77.0986C62.8259 77.0986 62.9936 76.9149 63.337 76.5874Z" fill="#E6E7E8"/>
<path d="M65.3903 73.6645C65.3903 73.6645 65.574 73.8322 65.9015 74.1756V75.9086C65.9015 75.9086 65.7337 76.0923 65.3903 76.4197C65.3744 76.4197 65.3185 76.3638 65.2227 76.252V73.8322C65.2227 73.8322 65.2785 73.7604 65.3903 73.6645ZM66.0531 78.8715H67.7862C67.7862 78.8715 67.9699 79.0392 68.2973 79.3826C68.2973 79.3986 68.2414 79.4545 68.1296 79.5503H65.7098C65.7098 79.5503 65.6379 79.4944 65.542 79.3826C65.542 79.3666 65.7097 79.1989 66.0531 78.8715ZM65.7338 73.4808H68.1535C68.1535 73.4808 68.2254 73.5368 68.3213 73.6486C68.3213 73.6645 68.1536 73.8323 67.8101 74.1597H66.0771C66.0771 74.1597 65.8934 73.992 65.566 73.6486C65.566 73.6326 65.622 73.5767 65.7338 73.4808ZM65.9573 76.1881H67.9618C67.9618 76.1881 68.0897 76.2999 68.3053 76.5315V76.5475C68.3053 76.5475 68.1934 76.6753 67.9618 76.8909H65.9573C65.9573 76.8909 65.8296 76.7791 65.614 76.5475V76.5315C65.614 76.5315 65.7257 76.4038 65.9573 76.1881ZM68.473 73.6885C68.473 73.6885 68.5448 73.7444 68.6406 73.8562V76.276C68.6406 76.276 68.5848 76.3479 68.473 76.4437C68.457 76.4437 68.2893 76.276 67.9618 75.9326V74.1996C67.9618 74.1996 68.1296 74.0159 68.473 73.6885ZM68.473 76.6114C68.473 76.6114 68.5448 76.6673 68.6406 76.7791V79.1989C68.6406 79.1989 68.5848 79.2708 68.473 79.3666C68.457 79.3666 68.2893 79.1989 67.9618 78.8555V77.1225C67.9618 77.1225 68.1296 76.9389 68.473 76.6114Z" fill="#E6E7E8"/>
<path d="M66.7704 41.1051L54.8711 58.4909L58.984 60.719L67.0579 41.2568C67.1298 41.0731 66.8822 40.9454 66.7784 41.1051H66.7704Z" fill="#E6E7E8"/>
<path d="M57.5322 53.5719C55.1284 53.5719 53.1797 55.5285 53.1797 57.9243C53.1797 60.3202 55.1363 62.2768 57.5322 62.2768C59.928 62.2768 61.8846 60.3202 61.8846 57.9243C61.8846 55.5285 59.928 53.5719 57.5322 53.5719Z" fill="#E6E7E8"/>
<path d="M66.7704 40.1391L54.8711 57.5249L58.984 59.753L67.0579 40.2909C67.1298 40.1072 66.8822 39.9794 66.7784 40.1391H66.7704Z" fill="#3F3738"/>
<path d="M57.5322 52.598C55.1284 52.598 53.1797 54.5546 53.1797 56.9505C53.1797 59.3463 55.1363 61.3029 57.5322 61.3029C59.928 61.3029 61.8846 59.3463 61.8846 56.9505C61.8846 54.5546 59.928 52.598 57.5322 52.598Z" fill="#3F3738"/>
<path d="M57.5314 54.6177C56.2376 54.6177 55.1914 55.6639 55.1914 56.9576C55.1914 58.2514 56.2376 59.2975 57.5314 59.2975C58.8251 59.2975 59.8713 58.2514 59.8713 56.9576C59.8713 55.6639 58.8251 54.6177 57.5314 54.6177Z" fill="#D51F26"/>
<circle cx="57.5312" cy="57.9249" r="56.5" stroke="#D51F26" stroke-width="2"/>
</g>
</svg>
