<svg width="116" height="116" viewBox="0 0 116 116" fill="none" xmlns="http://www.w3.org/2000/svg">
<path d="M115.426 57.9089C115.426 26.1612 89.6895 0.424747 57.9416 0.424749C26.1938 0.42475 0.457027 26.1612 0.457029 57.9089C0.45703 89.6566 26.1938 115.393 57.9416 115.393C89.6895 115.393 115.426 89.6566 115.426 57.9089Z" fill="#E6E7E8"/>
<path d="M115.455 57.9313C115.455 57.0307 115.427 56.13 115.39 55.2386L95.6498 35.4984C95.6498 35.4984 28.1001 80.7542 26.503 80.7542C24.906 80.7542 17.6914 83.9947 17.6914 83.9947L48.3046 114.608C51.4523 115.137 54.6743 115.425 57.9705 115.425C89.7166 115.425 115.455 89.6865 115.455 57.9406V57.9313Z" fill="#A7A9AC"/>
<path d="M92.1383 33.5104H25.9721C23.7158 33.5104 21.8867 35.3395 21.8867 37.5958V77.299C21.8867 79.5554 23.7158 81.3845 25.9721 81.3845H92.1383C94.3947 81.3845 96.2238 79.5554 96.2238 77.299V37.5958C96.2238 35.3395 94.3947 33.5104 92.1383 33.5104Z" fill="#3F3738"/>
<path d="M22.4727 79.3971C23.1876 80.5856 24.4874 81.3841 25.9731 81.3841H92.1486C94.4049 81.3841 96.2341 79.5549 96.2341 77.2986V37.5954C96.2341 36.8247 96.0205 36.1098 95.6491 35.4969L22.4727 79.4064V79.3971Z" fill="#3F3738"/>
<path d="M92.1482 37.5963H25.9727V77.2995H92.1482V37.5963Z" fill="#A7A9AC"/>
<path d="M25.9727 77.2995H92.1482V37.5963L25.9727 77.2995Z" fill="#85868A"/>
<path d="M102.363 79.5376C102.363 82.9174 99.6241 85.6658 96.235 85.6658H21.8977C18.5179 85.6658 15.7695 82.9267 15.7695 79.5376H102.363Z" fill="white"/>
<path d="M66.3458 79.5376C66.3458 81.2275 64.9715 82.6017 63.2816 82.6017H54.8415C53.1516 82.6017 51.7773 81.2275 51.7773 79.5376H66.3365H66.3458Z" fill="#A7A9AC"/>
<path d="M68.3813 60.1413H49.7461L47.4805 48.6277H70.6468L68.3813 60.1413Z" fill="#D51F26"/>
<path d="M67.6464 65.0624H50.4782C49.9026 65.0624 49.4197 64.6539 49.3083 64.0967L46.0214 47.3742H42.6509C41.9917 47.3742 41.4531 46.8356 41.4531 46.1764C41.4531 45.5172 41.9917 44.9786 42.6509 44.9786H47.0056C47.5813 44.9786 48.0641 45.3872 48.1755 45.9443L51.4625 62.6668H67.6464C68.3057 62.6668 68.8443 63.2054 68.8443 63.8646C68.8443 64.5239 68.3057 65.0624 67.6464 65.0624Z" fill="white"/>
<path d="M50.4792 72.4077C48.7614 72.4077 47.3594 71.0056 47.3594 69.2879C47.3594 67.5701 48.7614 66.1681 50.4792 66.1681C52.1969 66.1681 53.599 67.5701 53.599 69.2879C53.599 71.0056 52.1969 72.4077 50.4792 72.4077ZM50.4792 68.5637C50.0799 68.5637 49.7549 68.8886 49.7549 69.2879C49.7549 69.6871 50.0799 70.0121 50.4792 70.0121C50.8784 70.0121 51.2034 69.6871 51.2034 69.2879C51.2034 68.8886 50.8784 68.5637 50.4792 68.5637Z" fill="#AA191E"/>
<path d="M67.6471 72.4162C65.9294 72.4162 64.5273 71.0142 64.5273 69.2964C64.5273 67.5787 65.9294 66.1766 67.6471 66.1766C69.3649 66.1766 70.7669 67.5787 70.7669 69.2964C70.7669 71.0142 69.3649 72.4162 67.6471 72.4162ZM67.6471 68.5722C67.2479 68.5722 66.923 68.8972 66.923 69.2964C66.923 69.6957 67.2479 70.0207 67.6471 70.0207C68.0464 70.0207 68.3714 69.6957 68.3714 69.2964C68.3714 68.8972 68.0464 68.5722 67.6471 68.5722Z" fill="#AA191E"/>
<path d="M114.458 57.9249C114.458 89.129 89.1617 114.425 57.9574 114.425C26.7531 114.425 1.45703 89.129 1.45703 57.9249C1.45703 26.7208 26.7531 1.42493 57.9574 1.42493C89.1617 1.42493 114.458 26.7208 114.458 57.9249Z" stroke="#D51F26" stroke-width="2"/>
</svg>
