<svg width="116" height="116" viewBox="0 0 116 116" fill="none" xmlns="http://www.w3.org/2000/svg">
<mask id="mask0_1359_49854" style="mask-type:alpha" maskUnits="userSpaceOnUse" x="0" y="0" width="116" height="116">
<path d="M115.457 58.4066C115.457 90.1637 89.7141 115.907 57.957 115.907C26.1999 115.907 0.457031 90.1637 0.457031 58.4066C0.457031 26.6495 26.1999 0.906616 57.957 0.906616C89.7141 0.906616 115.457 26.6495 115.457 58.4066Z" fill="#00AFB8"/>
</mask>
<g mask="url(#mask0_1359_49854)">
<path d="M115.457 0.906616H0.457031V115.907H115.457V0.906616Z" fill="#E6E7E8"/>
<path d="M115.456 72.6367C102.51 59.6992 89.0299 46.2187 89.0059 46.1947C88.7823 45.9072 88.4388 45.7235 88.0395 45.7235H86.1229C86.1229 45.7235 64.0413 23.6419 63.9615 23.5701C62.8674 22.4041 61.0705 22.1725 59.7208 23.1148C58.9781 23.6339 58.5149 24.4166 58.3791 25.2471C58.3791 25.2471 56.8458 23.7138 56.766 23.634C56.5983 23.4423 56.4145 23.2586 56.1909 23.1069C54.7135 22.0766 52.6851 22.436 51.6549 23.9055C50.9521 24.9117 50.9041 26.1735 51.4152 27.2037L38.4618 45.7075H27.8802C27.1295 45.7075 26.5545 46.3704 26.6663 47.1131L26.7621 47.752L27.2972 51.4336C27.3451 51.769 27.5368 52.0485 27.7924 52.2322C27.8642 52.3201 29.9006 54.3645 29.9326 54.3964L29.9486 54.5721L32.1687 77.1489C32.2087 77.5801 32.4242 77.9555 32.7357 78.219C32.7357 78.219 52.9326 98.4159 70.4062 115.889H115.464V72.6207L115.456 72.6367Z" fill="#A7A9AC"/>
<path d="M82.6312 48.2393L80.1954 72.9962C80.1395 73.5472 79.6764 73.9705 79.1173 73.9705H77.1687C76.5458 73.9705 76.0506 73.4434 76.0906 72.8125L77.6798 48.5906L73.7427 48.3031L72.1295 72.9562C72.0896 73.5232 71.6184 73.9705 71.0514 73.9705H69.0947C68.4798 73.9705 67.9927 73.4674 68.0086 72.8525L68.8072 48.5267L64.8621 48.383L64.0555 72.9243C64.0396 73.5073 63.5603 73.9705 62.9693 73.9705H61.0048C60.4058 73.9705 59.9187 73.4833 59.9187 72.8844V48.4469H55.9736V72.8844C55.9736 73.4833 55.4864 73.9705 54.8874 73.9705H52.9229C52.3399 73.9705 51.8607 73.5073 51.8368 72.9243L51.0301 48.383L47.0851 48.5267L47.8837 72.8525C47.9076 73.4674 47.4124 73.9705 46.7975 73.9705H44.8409C44.2739 73.9705 43.7948 73.5312 43.7628 72.9562L42.1496 48.3031L38.2124 48.5906L39.8017 72.8125C39.8417 73.4354 39.3464 73.9705 38.7235 73.9705H36.775C36.2159 73.9705 35.7528 73.5472 35.6969 72.9962L33.2611 48.2393L29.3398 48.6705L32.143 77.1729C32.1829 77.6042 32.3986 77.9795 32.7101 78.2431C33.0055 78.5785 33.4288 78.7861 33.908 78.7861H81.9763C82.4395 78.7861 82.8548 78.5865 83.1503 78.267C83.4777 78.0035 83.7013 77.6201 83.7492 77.1729L86.5524 48.6705L82.6312 48.2393V48.2393Z" fill="#D51F26"/>
<path d="M42.1597 48.3112L38.2305 48.5986L38.6218 54.5962H42.575L42.1597 48.3112Z" fill="#AA191E"/>
<path d="M33.2806 48.2393L29.3594 48.6705L29.9423 54.5962H33.9035L33.2806 48.2393Z" fill="#AA191E"/>
<path d="M51.0507 48.3829L47.1055 48.5267L47.3051 54.5961H51.2503L51.0507 48.3829Z" fill="#AA191E"/>
<path d="M82.0039 54.5962H85.973L86.556 48.6705L82.6348 48.2393L82.0039 54.5962Z" fill="#AA191E"/>
<path d="M59.9296 48.4547H55.9844V54.596H59.9296V48.4547Z" fill="#AA191E"/>
<path d="M64.6602 54.5961H68.6052L68.8049 48.5267L64.8678 48.3829L64.6602 54.5961Z" fill="#AA191E"/>
<path d="M73.3398 54.5962H77.2929L77.6842 48.5986L73.7471 48.3112L73.3398 54.5962Z" fill="#AA191E"/>
<path d="M87.4087 52.5033H28.5032C27.8962 52.5033 27.3771 52.0561 27.2893 51.4492L26.6583 47.1287C26.5465 46.386 27.1295 45.7231 27.8722 45.7231H88.0396C88.7903 45.7231 89.3653 46.386 89.2535 47.1287L88.6226 51.4492C88.5348 52.0561 88.0157 52.5033 87.4087 52.5033Z" fill="#D51F26"/>
<path d="M26.7623 47.8554C26.954 47.4401 27.3693 47.1367 27.8724 47.1367H88.0397C88.5428 47.1367 88.9581 47.4401 89.1498 47.8554L89.2536 47.1287C89.3654 46.386 88.7824 45.7231 88.0397 45.7231H27.8724C27.1217 45.7231 26.5467 46.386 26.6585 47.1287L26.7623 47.8554V47.8554Z" fill="#D51F26"/>
<path d="M56.1926 23.1234C57.67 24.1536 58.0214 26.1901 56.9912 27.6595C55.961 29.1369 53.9246 29.4963 52.4551 28.4581C50.9777 27.4279 50.6263 25.3914 51.6565 23.922C52.6867 22.4446 54.7231 22.0852 56.1926 23.1234Z" fill="#D51F26"/>
<path d="M55.887 28.6333V25.7903L52.6367 28.5615C53.6589 29.1844 54.8967 29.1844 55.887 28.6333V28.6333Z" fill="#AA191E"/>
<path d="M39.493 46.9696C40.675 47.8001 40.9704 49.4373 40.1399 50.6192C39.3093 51.8012 37.6722 52.0966 36.4902 51.2661C35.3083 50.4355 35.0128 48.7984 35.8433 47.6164C36.6739 46.4345 38.3111 46.139 39.493 46.9696Z" fill="#AA191E"/>
<path d="M55.6009 26.6847L39.2694 50.0121C38.7742 50.7228 37.7999 50.8905 37.0892 50.3954C36.3784 49.9002 36.2107 48.926 36.7059 48.2152L53.0374 24.8878C53.5326 24.177 54.5068 24.0093 55.2176 24.5044C55.9284 24.9996 56.0961 25.9739 55.6009 26.6847Z" fill="#E6E7E8"/>
<path d="M37.4582 48.9661L53.7898 25.6387C54.229 25.0078 55.0596 24.8082 55.7304 25.1196C55.6186 24.88 55.4509 24.6644 55.2193 24.5047C54.5086 24.0095 53.5343 24.1853 53.0391 24.888L36.7076 48.2154C36.2124 48.9262 36.3881 49.9005 37.0909 50.3956C37.1628 50.4515 37.2426 50.4915 37.3304 50.5314C37.0988 50.0363 37.1228 49.4453 37.4582 48.9661Z" fill="white"/>
<path d="M59.7208 23.1234C58.2433 24.1536 57.8919 26.1901 58.9222 27.6595C59.9524 29.1369 61.9889 29.4963 63.4583 28.4581C64.9357 27.4279 65.2871 25.3914 64.2569 23.922C63.2267 22.4446 61.1902 22.0852 59.7208 23.1234Z" fill="#D51F26"/>
<path d="M60.0234 28.6336V25.7905L63.2737 28.5617C62.2515 29.1847 61.0137 29.1846 60.0234 28.6336V28.6336Z" fill="#AA191E"/>
<path d="M76.4199 46.9698C75.238 47.8004 74.9425 49.4375 75.773 50.6195C76.6036 51.8014 78.2408 52.0969 79.4227 51.2663C80.6047 50.4358 80.9001 48.7986 80.0695 47.6167C79.239 46.4347 77.6019 46.1392 76.4199 46.9698Z" fill="#AA191E"/>
<path d="M60.3035 26.6849L76.6352 50.0123C77.1303 50.7231 78.1046 50.8908 78.8154 50.3956C79.5261 49.9005 79.6938 48.9262 79.1987 48.2154L62.8671 24.888C62.372 24.1773 61.3976 24.0095 60.6868 24.5047C59.9761 24.9998 59.8084 25.9741 60.3035 26.6849Z" fill="#E6E7E8"/>
<path d="M78.4558 48.9664L62.1243 25.6389C61.685 25.008 60.8544 24.8084 60.1836 25.1199C60.2954 24.8803 60.4631 24.6646 60.6947 24.5049C61.4055 24.0098 62.3798 24.1855 62.8749 24.8883L79.2066 48.2157C79.7017 48.9264 79.526 49.9007 78.8232 50.3959C78.7514 50.4518 78.6715 50.4917 78.5836 50.5317C78.8152 50.0365 78.7912 49.4455 78.4558 48.9664Z" fill="white"/>
</g>
<path d="M80.4014 37.0784C86.2457 42.9226 86.2457 52.3929 80.4014 58.2372C74.5572 64.0814 65.0868 64.0814 59.2426 58.2372C53.3983 52.3929 53.3983 42.9226 59.2426 37.0784C65.0868 31.2341 74.5572 31.2341 80.4014 37.0784Z" fill="#E6E7E8"/>
<path d="M81.6205 56.794L78.9766 59.4379L84.38 64.8413L87.0239 62.1974L81.6205 56.794Z" fill="#3F3738"/>
<path d="M87.0427 62.2211L84.3944 64.8694C83.9134 65.3504 83.9134 66.1303 84.3944 66.6113L98.5383 80.7552C99.0193 81.2362 99.7991 81.2362 100.28 80.7552L102.928 78.1068C103.409 77.6258 103.409 76.846 102.928 76.365L88.7846 62.2211C88.3035 61.7401 87.5237 61.7401 87.0427 62.2211Z" fill="#AA191E"/>
<path d="M59.2444 37.0784C54.6381 41.6847 53.6641 48.5407 56.3223 54.1022C57.2712 54.2656 58.2515 54.3473 59.2444 54.3473C68.7837 54.3473 76.5132 46.6178 76.5132 37.0784C76.5132 36.0793 76.4253 35.1052 76.2682 34.1563C70.7067 31.5044 63.8507 32.4784 59.2444 37.0784Z" fill="white"/>
<path d="M69.8262 64.232C65.3958 64.232 61.2358 62.5102 58.1 59.3744C54.9705 56.2449 53.2422 52.0785 53.2422 47.6544C53.2422 43.2241 54.9642 39.0641 58.1 35.9283C61.2295 32.7988 65.3958 31.0706 69.8199 31.0706C74.2439 31.0706 78.4102 32.7925 81.546 35.9283C88.0124 42.3947 88.0124 52.908 81.546 59.3744C78.4165 62.5039 74.2502 64.232 69.8199 64.232H69.8262ZM69.8262 34.3132C66.263 34.3132 62.9136 35.702 60.3936 38.2219C57.8737 40.7419 56.4849 44.0913 56.4849 47.6544C56.4849 51.2176 57.8737 54.567 60.3936 57.087C62.9136 59.6069 66.263 60.9957 69.8262 60.9957C73.3893 60.9957 76.7387 59.6069 79.2587 57.087C84.462 51.8837 84.462 43.4189 79.2587 38.2156C76.7387 35.6957 73.3893 34.3069 69.8262 34.3069V34.3132Z" fill="#3F3738"/>
<circle cx="57.957" cy="58.4066" r="56.5" stroke="#D51F26" stroke-width="2"/>
</svg>
