<svg width="116" height="116" viewBox="0 0 116 116" fill="none" xmlns="http://www.w3.org/2000/svg">
<mask id="mask0_1359_49876" style="mask-type:alpha" maskUnits="userSpaceOnUse" x="0" y="0" width="116" height="116">
<path d="M115.219 58.4703C115.219 90.2274 89.4759 115.97 57.7188 115.97C25.9616 115.97 0.21875 90.2274 0.21875 58.4703C0.21875 26.7132 25.9616 0.970337 57.7188 0.970337C89.4759 0.970337 115.219 26.7132 115.219 58.4703Z" fill="#00AFB8"/>
</mask>
<g mask="url(#mask0_1359_49876)">
<rect x="0.21875" y="0.341919" width="114.916" height="114.916" fill="#E6E7E8"/>
<path d="M115.239 115.971V67.2388C115.165 67.1641 77.9599 30.3131 77.8291 30.1917C75.9606 30.6588 77.3636 41.1447 75.3082 41.1447L40.8614 47.1989L31.6406 75.1233L72.2718 115.961H115.239V115.971Z" fill="#A7A9AC"/>
<path d="M55.722 76.9893L79.3216 64.4459L55.722 53.8711L31.6406 64.4459L55.722 76.9893Z" fill="white"/>
<path d="M55.7124 89.5765V76.9888L31.6406 64.4665V75.6278L55.7124 89.5765Z" fill="#E6E7E8"/>
<path d="M55.7108 89.5765V76.9888L79.3203 64.4665V75.6278L55.7108 89.5765Z" fill="#E6E7E8"/>
<ellipse cx="42.0637" cy="76.003" rx="6.74278" ry="4.33465" transform="rotate(31.0867 42.0637 76.003)" fill="#D51F26"/>
<path d="M55.722 60.1332L79.3216 47.5898L55.722 37.0151L31.6406 47.5898L55.722 60.1332Z" fill="white"/>
<path d="M55.7124 72.7205V60.1328L31.6406 47.6105V58.7717L55.7124 72.7205Z" fill="#E6E7E8"/>
<path d="M55.7108 72.7205V60.1328L79.3203 47.6105V58.7717L55.7108 72.7205Z" fill="#E6E7E8"/>
<ellipse cx="42.0631" cy="58.8764" rx="6.74278" ry="4.33465" transform="rotate(31.2777 42.0631 58.8764)" fill="#D51F26"/>
<path d="M55.722 42.313L79.3216 29.7696L55.722 19.1949L31.6406 29.7696L55.722 42.313Z" fill="white"/>
<path d="M55.7124 54.9003V42.3126L31.6406 29.7903V40.9515L55.7124 54.9003Z" fill="#E6E7E8"/>
<path d="M55.7108 54.9003V42.3126L79.3203 29.7903V40.9515L55.7108 54.9003Z" fill="#E6E7E8"/>
<ellipse cx="42.0625" cy="41.056" rx="6.74278" ry="4.33465" transform="rotate(29.8764 42.0625 41.056)" fill="#D51F26"/>
</g>
<circle cx="57.7188" cy="58.4703" r="56.5" stroke="#D51F26" stroke-width="2"/>
<line x1="31.3438" y1="64.9703" x2="31.3438" y2="75.9703" stroke="#85868A" stroke-width="0.25"/>
<line x1="31.3438" y1="47.9703" x2="31.3438" y2="58.9703" stroke="#85868A" stroke-width="0.25"/>
<line x1="31.3438" y1="29.9703" x2="31.3438" y2="40.9703" stroke="#85868A" stroke-width="0.25"/>
</svg>
