<?xml version="1.0" encoding="UTF-8" standalone="no"?><!DOCTYPE svg PUBLIC "-//W3C//DTD SVG 1.1//EN" "http://www.w3.org/Graphics/SVG/1.1/DTD/svg11.dtd"><svg width="100%" height="100%" viewBox="0 0 800 800" version="1.1" xmlns="http://www.w3.org/2000/svg" xmlns:xlink="http://www.w3.org/1999/xlink" xml:space="preserve" xmlns:serif="http://www.serif.com/" style="fill-rule:evenodd;clip-rule:evenodd;stroke-linejoin:round;stroke-miterlimit:2;"><g><rect x="0" y="-0" width="800" height="800" style="fill:none;"/><g id="Logistics-Option" serif:id="Logistics Option"><g id="Logistics-Excellence" serif:id="Logistics Excellence"><path d="M168.618,596.406l5.748,6.557l-34.063,19l7.147,8.149l-7.174,3.374l-12.429,-14.185l40.784,-22.881l-0.013,-0.014Z" style="fill:#87a6d3;fill-rule:nonzero;"/><path d="M189.251,636.655l-17.876,12.113c-7.147,4.829 -12.126,5.556 -18.245,-0.342c-5.981,-5.762 -4.719,-11.414 2.415,-16.243l18.876,-12.855c6.996,-4.787 12.346,-3.909 17.093,0.659c5.83,5.625 5.253,11.647 -2.263,16.682l-0,-0.014Zm-8.451,-11.29l-20.372,13.801c-2.057,1.439 -3.484,3.114 -1.756,4.787c1.537,1.481 3.361,0.768 5.666,-0.74l20.358,-13.898c2.208,-1.494 3.141,-3.059 1.468,-4.677c-1.235,-1.194 -2.881,-0.975 -5.379,0.727l0.015,0Z" style="fill:#87a6d3;fill-rule:nonzero;"/><path d="M190.636,672.32c-0.631,0.466 -3.759,3.046 -5.062,4.116l-5.199,-4.157c0.521,-0.645 1.481,-1.632 2.291,-2.305c-3.389,1.152 -6.243,-0 -8.176,-1.536c-5.516,-4.417 -2.854,-9.493 3.045,-14.349l16.599,-13.595c6.132,-5.02 11.551,-7.627 18.314,-2.03c8.149,6.612 3.786,12.607 -0.233,15.982l-1.126,0.85l-6.858,-5.487l1.92,-1.633c2.044,-1.784 3.06,-3.265 1.345,-4.637c-1.235,-0.988 -2.484,-0.85 -5.625,1.647l-18.259,14.994c-2.634,2.194 -3.443,3.745 -1.838,5.035c1.66,1.33 3.43,0.548 6.872,-2.223l4.774,-3.992l-2.359,-1.893l5.817,-4.747l9.095,7.298l-15.392,12.635l0.055,0.027Z" style="fill:#87a6d3;fill-rule:nonzero;"/><path d="M233.711,654.955l-34.008,32.115l-7.119,-4.911l34.008,-32.115l7.105,4.911l0.014,0Z" style="fill:#87a6d3;fill-rule:nonzero;"/><path d="M222.528,686.631l-1.481,1.673c-2.085,2.429 -2.566,4.062 -0.741,5.145c1.592,0.947 3.155,0.206 5.2,-2.167c2.578,-2.854 3.196,-5.117 2.126,-10.948c-1.277,-6.982 -1.359,-10.466 3.388,-15.776c4.595,-5.171 9.383,-5.995 14.816,-2.77c8.615,5.117 5.652,11.427 1.728,15.871l-0.672,0.727l-7.079,-4.211l1.139,-1.235c2.017,-2.318 3.045,-4.17 1.207,-5.268c-1.18,-0.7 -2.455,-0.425 -4.006,1.372c-2.112,2.497 -2.441,3.978 -1.618,8.766c1.605,9.246 0.919,13.074 -3.923,18.41c-5.145,5.556 -10.098,6.516 -16.476,2.744c-7.367,-4.377 -7.106,-10.055 -1.729,-15.873l0.741,-0.836l7.366,4.376l0.014,-0Z" style="fill:#87a6d3;fill-rule:nonzero;"/><path d="M260.243,679.252l-5.857,-2.867l4.802,-6.05l19.534,9.561l-4.802,6.05l-5.911,-2.894l-24.063,30.756l-7.764,-3.799l24.061,-30.757Z" style="fill:#87a6d3;fill-rule:nonzero;"/><path d="M290.449,684.601l-26.449,38.589l-7.984,-3.292l26.435,-38.59l7.998,3.293Z" style="fill:#87a6d3;fill-rule:nonzero;"/><path d="M300.643,721.309l-1.015,1.756c-3.553,5.68 -7.119,11.578 -16.612,8.41c-7.682,-2.566 -9.136,-7.751 -4.486,-15.598l10.783,-18.232c4.512,-7.682 8.683,-10.837 16.091,-8.368c10.22,3.402 7.765,10.549 4.815,15.268l-0.864,1.524l-8.203,-2.73l1.673,-2.84c1.523,-2.607 1.646,-4.075 -0.11,-4.664c-1.632,-0.55 -2.689,0.48 -4.376,3.388l-12.223,20.796c-1.522,2.607 -2.099,4.364 -0.15,5.008c1.687,0.562 2.866,-0.562 4.663,-3.581l1.687,-2.908l8.327,2.771Z" style="fill:#87a6d3;fill-rule:nonzero;"/><path d="M314.073,726.728l-0.92,2.045c-1.261,2.935 -1.248,4.636 0.809,5.129c1.798,0.426 3.074,-0.74 4.322,-3.621c1.605,-3.498 1.536,-5.843 -1.221,-11.084c-3.292,-6.283 -4.404,-9.589 -1.441,-16.064c2.854,-6.297 7.189,-8.505 13.321,-7.037c9.74,2.331 8.794,9.231 6.365,14.637l-0.424,0.891l-7.999,-1.92l0.714,-1.523c1.234,-2.799 1.66,-4.884 -0.398,-5.391c-1.331,-0.316 -2.47,0.329 -3.416,2.497c-1.29,3.004 -1.153,4.513 1.057,8.861c4.266,8.355 4.76,12.21 1.714,18.754c-3.265,6.831 -7.709,9.218 -14.912,7.489c-8.34,-2.003 -9.767,-7.489 -6.365,-14.637l0.453,-1.015l8.341,2.003l-0,-0.014Z" style="fill:#87a6d3;fill-rule:nonzero;"/><path d="M365.777,729.034l-9.397,-1.153l-4.143,12.416l11.304,1.385l-3.429,7.175l-19,-2.332l15.227,-44.227l18.451,2.263l-2.537,7.216l-9.878,-1.208l-3.443,10.014l9.397,1.153l-2.552,7.284l0,0.014Z" style="fill:#87a6d3;fill-rule:nonzero;"/><path d="M381.045,750.778c0.275,-1.633 0.138,-14.213 0.494,-16.188l-0.206,-0c-0.479,1.481 -6.68,14.528 -7.146,15.885l-8.849,-0.384l12.841,-23.608l-1.111,-21.676l8.835,0.385c-0.262,1.289 -0.357,12.895 -0.55,14.116l0.275,0c0.397,-1.276 5.981,-12.841 6.31,-13.856l8.848,0.384l-12.058,21.236l1.002,24.076l-8.698,-0.384l0.013,0.014Z" style="fill:#87a6d3;fill-rule:nonzero;"/><path d="M420.79,736.331l-0.33,2.003c-1.317,6.571 -2.551,13.348 -12.566,13.759c-8.093,0.33 -11.276,-4.005 -9.726,-12.991l3.622,-20.879c1.495,-8.78 4.28,-13.211 12.085,-13.526c10.756,-0.439 11.002,7.106 9.905,12.58l-0.274,1.728l-8.642,0.343l0.562,-3.252c0.493,-2.976 0.096,-4.402 -1.756,-4.32c-1.715,0.068 -2.346,1.399 -2.895,4.719l-4.047,23.773c-0.494,2.977 -0.425,4.829 1.633,4.747c1.784,-0.069 2.483,-1.537 3.1,-4.994l0.549,-3.32l8.78,-0.356l-0,-0.014Z" style="fill:#87a6d3;fill-rule:nonzero;"/><path d="M446.481,727.977l-9.397,1.166l-1.002,13.046l11.304,-1.399l-1.592,7.806l-18.985,2.359l4.033,-46.601l18.438,-2.29l-0.714,7.626l-9.864,1.222l-0.905,10.549l9.397,-1.166l-0.7,7.682l-0.013,0Z" style="fill:#87a6d3;fill-rule:nonzero;"/><path d="M454.259,701.144l8.532,-1.743l-0.383,39.002l10.618,-2.168l-0.632,7.902l-18.479,3.759l0.344,-46.752Z" style="fill:#87a6d3;fill-rule:nonzero;"/><path d="M476.838,696.261l8.382,-2.387l2.621,38.905l10.411,-2.977l-0,7.93l-18.148,5.185l-3.266,-46.641l-0,-0.015Z" style="fill:#87a6d3;fill-rule:nonzero;"/><path d="M519.64,709.06l-8.876,3.293l2.031,12.922l10.673,-3.964l0.246,7.957l-17.929,6.667l-6.804,-46.272l17.421,-6.475l1.057,7.585l-9.315,3.458l1.551,10.467l8.875,-3.293l1.084,7.642l-0.014,0.013Z" style="fill:#87a6d3;fill-rule:nonzero;"/><path d="M531.741,726.824l-10.878,-45.49l8.917,-4.24l8.588,18.095c1.179,2.483 3.607,8.08 4.402,9.904l0.193,-0.082c-1.893,-6.077 -5.034,-16.366 -6.612,-22.744l-1.784,-7.436l7.381,-3.498l10.81,45.517l-8.862,4.212l-8.547,-18.341c-0.974,-2.045 -3.991,-8.588 -4.514,-10.002l-0.246,0.124c1.578,5.255 4.774,15.652 6.503,22.813l1.934,7.737l-7.258,3.444l-0.027,-0.013Z" style="fill:#87a6d3;fill-rule:nonzero;"/><path d="M575.967,687.659l0.658,1.92c1.963,6.407 4.088,12.964 -4.54,18.068c-6.97,4.115 -11.826,1.824 -14.72,-6.833l-6.708,-20.096c-2.84,-8.437 -2.497,-13.664 4.225,-17.642c9.273,-5.487 13.046,1.042 14.692,6.379l0.576,1.646l-7.435,4.404l-1.056,-3.128c-0.974,-2.853 -2.003,-3.924 -3.594,-2.977c-1.482,0.878 -1.399,2.346 -0.315,5.529l7.709,22.855c0.974,2.853 1.906,4.444 3.69,3.402c1.536,-0.906 1.454,-2.539 0.357,-5.873l-1.084,-3.182l7.559,-4.472l-0.014,0Z" style="fill:#87a6d3;fill-rule:nonzero;"/><path d="M594.637,668.125l-7.724,5.473l5.282,11.976l9.287,-6.585l2.291,7.627l-15.612,11.057l-18.492,-42.965l15.173,-10.741l2.976,7.051l-8.121,5.748l4.198,9.726l7.724,-5.474l3.018,7.107Z" style="fill:#87a6d3;fill-rule:nonzero;"/></g><g id="Sales---Support" serif:id="Sales &amp; Support"><path d="M125.687,541.744l2.084,-0.541c2.967,-0.804 4.247,-1.833 3.376,-3.68c-0.752,-1.609 -2.4,-1.859 -5.315,-1.081c-3.588,0.87 -5.316,2.334 -7.611,7.558c-2.769,6.238 -4.576,9.048 -11.237,10.696c-6.45,1.623 -10.697,-0.316 -13.269,-5.816c-4.076,-8.732 1.688,-12.135 7.215,-13.559l0.923,-0.211l3.35,7.175l-1.569,0.369c-2.849,0.752 -4.683,1.675 -3.812,3.522c0.554,1.2 1.728,1.662 3.917,1.081c3.034,-0.831 4.089,-1.833 6.041,-6.093c3.733,-8.217 6.344,-10.895 13.084,-12.517c7.096,-1.636 11.554,0.277 14.575,6.74c3.482,7.478 0.211,11.844 -7.215,13.559l-1.042,0.263l-3.482,-7.465l-0.013,0Z" style="fill:#fff;fill-rule:nonzero;"/><path d="M117.061,516.697l11.224,-0.567l2.968,8.191l-46.533,0.739l-4.379,-12.095l42.484,-11.897l2.862,7.874l-10.446,2.743l1.82,5.026l0,-0.014Zm-8.916,-3.297c-5.078,1.279 -14.047,3.627 -18.096,4.669l0.105,0.303c3.39,-0.316 13.309,-1.042 19.283,-1.384l-1.305,-3.601l0.013,0.013Z" style="fill:#fff;fill-rule:nonzero;"/><path d="M76.895,500.71l-2.202,-8.072l37.432,-2.071l-2.744,-10.05l7.611,0.105l4.761,17.49l-44.871,2.585l0.013,0.013Z" style="fill:#fff;fill-rule:nonzero;"/><path d="M92.763,460.114l1.728,8.929l12.583,0.119l-2.084,-10.75l7.584,1.016l3.495,18.07l-44.963,-0.844l-3.39,-17.543l7.36,0.185l1.82,9.391l10.182,0.185l-1.727,-8.93l7.425,0.172l-0.013,0Z" style="fill:#fff;fill-rule:nonzero;"/><path d="M98.084,447.414l2.137,0.158c3.073,0.185 4.603,-0.382 4.379,-2.414c-0.198,-1.767 -1.675,-2.532 -4.682,-2.73c-3.68,-0.316 -5.778,0.515 -9.629,4.722c-4.616,5.025 -7.241,7.109 -14.073,6.542c-6.621,-0.527 -10.038,-3.733 -10.697,-9.76c-1.068,-9.563 5.487,-10.961 11.172,-10.526l0.936,0.093l0.871,7.861l-1.61,-0.158c-2.941,-0.198 -4.972,0.092 -4.735,2.123c0.145,1.306 1.095,2.137 3.364,2.282c3.139,0.185 4.458,-0.435 7.663,-3.838c6.173,-6.595 9.496,-8.283 16.395,-7.663c7.241,0.725 10.855,3.97 11.646,11.052c0.91,8.191 -3.588,11.278 -11.172,10.526l-1.068,-0.079l-0.91,-8.191l0.013,0Z" style="fill:#fff;fill-rule:nonzero;"/><path d="M82.346,389.629l15.695,10.169l10.684,-4.603l-0.119,8.442l-3.456,1.464c2.928,2.743 3.891,5.196 3.839,8.824c-0.093,7.188 -5.474,9.747 -13.691,7.861c-4.472,-1.056 -7.149,-2.731 -10.842,-7.861c-3.917,1.595 -7.413,2.07 -11.686,0.962c-5.527,-1.332 -8.85,-4.405 -8.771,-10.142c0.092,-7.057 5.473,-9.497 12.372,-7.611c3.35,0.897 5.117,1.913 9.127,8.046l5.381,-2.308l-8.639,-5.329l0.106,-7.914Zm-2.282,17.78c-1.755,-2.401 -2.928,-2.941 -5.751,-3.641c-2.361,-0.488 -4.089,-0.184 -4.115,1.399c-0.013,1.45 1.029,2.057 3.192,2.545c2.361,0.554 4.418,0.462 6.661,-0.303l0.013,0Zm18.729,0.382l-8.626,3.707c1.49,1.411 3.073,2.018 5.302,2.585c3.944,0.91 6.397,0.29 6.424,-2.15c0.026,-1.715 -1.214,-2.849 -3.113,-4.128l0.013,-0.014Z" style="fill:#fff;fill-rule:nonzero;"/><path d="M99.2,356.589c-6.489,-2.48 -15.313,-5.856 -20.457,-7.927l-0.026,0.198c8.309,4.102 24.585,12.306 33.291,16.804l-1.082,6.911c-9.351,-2.519 -26.59,-7.149 -34.596,-9.325l-0.04,0.264c4.999,1.78 13.691,5.13 20.945,7.808l13.124,4.854l-1.174,7.557l-42.035,-15.959l1.859,-11.924c9.312,2.388 19.059,4.907 24.929,6.622l0.026,-0.198c-6.001,-3.007 -15.761,-8.125 -24.005,-12.623l1.86,-11.923l42.022,16.025l-1.253,8.02l-13.414,-5.158l0.026,-0.026Z" style="fill:#fff;fill-rule:nonzero;"/><path d="M106.849,336.766l9.563,5.922l-2.216,8.415l-38.699,-25.851l3.271,-12.438l41.706,14.363l-2.124,8.099l-10.142,-3.693l-1.359,5.17l0,0.013Zm-5.46,-7.782c-4.907,-1.833 -13.625,-5.012 -17.543,-6.449l-0.079,0.316c2.968,1.662 11.541,6.714 16.646,9.826l0.976,-3.693Z" style="fill:#fff;fill-rule:nonzero;"/><path d="M82.911,300.613l3.443,-9.563c2.48,-6.885 7.201,-8.692 13.796,-4.63l2.242,1.372c4.59,2.849 5.619,5.606 5.435,8.27c1.886,-1.358 4.26,-1.899 10.116,1.886c3.654,2.295 8.362,5.184 10.499,6.094l-2.77,7.689c-1.886,-0.606 -5.948,-3.126 -11.91,-6.819c-3.785,-2.347 -4.973,-2.347 -5.883,0.198l-0.409,1.121l16.514,10.222l-2.809,7.822l-38.237,-23.649l-0.027,-0.013Zm18.809,2.07l0.382,-1.055c1.029,-2.849 0.554,-4.075 -2.915,-6.093l-2.361,-1.412c-2.585,-1.569 -4.009,-1.728 -4.972,0.95l-0.448,1.24l10.327,6.383l-0.013,-0.013Z" style="fill:#fff;fill-rule:nonzero;"/><path d="M93.729,273.27l3.403,-7.359l15.129,11.435l0.079,-0.185c-2.889,-3.957 -9.22,-12.266 -12.636,-16.817l3.878,-8.375l11.185,16.949l24.928,9.734l-3.521,7.597l-16.976,-7.426l3.258,5.513l10.644,8.561l-3.376,7.293l-36.008,-26.92l0.013,0Z" style="fill:#fff;fill-rule:nonzero;"/><path d="M134.059,248.592l-4.484,7.914l9.483,8.257l5.395,-9.523l5.104,5.698l-9.075,15.999l-33.633,-29.835l8.811,-15.551l5.473,4.92l-4.722,8.323l7.624,6.753l4.484,-7.914l5.527,4.959l0.013,0Z" style="fill:#fff;fill-rule:nonzero;"/><path d="M127.616,227.134l-3.496,5.197l-5.13,-5.368l11.672,-17.345l5.131,5.369l-3.535,5.249l26.129,26.96l-4.643,6.898l-26.128,-26.96Z" style="fill:#fff;fill-rule:nonzero;"/><path d="M139.455,198.723l29.254,34.161l-5.051,6.595l-29.254,-34.161l5.051,-6.595Z" style="fill:#fff;fill-rule:nonzero;"/><path d="M171.598,228.595l-26.827,-36.073l6.278,-7.123l14.442,12.741c1.979,1.742 6.252,5.778 7.637,7.096l0.132,-0.145c-3.983,-4.656 -10.644,-12.556 -14.456,-17.595l-4.392,-5.895l5.197,-5.883l26.788,36.113l-6.239,7.07l-14.495,-12.965c-1.636,-1.438 -6.78,-6.068 -7.782,-7.123l-0.171,0.198c3.389,4.036 10.142,12.029 14.376,17.7l4.63,6.107l-5.105,5.791l-0.013,-0.014Z" style="fill:#fff;fill-rule:nonzero;"/><path d="M202.001,187.947c0.356,0.66 2.4,3.984 3.245,5.368l-4.656,4.393c-0.541,-0.581 -1.359,-1.623 -1.886,-2.48c0.646,3.377 -0.818,5.948 -2.546,7.584c-4.933,4.669 -9.417,1.464 -13.256,-4.814l-10.736,-17.622c-3.97,-6.502 -5.724,-12.015 0.501,-17.713c7.386,-6.885 12.517,-1.926 15.195,2.348l0.659,1.187l-6.133,5.803l-1.293,-2.044c-1.424,-2.19 -2.703,-3.351 -4.233,-1.9c-1.108,1.042 -1.135,2.256 0.817,5.58l11.858,19.375c1.741,2.796 3.113,3.772 4.55,2.414c1.491,-1.411 0.976,-3.192 -1.2,-6.846l-3.166,-5.078l-2.11,1.992l-3.746,-6.173l8.151,-7.702l9.985,16.341l0,-0.013Z" style="fill:#fff;fill-rule:nonzero;"/><path d="M215.301,168.651l0.95,1.926c1.398,2.743 2.664,3.772 4.299,2.559c1.425,-1.069 1.333,-2.731 -0.013,-5.421c-1.596,-3.337 -3.363,-4.722 -8.942,-5.909c-6.674,-1.438 -9.8,-2.638 -12.768,-8.811c-2.902,-5.975 -1.873,-10.538 2.994,-14.179c7.716,-5.764 12.227,-0.831 14.746,4.3l0.396,0.857l-6.331,4.736l-0.686,-1.465c-1.319,-2.637 -2.598,-4.233 -4.234,-3.02c-1.055,0.791 -1.279,2.031 -0.251,4.062c1.438,2.797 2.638,3.628 7.202,4.67c8.811,1.978 11.963,3.983 14.917,10.261c3.047,6.608 2.084,11.37 -3.627,15.643c-6.608,4.933 -11.541,2.625 -14.746,-4.3l-0.475,-0.963l6.595,-4.933l-0.026,-0.013Z" style="fill:#fff;fill-rule:nonzero;"/><path d="M225.95,123.477l11.712,32.473c0.897,2.321 2.045,3.152 3.614,2.189c1.847,-1.147 1.557,-2.743 0.765,-4.893l-11.712,-32.473l7.175,-4.458l11.396,31.589c2.546,7.109 2.915,11.937 -4.603,16.592c-6.727,4.182 -11.436,2.216 -14.113,-5.209l-11.343,-31.392l7.109,-4.418Z" style="fill:#fff;fill-rule:nonzero;"/><path d="M245.303,112.554l8.719,-4.392c7.188,-3.627 11.91,-0.686 13.849,6.529l0.923,3.443c1.965,7.135 1.042,11.593 -6.674,15.471l-2.532,1.279l4.629,17.384l-7.426,3.746l-11.501,-43.46l0.013,0Zm12.623,15.643l1.53,-0.765c2.466,-1.253 2.532,-2.901 1.807,-5.79l-1.016,-3.772c-0.805,-2.915 -1.82,-4.63 -4.353,-3.35l-1.477,0.738l3.495,12.939l0.014,0Z" style="fill:#fff;fill-rule:nonzero;"/><path d="M271.672,100.236l9.061,-3.627c7.465,-2.981 11.924,0.343 13.229,7.703l0.62,3.521c1.346,7.281 0.027,11.634 -7.993,14.839l-2.638,1.055l3.1,17.727l-7.716,3.086l-7.69,-44.304l0.027,0Zm11.211,16.685l1.596,-0.633c2.572,-1.029 2.77,-2.664 2.308,-5.606l-0.686,-3.851c-0.554,-2.981 -1.411,-4.761 -4.036,-3.706l-1.53,0.606l2.361,13.19l-0.013,0Z" style="fill:#fff;fill-rule:nonzero;"/><path d="M321.499,96.464l1.701,20.694c0.673,8.257 -1.068,12.781 -8.903,15.116c-7.65,2.281 -11.778,-1.438 -12.464,-9.695l-1.86,-21.881c-0.699,-8.112 2.559,-12.188 8.626,-13.995c7.452,-2.229 12.24,1.095 12.9,9.774l0,-0.013Zm-13.454,1.741l1.939,23.57c0.238,2.413 0.963,4.392 3.179,3.732c1.965,-0.58 2.229,-2.453 2.057,-5.091l-2.031,-23.623c-0.211,-2.558 -1.081,-4.075 -3.231,-3.442c-1.583,0.475 -2.176,1.952 -1.926,4.841l0.013,0.013Z" style="fill:#fff;fill-rule:nonzero;"/><path d="M328.795,82.324l9.959,-2.018c7.175,-1.464 11.158,1.636 11.132,9.378l0,2.625c-0.053,5.395 -1.873,7.716 -4.247,8.943c2.136,0.91 3.838,2.651 3.64,9.615c-0.066,4.326 -0.079,9.839 0.251,12.134l-8.02,1.636c-0.461,-1.926 -0.422,-6.714 -0.369,-13.717c0.04,-4.445 -0.567,-5.474 -3.218,-4.933l-1.161,0.237l-0.158,19.415l-8.138,1.662l0.343,-44.95l-0.014,-0.027Zm7.993,17.147l1.095,-0.224c2.968,-0.607 3.772,-1.649 3.693,-5.659l-0.026,-2.756c0,-3.021 -0.607,-4.313 -3.39,-3.759l-1.292,0.263l-0.093,12.135l0.013,-0Z" style="fill:#fff;fill-rule:nonzero;"/><path d="M360.342,84.382l-6.212,0.751l0.699,-7.386l20.747,-2.519l-0.699,7.399l-6.291,0.765l-3.298,37.406l-8.243,1.002l3.297,-37.405l0,-0.013Z" style="fill:#fff;fill-rule:nonzero;"/></g><g id="Product-Assortment" serif:id="Product Assortment"><path d="M458.727,104.575l-8.982,-1.425l-4.418,11.779l10.815,1.714l-3.548,6.78l-18.175,-2.889l16.157,-41.969l17.648,2.809l-2.691,6.846l-9.444,-1.504l-3.653,9.497l8.982,1.424l-2.704,6.911l0.013,0.027Z" style="fill:#fff;fill-rule:nonzero;"/><path d="M469.754,127.155c0.567,-1.491 2.796,-13.374 3.508,-15.168l-0.185,-0.053c-0.725,1.319 -9.021,12.464 -9.72,13.651l-8.27,-2.018l16.54,-19.85l3.02,-20.655l8.27,2.018c-0.488,1.174 -2.757,12.095 -3.166,13.216l0.251,0.066c0.62,-1.134 8.059,-11 8.547,-11.897l8.27,2.018l-15.353,17.766l-3.561,22.897l-8.138,-1.991l-0.013,-0Z" style="fill:#fff;fill-rule:nonzero;"/><path d="M503.612,98.691l-5.949,-1.966l3.786,-6.396l19.85,6.568l-3.786,6.384l-6.014,-1.992l-18.927,32.433l-7.887,-2.611l18.927,-32.433l0,0.013Z" style="fill:#fff;fill-rule:nonzero;"/><path d="M528.738,126.733l-8.402,-3.495l-7.056,10.42l10.103,4.207l-5.038,5.764l-16.989,-7.07l25.549,-37.01l16.5,6.872l-4.221,6.028l-8.824,-3.68l-5.777,8.388l8.402,3.496l-4.247,6.093l0,-0.013Z" style="fill:#fff;fill-rule:nonzero;"/><path d="M521.945,144.921l28.582,-34.702l8.415,4.392l-8.903,17.068c-1.226,2.334 -4.115,7.452 -5.051,9.114l0.171,0.092c3.561,-4.986 9.642,-13.348 13.612,-18.254l4.669,-5.672l6.964,3.627l-28.648,34.676l-8.362,-4.366l9.114,-17.186c1.002,-1.926 4.273,-8.033 5.052,-9.259l-0.238,-0.119c-3.113,4.247 -9.246,12.728 -13.73,18.202l-4.828,5.961l-6.845,-3.574l0.026,0Z" style="fill:#fff;fill-rule:nonzero;"/><path d="M561.159,152.096l-1.477,1.57c-2.084,2.268 -2.599,3.812 -0.884,4.92c1.504,0.962 3.02,0.29 5.065,-1.926c2.572,-2.664 3.244,-4.814 2.387,-10.459c-1.002,-6.754 -0.976,-10.104 3.759,-15.05c4.577,-4.827 9.206,-5.46 14.324,-2.189c8.112,5.183 5.078,11.158 1.161,15.313l-0.66,0.673l-6.661,-4.261l1.135,-1.16c2.005,-2.163 3.06,-3.918 1.332,-5.026c-1.108,-0.712 -2.348,-0.488 -3.891,1.187c-2.11,2.322 -2.48,3.746 -1.833,8.376c1.253,8.942 0.474,12.596 -4.353,17.568c-5.118,5.184 -9.919,5.949 -15.92,2.111c-6.951,-4.445 -6.515,-9.879 -1.174,-15.313l0.739,-0.779l6.951,4.445Z" style="fill:#fff;fill-rule:nonzero;"/><path d="M607.099,145.953l-33.634,29.848l-6.687,-4.933l33.647,-29.848l6.687,4.933l-0.013,-0Z" style="fill:#fff;fill-rule:nonzero;"/><path d="M618.097,155.158l-11.621,10.828c-4.339,4.023 -10.274,9.536 -14.403,13.216l0.251,0.211c4.59,-3.205 11.739,-7.795 16.83,-11.079l13.875,-9.008l6.608,5.566l-40.347,23.53l-8.375,-7.057l30.613,-31.734l6.555,5.527l0.014,0Z" style="fill:#fff;fill-rule:nonzero;"/><path d="M625.483,195.544l-6.476,-6.397l-10.446,7.017l7.782,7.689l-6.832,3.443l-13.084,-12.926l37.577,-24.717l12.715,12.556l-6.173,3.997l-6.806,-6.727l-8.494,5.606l6.476,6.397l-6.225,4.049l-0.014,0.013Z" style="fill:#fff;fill-rule:nonzero;"/><path d="M657.969,195.532l6.146,7.584c5.065,6.251 3.205,11.501 -3.442,14.93l-3.166,1.636c-6.555,3.442 -11.105,3.482 -16.54,-3.232l-1.78,-2.202l-16.012,8.217l-5.237,-6.45l40.031,-20.47l0,-0.013Zm-12.609,15.656l1.081,1.332c1.741,2.15 3.364,1.86 6.041,0.541l3.469,-1.794c2.677,-1.411 4.128,-2.757 2.348,-4.959l-1.042,-1.28l-11.897,6.16Z" style="fill:#fff;fill-rule:nonzero;"/><path d="M675.605,218.666l5.685,8.415c4.102,6.067 2.783,10.934 -4.392,13.875l-2.427,1.003c-4.999,2.031 -7.835,1.24 -9.879,-0.488c-0.026,2.321 -0.976,4.563 -7.492,7.056c-4.009,1.596 -9.114,3.706 -11.105,4.894l-4.577,-6.78c1.596,-1.161 6.028,-2.968 12.53,-5.606c4.115,-1.675 4.827,-2.624 3.311,-4.867l-0.66,-0.989l-17.977,7.307l-4.656,-6.885l41.639,-16.948l0,0.013Zm-12.767,13.968l0.633,0.923c1.701,2.519 2.968,2.849 6.648,1.24l2.532,-1.082c2.796,-1.174 3.759,-2.216 2.163,-4.563l-0.739,-1.095l-11.237,4.577Z" style="fill:#fff;fill-rule:nonzero;"/><path d="M689.806,266.293l-19.85,6.107c-7.927,2.44 -12.715,1.701 -16.672,-5.461c-3.864,-6.977 -1.121,-11.817 6.806,-14.258l20.985,-6.502c7.782,-2.427 12.451,-0.119 15.524,5.421c3.772,6.806 1.556,12.187 -6.78,14.693l-0.013,0Zm-4.59,-12.767l-22.607,6.964c-2.295,0.752 -4.089,1.886 -2.967,3.904c0.989,1.794 2.875,1.649 5.407,0.923l22.634,-7.043c2.453,-0.752 3.759,-1.926 2.664,-3.891c-0.805,-1.438 -2.374,-1.702 -5.144,-0.844l0.013,-0.013Z" style="fill:#fff;fill-rule:nonzero;"/><path d="M705.253,270.501l3.759,8.508c3.812,8.626 -0.079,12.728 -9.378,14.666l-17.146,3.614c-7.809,1.57 -12.86,1.425 -16.501,-6.845l-4.748,-10.736l44.027,-9.207l-0.013,0Zm-34.161,15.379l0.659,1.504c1.227,2.77 3.285,3.02 6.595,2.348l20.576,-4.326c3.245,-0.647 5.038,-1.649 3.759,-4.551l-0.646,-1.451l-30.956,6.463l0.013,0.013Z" style="fill:#fff;fill-rule:nonzero;"/><path d="M719.274,306.377l-34.293,3.97c-2.467,0.343 -3.548,1.266 -2.955,3.02c0.699,2.058 2.322,2.137 4.59,1.86l34.293,-3.97l2.691,8.006l-33.357,3.864c-7.504,0.858 -12.279,0.106 -15.102,-8.27c-2.532,-7.504 0.462,-11.633 8.297,-12.543l33.145,-3.864l2.678,7.94l0.013,-0.013Z" style="fill:#fff;fill-rule:nonzero;"/><path d="M699.713,348.912l-1.952,0.066c-6.45,0 -13.071,0.105 -15.327,-9.259c-1.82,-7.558 1.662,-11.383 10.433,-11.607l20.365,-0.502c8.56,-0.237 13.269,1.544 15.023,8.851c2.427,10.063 -4.643,11.699 -9.998,11.712l-1.675,0.066l-1.952,-8.072l3.166,-0.092c2.902,-0.093 4.168,-0.739 3.746,-2.467c-0.383,-1.596 -1.755,-1.952 -4.986,-1.846l-23.187,0.646c-2.902,0.092 -4.63,0.501 -4.168,2.427c0.409,1.662 1.925,2.044 5.289,1.978l3.231,-0.105l1.979,8.204l0.013,0Z" style="fill:#fff;fill-rule:nonzero;"/><path d="M724.417,358.66l-0.989,-6.186l7.412,0.422l3.285,20.642l-7.413,-0.422l-0.989,-6.252l-37.498,-1.913l-1.306,-8.204l37.498,1.913Z" style="fill:#fff;fill-rule:nonzero;"/><path d="M701.972,392.056l-10.894,-2.783l-0.409,-8.692l44.647,13.084l0.606,12.847l-44.092,-1.226l-0.396,-8.363l10.789,0.488l-0.251,-5.328l0,-0.027Zm7.532,5.791c5.223,0.277 14.495,0.699 18.663,0.896l0,-0.329c-3.35,-0.699 -13.031,-2.955 -18.835,-4.392l0.185,3.825l-0.013,0Z" style="fill:#fff;fill-rule:nonzero;"/><path d="M704.294,418.169l-2.097,-0.475c-3.007,-0.646 -4.603,-0.303 -4.682,1.741c-0.066,1.781 1.279,2.757 4.233,3.39c3.601,0.858 5.791,0.356 10.222,-3.244c5.316,-4.287 8.204,-5.962 14.878,-4.393c6.476,1.504 9.378,5.171 9.141,11.238c-0.37,9.615 -7.044,10.024 -12.61,8.758l-0.91,-0.238l0.304,-7.913l1.569,0.382c2.876,0.633 4.92,0.646 4.999,-1.398c0.053,-1.319 -0.765,-2.269 -2.994,-2.757c-3.073,-0.646 -4.471,-0.237 -8.151,2.665c-7.07,5.605 -10.618,6.792 -17.358,5.157c-7.056,-1.781 -10.156,-5.527 -9.879,-12.649c0.317,-8.243 5.223,-10.631 12.61,-8.758l1.042,0.238l-0.317,8.23l0,0.026Z" style="fill:#fff;fill-rule:nonzero;"/><path d="M702.563,443.891l-2.031,-0.673c-2.928,-0.937 -4.551,-0.752 -4.827,1.279c-0.238,1.768 1.015,2.862 3.877,3.786c3.496,1.2 5.738,0.91 10.486,-2.243c5.698,-3.745 8.745,-5.13 15.234,-2.928c6.305,2.124 8.824,6.054 8.019,12.069c-1.292,9.536 -7.979,9.299 -13.387,7.505l-0.884,-0.317l1.069,-7.848l1.529,0.541c2.81,0.91 4.841,1.121 5.118,-0.91c0.172,-1.306 -0.541,-2.334 -2.717,-3.034c-2.994,-0.936 -4.432,-0.672 -8.375,1.86c-7.584,4.894 -11.225,5.738 -17.767,3.443c-6.858,-2.467 -9.562,-6.49 -8.613,-13.546c1.108,-8.164 6.226,-10.064 13.401,-7.505l1.016,0.343l-1.108,8.164l-0.04,0.014Z" style="fill:#fff;fill-rule:nonzero;"/><path d="M713.459,490.818l-19.006,-8.349c-7.584,-3.337 -10.723,-7.03 -9.048,-15.036c1.635,-7.808 6.872,-9.681 14.456,-6.344l20.127,8.798c7.479,3.244 9.497,8.045 8.204,14.244c-1.596,7.624 -6.793,10.235 -14.733,6.687Zm4.867,-12.662l-21.657,-9.509c-2.229,-0.937 -4.326,-1.24 -4.788,1.015c-0.422,2.005 1.095,3.126 3.495,4.234l21.737,9.457c2.347,1.029 4.102,0.989 4.563,-1.2c0.343,-1.609 -0.686,-2.836 -3.337,-3.997l-0.013,0Z" style="fill:#fff;fill-rule:nonzero;"/><path d="M722.442,503.956l-2.955,9.72c-2.123,7.004 -6.753,9.048 -13.545,5.329l-2.309,-1.253c-4.722,-2.612 -5.895,-5.302 -5.843,-7.98c-1.82,1.451 -4.154,2.111 -10.195,-1.372c-3.772,-2.11 -8.613,-4.761 -10.789,-5.552l2.374,-7.822c1.912,0.515 6.107,2.823 12.24,6.199c3.891,2.15 5.078,2.097 5.869,-0.488l0.343,-1.134l-17.001,-9.378l2.413,-7.953l39.385,21.697l0.013,-0.013Zm-18.888,-1.122l-0.33,1.069c-0.883,2.902 -0.342,4.102 3.232,5.948l2.427,1.293c2.664,1.438 4.089,1.517 4.906,-1.2l0.383,-1.267l-10.631,-5.856l0.013,0.013Z" style="fill:#fff;fill-rule:nonzero;"/><path d="M705.635,530.719l2.295,-5.83l6.173,4.128l-7.65,19.455l-6.173,-4.128l2.321,-5.896l-31.338,-20.681l3.046,-7.73l31.339,20.682l-0.013,0Z" style="fill:#fff;fill-rule:nonzero;"/><path d="M669.392,555.212c5.395,4.379 12.715,10.34 16.962,13.915l0.093,-0.172c-6.608,-6.489 -19.508,-19.362 -26.38,-26.353l3.179,-6.225c8.099,5.315 23.029,15.089 29.941,19.666l0.118,-0.238c-4.194,-3.244 -11.396,-9.153 -17.463,-13.954l-10.96,-8.705l3.482,-6.819l34.939,28.291l-5.487,10.75c-8.098,-5.171 -16.579,-10.605 -21.618,-14.074l-0.092,0.172c4.775,4.735 12.425,12.636 18.861,19.481l-5.487,10.75l-34.913,-28.345l3.693,-7.228l11.132,9.088Z" style="fill:#fff;fill-rule:nonzero;"/><path d="M657.03,586.233l4.92,-7.663l-9.022,-8.771l-5.909,9.219l-4.788,-5.974l9.932,-15.485l31.972,31.642l-9.655,15.049l-5.197,-5.21l5.171,-8.045l-7.241,-7.149l-4.92,7.663l-5.25,-5.249l-0.013,-0.027Z" style="fill:#fff;fill-rule:nonzero;"/><path d="M640.334,576.355l29.189,34.201l-5.79,7.531l-15.261,-11.752c-2.084,-1.609 -6.621,-5.342 -8.098,-6.569l-0.119,0.159c4.287,4.379 11.462,11.818 15.604,16.592l4.774,5.593l-4.788,6.225l-29.149,-34.253l5.751,-7.479l15.339,11.976c1.728,1.333 7.176,5.606 8.244,6.595l0.158,-0.211c-3.653,-3.798 -10.934,-11.317 -15.537,-16.698l-5.039,-5.79l4.709,-6.12l0.013,0Z" style="fill:#fff;fill-rule:nonzero;"/><path d="M642.762,631.515l4.22,-4.63l4.287,6.054l-14.087,15.445l-4.286,-6.054l4.273,-4.682l-21.895,-30.508l5.606,-6.133l21.895,30.508l-0.013,0Z" style="fill:#fff;fill-rule:nonzero;"/></g><path d="M639.416,668.591l-46.559,-13.164l-7.571,-48.313l10.393,-1.636l6.529,41.666l40.07,11.33l-2.862,10.117Z" style="fill:#fff;fill-rule:nonzero;"/><path d="M120.732,618.023l-9.496,-4.524l20.76,-43.697l48.907,0.62l-0.145,10.525l-42.154,-0.54l-17.872,37.616Z" style="fill:#fff;fill-rule:nonzero;"/><path d="M394.205,135.441l-8.31,-6.463l25.879,-33.291l-19.205,-36.944l9.325,-4.854l22.317,42.932l-30.006,38.62Z" style="fill:#fff;fill-rule:nonzero;"/></g></g></svg>