<?xml version="1.0" encoding="UTF-8" standalone="no"?><!DOCTYPE svg PUBLIC "-//W3C//DTD SVG 1.1//EN" "http://www.w3.org/Graphics/SVG/1.1/DTD/svg11.dtd"><svg width="100%" height="100%" viewBox="0 0 800 800" version="1.1" xmlns="http://www.w3.org/2000/svg" xmlns:xlink="http://www.w3.org/1999/xlink" xml:space="preserve" xmlns:serif="http://www.serif.com/" style="fill-rule:evenodd;clip-rule:evenodd;stroke-linejoin:round;stroke-miterlimit:2;"><g><rect x="0" y="-0" width="800" height="800" style="fill:none;"/><g id="Sales-Option" serif:id="Sales Option"><g id="Logistics-Excellence" serif:id="Logistics Excellence"><path d="M176.216,596.406l5.527,6.304l-32.75,18.268l6.872,7.835l-6.898,3.244l-11.95,-13.638l39.212,-22l-0.013,-0.013Z" style="fill:#fff;fill-rule:nonzero;"/><path d="M196.054,635.104l-17.187,11.646c-6.871,4.643 -11.659,5.342 -17.542,-0.329c-5.75,-5.54 -4.537,-10.974 2.322,-15.617l18.149,-12.359c6.726,-4.603 11.87,-3.759 16.434,0.633c5.605,5.408 5.051,11.198 -2.176,16.039l0,-0.013Zm-8.125,-10.855l-19.587,13.269c-1.978,1.384 -3.35,2.994 -1.688,4.603c1.477,1.424 3.231,0.738 5.447,-0.712l19.574,-13.362c2.123,-1.437 3.02,-2.941 1.411,-4.497c-1.187,-1.148 -2.77,-0.937 -5.171,0.699l0.014,0Z" style="fill:#fff;fill-rule:nonzero;"/><path d="M197.386,669.395c-0.607,0.448 -3.614,2.928 -4.867,3.957l-4.999,-3.997c0.501,-0.62 1.424,-1.569 2.203,-2.216c-3.258,1.108 -6.002,0 -7.861,-1.477c-5.303,-4.247 -2.744,-9.127 2.928,-13.796l15.959,-13.071c5.896,-4.827 11.106,-7.333 17.608,-1.952c7.835,6.357 3.641,12.121 -0.224,15.366l-1.082,0.818l-6.594,-5.276l1.846,-1.57c1.965,-1.715 2.942,-3.139 1.293,-4.458c-1.187,-0.95 -2.388,-0.818 -5.408,1.583l-17.555,14.416c-2.533,2.11 -3.311,3.601 -1.768,4.841c1.596,1.279 3.298,0.527 6.608,-2.137l4.59,-3.838l-2.268,-1.82l5.592,-4.564l8.745,7.017l-14.799,12.148l0.053,0.026Z" style="fill:#fff;fill-rule:nonzero;"/><path d="M238.801,652.699l-32.697,30.877l-6.845,-4.722l32.697,-30.877l6.832,4.722l0.013,0Z" style="fill:#fff;fill-rule:nonzero;"/><path d="M228.049,683.154l-1.424,1.609c-2.005,2.335 -2.467,3.905 -0.712,4.946c1.53,0.911 3.033,0.198 4.999,-2.083c2.479,-2.744 3.073,-4.92 2.044,-10.526c-1.227,-6.713 -1.306,-10.063 3.258,-15.168c4.418,-4.972 9.021,-5.764 14.245,-2.664c8.283,4.92 5.434,10.987 1.661,15.26l-0.646,0.699l-6.806,-4.049l1.095,-1.187c1.939,-2.229 2.928,-4.01 1.161,-5.065c-1.135,-0.673 -2.361,-0.409 -3.852,1.319c-2.031,2.401 -2.347,3.825 -1.556,8.428c1.543,8.89 0.884,12.57 -3.772,17.701c-4.946,5.342 -9.708,6.265 -15.841,2.638c-7.083,-4.208 -6.832,-9.668 -1.662,-15.261l0.712,-0.804l7.083,4.207l0.013,0Z" style="fill:#fff;fill-rule:nonzero;"/><path d="M264.311,676.059l-5.632,-2.756l4.617,-5.817l18.782,9.193l-4.617,5.817l-5.684,-2.783l-23.135,29.571l-7.465,-3.653l23.134,-29.572Z" style="fill:#fff;fill-rule:nonzero;"/><path d="M293.353,681.202l-25.43,37.102l-7.676,-3.165l25.416,-37.103l7.69,3.166Z" style="fill:#fff;fill-rule:nonzero;"/><path d="M303.154,716.496l-0.976,1.688c-3.416,5.461 -6.845,11.132 -15.972,8.086c-7.386,-2.467 -8.784,-7.452 -4.313,-14.997l10.367,-17.529c4.339,-7.386 8.349,-10.42 15.471,-8.046c9.827,3.271 7.466,10.143 4.63,14.68l-0.831,1.465l-7.887,-2.625l1.609,-2.73c1.464,-2.507 1.582,-3.918 -0.106,-4.485c-1.569,-0.528 -2.585,0.462 -4.207,3.258l-11.752,19.995c-1.464,2.506 -2.018,4.195 -0.145,4.815c1.622,0.54 2.756,-0.541 4.484,-3.443l1.622,-2.796l8.006,2.664Z" style="fill:#fff;fill-rule:nonzero;"/><path d="M316.066,721.706l-0.884,1.966c-1.213,2.822 -1.2,4.458 0.778,4.932c1.728,0.409 2.955,-0.712 4.155,-3.482c1.543,-3.363 1.477,-5.618 -1.174,-10.657c-3.165,-6.041 -4.234,-9.219 -1.385,-15.445c2.744,-6.054 6.912,-8.177 12.807,-6.766c9.365,2.242 8.455,8.876 6.12,14.073l-0.408,0.857l-7.69,-1.846l0.686,-1.464c1.187,-2.691 1.596,-4.696 -0.383,-5.184c-1.279,-0.303 -2.374,0.317 -3.284,2.401c-1.24,2.888 -1.108,4.339 1.016,8.52c4.102,8.033 4.577,11.739 1.648,18.031c-3.139,6.568 -7.412,8.863 -14.337,7.201c-8.019,-1.926 -9.391,-7.201 -6.12,-14.073l0.436,-0.976l8.019,1.925l0,-0.013Z" style="fill:#fff;fill-rule:nonzero;"/><path d="M365.778,723.923l-9.035,-1.108l-3.983,11.937l10.868,1.332l-3.297,6.898l-18.268,-2.242l14.641,-42.523l17.74,2.176l-2.44,6.938l-9.497,-1.161l-3.31,9.628l9.035,1.108l-2.454,7.004l0,0.013Z" style="fill:#fff;fill-rule:nonzero;"/><path d="M380.458,744.829c0.264,-1.57 0.132,-13.665 0.475,-15.564l-0.198,0c-0.461,1.424 -6.423,13.968 -6.871,15.273l-8.508,-0.369l12.346,-22.699l-1.068,-20.84l8.494,0.37c-0.251,1.239 -0.343,12.398 -0.528,13.572l0.264,0c0.382,-1.227 5.751,-12.346 6.067,-13.322l8.507,0.369l-11.593,20.418l0.963,23.148l-8.363,-0.369l0.013,0.013Z" style="fill:#fff;fill-rule:nonzero;"/><path d="M418.671,730.939l-0.317,1.926c-1.266,6.318 -2.453,12.833 -12.082,13.229c-7.781,0.317 -10.841,-3.851 -9.351,-12.491l3.482,-20.074c1.438,-8.442 4.115,-12.702 11.62,-13.005c10.341,-0.422 10.578,6.832 9.523,12.095l-0.264,1.662l-8.309,0.329l0.541,-3.126c0.474,-2.862 0.092,-4.233 -1.689,-4.154c-1.648,0.066 -2.255,1.345 -2.783,4.537l-3.891,22.857c-0.475,2.863 -0.409,4.643 1.57,4.564c1.715,-0.066 2.387,-1.477 2.981,-4.801l0.527,-3.192l8.442,-0.343l0,-0.013Z" style="fill:#fff;fill-rule:nonzero;"/><path d="M443.372,722.907l-9.035,1.121l-0.963,12.543l10.868,-1.345l-1.53,7.505l-18.254,2.268l3.878,-44.805l17.727,-2.202l-0.686,7.333l-9.484,1.174l-0.87,10.143l9.035,-1.121l-0.673,7.386l-0.013,0Z" style="fill:#fff;fill-rule:nonzero;"/><path d="M450.85,697.108l8.204,-1.676l-0.369,37.499l10.209,-2.084l-0.607,7.597l-17.767,3.614l0.33,-44.95Z" style="fill:#fff;fill-rule:nonzero;"/><path d="M472.559,692.413l8.059,-2.295l2.52,37.406l10.01,-2.862l0,7.624l-17.449,4.985l-3.14,-44.844l0,-0.014Z" style="fill:#fff;fill-rule:nonzero;"/><path d="M513.712,704.719l-8.534,3.166l1.953,12.424l10.261,-3.811l0.237,7.65l-17.238,6.41l-6.542,-44.489l16.75,-6.225l1.016,7.293l-8.956,3.324l1.491,10.064l8.533,-3.166l1.042,7.347l-0.013,0.013Z" style="fill:#fff;fill-rule:nonzero;"/><path d="M525.347,721.798l-10.459,-43.737l8.573,-4.076l8.257,17.397c1.134,2.388 3.468,7.769 4.233,9.523l0.185,-0.079c-1.82,-5.843 -4.84,-15.735 -6.357,-21.868l-1.715,-7.149l7.096,-3.363l10.394,43.763l-8.521,4.049l-8.217,-17.634c-0.937,-1.966 -3.838,-8.257 -4.34,-9.616l-0.237,0.119c1.517,5.052 4.59,15.049 6.252,21.934l1.86,7.439l-6.978,3.311l-0.026,-0.013Z" style="fill:#fff;fill-rule:nonzero;"/><path d="M567.868,684.143l0.633,1.846c1.887,6.16 3.931,12.464 -4.365,17.371c-6.701,3.957 -11.37,1.754 -14.153,-6.569l-6.449,-19.322c-2.731,-8.112 -2.401,-13.137 4.062,-16.962c8.916,-5.276 12.543,1.002 14.126,6.133l0.554,1.583l-7.149,4.234l-1.015,-3.008c-0.937,-2.743 -1.926,-3.772 -3.456,-2.862c-1.425,0.844 -1.345,2.256 -0.303,5.316l7.412,21.974c0.937,2.743 1.833,4.273 3.548,3.271c1.477,-0.871 1.398,-2.441 0.343,-5.646l-1.042,-3.06l7.268,-4.299l-0.014,0Z" style="fill:#fff;fill-rule:nonzero;"/><path d="M585.819,665.361l-7.426,5.262l5.078,11.515l8.929,-6.331l2.203,7.333l-15.01,10.631l-17.78,-41.31l14.588,-10.327l2.862,6.779l-7.808,5.527l4.036,9.351l7.426,-5.263l2.902,6.833Z" style="fill:#fff;fill-rule:nonzero;"/></g><g id="Sales---Support" serif:id="Sales &amp; Support"><path d="M121.626,541.525l2.118,-0.55c3.016,-0.817 4.316,-1.863 3.431,-3.74c-0.764,-1.635 -2.44,-1.889 -5.402,-1.099c-3.646,0.885 -5.402,2.372 -7.734,7.681c-2.815,6.34 -4.651,9.195 -11.42,10.87c-6.555,1.649 -10.871,-0.321 -13.484,-5.91c-4.142,-8.874 1.715,-12.333 7.332,-13.78l0.938,-0.214l3.404,7.291l-1.595,0.375c-2.895,0.765 -4.758,1.703 -3.873,3.58c0.563,1.219 1.755,1.689 3.981,1.098c3.082,-0.844 4.155,-1.863 6.139,-6.192c3.793,-8.35 6.447,-11.072 13.296,-12.72c7.212,-1.663 11.742,0.281 14.812,6.849c3.538,7.6 0.214,12.037 -7.332,13.78l-1.059,0.267l-3.539,-7.586l-0.013,-0Z" style="fill:#fbb224;fill-rule:nonzero;"/><path d="M112.86,516.071l11.407,-0.577l3.016,8.324l-47.29,0.751l-4.45,-12.291l43.174,-12.09l2.909,8.002l-10.616,2.787l1.85,5.108l-0,-0.014Zm-9.061,-3.351c-5.161,1.3 -14.275,3.686 -18.39,4.745l0.107,0.308c3.445,-0.321 13.524,-1.059 19.596,-1.407l-1.327,-3.659l0.014,0.013Z" style="fill:#fbb224;fill-rule:nonzero;"/><path d="M72.042,499.824l-2.239,-8.203l38.041,-2.105l-2.789,-10.213l7.735,0.106l4.838,17.775l-45.6,2.627l0.014,0.013Z" style="fill:#fbb224;fill-rule:nonzero;"/><path d="M88.167,458.568l1.756,9.074l12.788,0.121l-2.118,-10.925l7.707,1.033l3.552,18.364l-45.694,-0.858l-3.445,-17.828l7.48,0.188l1.849,9.543l10.348,0.188l-1.756,-9.075l7.547,0.175l-0.014,0Z" style="fill:#fbb224;fill-rule:nonzero;"/><path d="M93.575,445.662l2.171,0.16c3.123,0.188 4.678,-0.388 4.45,-2.453c-0.201,-1.796 -1.702,-2.573 -4.758,-2.774c-3.74,-0.321 -5.871,0.523 -9.785,4.798c-4.691,5.107 -7.359,7.225 -14.302,6.649c-6.729,-0.536 -10.2,-3.794 -10.871,-9.919c-1.085,-9.718 5.576,-11.139 11.354,-10.697l0.951,0.095l0.885,7.988l-1.635,-0.16c-2.99,-0.201 -5.054,0.093 -4.813,2.157c0.148,1.327 1.113,2.172 3.419,2.319c3.19,0.188 4.53,-0.442 7.787,-3.9c6.273,-6.702 9.651,-8.418 16.661,-7.788c7.359,0.737 11.032,4.035 11.836,11.232c0.925,8.324 -3.646,11.461 -11.353,10.697l-1.086,-0.08l-0.925,-8.324l0.014,-0Z" style="fill:#fbb224;fill-rule:nonzero;"/><path d="M77.58,386.938l15.951,10.334l10.857,-4.678l-0.12,8.579l-3.512,1.488c2.975,2.788 3.954,5.281 3.9,8.967c-0.094,7.305 -5.562,9.906 -13.913,7.989c-4.544,-1.073 -7.265,-2.775 -11.018,-7.989c-3.981,1.621 -7.533,2.104 -11.876,0.978c-5.616,-1.354 -8.994,-4.476 -8.914,-10.307c0.094,-7.171 5.563,-9.651 12.573,-7.734c3.405,0.911 5.201,1.944 9.276,8.176l5.469,-2.345l-8.78,-5.416l0.107,-8.042Zm-2.319,18.069c-1.782,-2.44 -2.975,-2.989 -5.844,-3.701c-2.399,-0.496 -4.155,-0.187 -4.182,1.422c-0.013,1.474 1.046,2.091 3.244,2.586c2.399,0.563 4.49,0.47 6.769,-0.307l0.013,-0Zm19.034,0.388l-8.766,3.767c1.514,1.434 3.123,2.051 5.388,2.627c4.008,0.925 6.501,0.295 6.528,-2.185c0.027,-1.743 -1.233,-2.895 -3.163,-4.195l0.013,-0.014Z" style="fill:#fbb224;fill-rule:nonzero;"/><path d="M94.709,353.361c-6.595,-2.521 -15.562,-5.951 -20.789,-8.056l-0.027,0.201c8.444,4.169 24.985,12.506 33.831,17.077l-1.099,7.023c-9.503,-2.559 -27.022,-7.265 -35.158,-9.476l-0.041,0.268c5.081,1.809 13.914,5.214 21.286,7.935l13.337,4.933l-1.193,7.68l-42.719,-16.219l1.89,-12.117c9.464,2.427 19.369,4.986 25.334,6.729l0.027,-0.201c-6.099,-3.056 -16.018,-8.257 -24.395,-12.828l1.89,-12.117l42.705,16.286l-1.274,8.15l-13.632,-5.242l0.027,-0.026Z" style="fill:#fbb224;fill-rule:nonzero;"/><path d="M102.482,333.216l9.718,6.018l-2.252,8.552l-39.327,-26.272l3.324,-12.64l42.383,14.597l-2.158,8.23l-10.307,-3.753l-1.381,5.254l0,0.014Zm-5.549,-7.909c-4.986,-1.863 -13.846,-5.093 -17.828,-6.554l-0.08,0.321c3.016,1.689 11.729,6.824 16.916,9.986l0.992,-3.753Z" style="fill:#fbb224;fill-rule:nonzero;"/><path d="M78.155,296.475l3.499,-9.718c2.52,-6.997 7.318,-8.834 14.02,-4.706l2.279,1.395c4.665,2.895 5.71,5.697 5.522,8.404c1.917,-1.38 4.33,-1.93 10.281,1.917c3.713,2.332 8.498,5.268 10.67,6.193l-2.815,7.814c-1.917,-0.616 -6.045,-3.177 -12.104,-6.93c-3.847,-2.385 -5.053,-2.385 -5.978,0.201l-0.416,1.139l16.782,10.388l-2.855,7.95l-38.858,-24.034l-0.027,-0.013Zm19.114,2.104l0.389,-1.072c1.046,-2.896 0.563,-4.142 -2.962,-6.192l-2.399,-1.435c-2.628,-1.595 -4.075,-1.756 -5.054,0.965l-0.455,1.26l10.495,6.487l-0.014,-0.013Z" style="fill:#fbb224;fill-rule:nonzero;"/><path d="M89.149,268.688l3.458,-7.479l15.375,11.621l0.08,-0.188c-2.935,-4.021 -9.369,-12.465 -12.841,-17.09l3.941,-8.511l11.366,17.224l25.334,9.892l-3.579,7.721l-17.251,-7.547l3.311,5.603l10.817,8.7l-3.432,7.411l-36.592,-27.357l0.013,-0Z" style="fill:#fbb224;fill-rule:nonzero;"/><path d="M130.134,243.609l-4.557,8.042l9.637,8.391l5.483,-9.677l5.187,5.79l-9.222,16.259l-34.18,-30.32l8.954,-15.803l5.562,5l-4.798,8.458l7.747,6.863l4.558,-8.043l5.616,5.04l0.013,-0Z" style="fill:#fbb224;fill-rule:nonzero;"/><path d="M123.586,221.802l-3.552,5.281l-5.214,-5.455l11.862,-17.627l5.214,5.457l-3.592,5.334l26.554,27.398l-4.719,7.01l-26.553,-27.398Z" style="fill:#fbb224;fill-rule:nonzero;"/><path d="M135.618,192.929l29.73,34.716l-5.134,6.703l-29.73,-34.717l5.134,-6.702Z" style="fill:#fbb224;fill-rule:nonzero;"/><path d="M168.284,223.287l-27.264,-36.659l6.38,-7.239l14.677,12.948c2.011,1.77 6.354,5.872 7.761,7.211l0.135,-0.147c-4.048,-4.732 -10.817,-12.76 -14.691,-17.881l-4.464,-5.991l5.282,-5.979l27.223,36.7l-6.34,7.185l-14.731,-13.176c-1.663,-1.461 -6.89,-6.166 -7.908,-7.238l-0.175,0.201c3.445,4.102 10.308,12.224 14.61,17.988l4.706,6.206l-5.188,5.885l-0.013,-0.014Z" style="fill:#fbb224;fill-rule:nonzero;"/><path d="M199.181,181.978c0.361,0.671 2.439,4.049 3.297,5.455l-4.731,4.465c-0.55,-0.591 -1.381,-1.65 -1.917,-2.521c0.657,3.432 -0.831,6.045 -2.587,7.708c-5.014,4.745 -9.57,1.488 -13.472,-4.893l-10.91,-17.908c-4.035,-6.608 -5.817,-12.21 0.509,-18.001c7.506,-6.997 12.72,-1.957 15.442,2.386l0.67,1.207l-6.233,5.897l-1.314,-2.077c-1.447,-2.226 -2.747,-3.406 -4.302,-1.931c-1.126,1.059 -1.153,2.293 0.83,5.671l12.051,19.689c1.769,2.842 3.164,3.834 4.624,2.454c1.515,-1.434 0.992,-3.244 -1.22,-6.958l-3.217,-5.16l-2.144,2.024l-3.807,-6.273l8.283,-7.827l10.148,16.606l-0,-0.013Z" style="fill:#fbb224;fill-rule:nonzero;"/><path d="M212.697,162.369l0.965,1.957c1.421,2.787 2.707,3.833 4.369,2.6c1.448,-1.086 1.355,-2.775 -0.013,-5.509c-1.622,-3.391 -3.418,-4.798 -9.088,-6.005c-6.782,-1.461 -9.959,-2.681 -12.975,-8.954c-2.949,-6.072 -1.903,-10.709 3.043,-14.409c7.841,-5.858 12.425,-0.844 14.985,4.37l0.403,0.871l-6.434,4.812l-0.697,-1.488c-1.341,-2.681 -2.641,-4.303 -4.303,-3.069c-1.072,0.804 -1.3,2.064 -0.255,4.128c1.461,2.842 2.681,3.686 7.319,4.745c8.954,2.011 12.157,4.048 15.159,10.428c3.097,6.716 2.118,11.555 -3.686,15.897c-6.715,5.014 -11.728,2.668 -14.985,-4.369l-0.483,-0.979l6.702,-5.013l-0.026,-0.013Z" style="fill:#fbb224;fill-rule:nonzero;"/><path d="M223.519,116.46l11.902,33.001c0.912,2.359 2.078,3.203 3.673,2.225c1.877,-1.166 1.582,-2.788 0.777,-4.973l-11.902,-33.001l7.292,-4.53l11.581,32.102c2.587,7.225 2.962,12.131 -4.678,16.862c-6.836,4.25 -11.622,2.252 -14.342,-5.294l-11.528,-31.901l7.225,-4.491Z" style="fill:#fbb224;fill-rule:nonzero;"/><path d="M243.186,105.36l8.861,-4.463c7.305,-3.686 12.104,-0.697 14.074,6.635l0.938,3.498c1.997,7.252 1.059,11.782 -6.782,15.723l-2.574,1.3l4.705,17.667l-7.547,3.806l-11.688,-44.166l0.013,0Zm12.828,15.897l1.555,-0.777c2.506,-1.273 2.573,-2.949 1.837,-5.884l-1.033,-3.834c-0.818,-2.962 -1.849,-4.705 -4.424,-3.405l-1.501,0.751l3.552,13.149l0.014,0Z" style="fill:#fbb224;fill-rule:nonzero;"/><path d="M269.984,92.842l9.208,-3.686c7.586,-3.029 12.118,0.348 13.444,7.828l0.63,3.579c1.368,7.399 0.028,11.822 -8.123,15.079l-2.681,1.072l3.151,18.015l-7.842,3.137l-7.815,-45.024l0.028,-0Zm11.393,16.956l1.622,-0.643c2.614,-1.046 2.815,-2.708 2.345,-5.697l-0.697,-3.914c-0.563,-3.029 -1.434,-4.839 -4.101,-3.767l-1.555,0.617l2.399,13.404l-0.013,-0Z" style="fill:#fbb224;fill-rule:nonzero;"/><path d="M320.621,89.008l1.728,21.031c0.684,8.391 -1.085,12.988 -9.048,15.361c-7.774,2.319 -11.969,-1.461 -12.666,-9.852l-1.89,-22.237c-0.711,-8.244 2.6,-12.385 8.766,-14.222c7.573,-2.265 12.439,1.113 13.11,9.933l-0,-0.014Zm-13.673,1.769l1.97,23.953c0.242,2.453 0.979,4.464 3.231,3.794c1.997,-0.59 2.265,-2.493 2.09,-5.174l-2.064,-24.007c-0.214,-2.6 -1.098,-4.142 -3.283,-3.498c-1.609,0.482 -2.211,1.984 -1.957,4.919l0.013,0.013Z" style="fill:#fbb224;fill-rule:nonzero;"/><path d="M328.035,74.639l10.121,-2.051c7.292,-1.488 11.339,1.662 11.313,9.531l-0,2.667c-0.054,5.482 -1.904,7.841 -4.316,9.088c2.171,0.925 3.9,2.694 3.699,9.771c-0.067,4.397 -0.08,10 0.255,12.332l-8.15,1.662c-0.469,-1.957 -0.429,-6.823 -0.375,-13.94c0.04,-4.517 -0.577,-5.563 -3.271,-5.013l-1.179,0.241l-0.161,19.731l-8.27,1.689l0.348,-45.681l-0.014,-0.027Zm8.123,17.425l1.113,-0.228c3.016,-0.616 3.833,-1.675 3.753,-5.75l-0.027,-2.801c0,-3.07 -0.617,-4.383 -3.445,-3.821l-1.313,0.269l-0.094,12.331l0.013,0Z" style="fill:#fbb224;fill-rule:nonzero;"/><path d="M360.095,76.73l-6.313,0.764l0.71,-7.507l21.084,-2.56l-0.71,7.52l-6.393,0.777l-3.352,38.014l-8.377,1.019l3.351,-38.014l-0,-0.013Z" style="fill:#fbb224;fill-rule:nonzero;"/></g><g id="Product-Assortment" serif:id="Product Assortment"><path d="M458.727,104.575l-8.982,-1.425l-4.418,11.779l10.815,1.714l-3.548,6.78l-18.175,-2.889l16.157,-41.969l17.648,2.809l-2.691,6.846l-9.444,-1.504l-3.653,9.497l8.982,1.424l-2.704,6.911l0.013,0.027Z" style="fill:#fff;fill-rule:nonzero;"/><path d="M469.754,127.155c0.567,-1.491 2.796,-13.374 3.508,-15.168l-0.185,-0.053c-0.725,1.319 -9.021,12.464 -9.72,13.651l-8.27,-2.018l16.54,-19.85l3.02,-20.655l8.27,2.018c-0.488,1.174 -2.757,12.095 -3.166,13.216l0.251,0.066c0.62,-1.134 8.059,-11 8.547,-11.897l8.27,2.018l-15.353,17.766l-3.561,22.897l-8.138,-1.991l-0.013,-0Z" style="fill:#fff;fill-rule:nonzero;"/><path d="M503.612,98.691l-5.949,-1.966l3.786,-6.396l19.85,6.568l-3.786,6.384l-6.014,-1.992l-18.927,32.433l-7.887,-2.611l18.927,-32.433l0,0.013Z" style="fill:#fff;fill-rule:nonzero;"/><path d="M528.738,126.733l-8.402,-3.495l-7.056,10.42l10.103,4.207l-5.038,5.764l-16.989,-7.07l25.549,-37.01l16.5,6.872l-4.221,6.028l-8.824,-3.68l-5.777,8.388l8.402,3.496l-4.247,6.093l0,-0.013Z" style="fill:#fff;fill-rule:nonzero;"/><path d="M521.945,144.921l28.582,-34.702l8.415,4.392l-8.903,17.068c-1.226,2.334 -4.115,7.452 -5.051,9.114l0.171,0.092c3.561,-4.986 9.642,-13.348 13.612,-18.254l4.669,-5.672l6.964,3.627l-28.648,34.676l-8.362,-4.366l9.114,-17.186c1.002,-1.926 4.273,-8.033 5.052,-9.259l-0.238,-0.119c-3.113,4.247 -9.246,12.728 -13.73,18.202l-4.828,5.961l-6.845,-3.574l0.026,0Z" style="fill:#fff;fill-rule:nonzero;"/><path d="M561.159,152.096l-1.477,1.57c-2.084,2.268 -2.599,3.812 -0.884,4.92c1.504,0.962 3.02,0.29 5.065,-1.926c2.572,-2.664 3.244,-4.814 2.387,-10.459c-1.002,-6.754 -0.976,-10.104 3.759,-15.05c4.577,-4.827 9.206,-5.46 14.324,-2.189c8.112,5.183 5.078,11.158 1.161,15.313l-0.66,0.673l-6.661,-4.261l1.135,-1.16c2.005,-2.163 3.06,-3.918 1.332,-5.026c-1.108,-0.712 -2.348,-0.488 -3.891,1.187c-2.11,2.322 -2.48,3.746 -1.833,8.376c1.253,8.942 0.474,12.596 -4.353,17.568c-5.118,5.184 -9.919,5.949 -15.92,2.111c-6.951,-4.445 -6.515,-9.879 -1.174,-15.313l0.739,-0.779l6.951,4.445Z" style="fill:#fff;fill-rule:nonzero;"/><path d="M607.099,145.953l-33.634,29.848l-6.687,-4.933l33.647,-29.848l6.687,4.933l-0.013,-0Z" style="fill:#fff;fill-rule:nonzero;"/><path d="M618.097,155.158l-11.621,10.828c-4.339,4.023 -10.274,9.536 -14.403,13.216l0.251,0.211c4.59,-3.205 11.739,-7.795 16.83,-11.079l13.875,-9.008l6.608,5.566l-40.347,23.53l-8.375,-7.057l30.613,-31.734l6.555,5.527l0.014,0Z" style="fill:#fff;fill-rule:nonzero;"/><path d="M625.483,195.544l-6.476,-6.397l-10.446,7.017l7.782,7.689l-6.832,3.443l-13.084,-12.926l37.577,-24.717l12.715,12.556l-6.173,3.997l-6.806,-6.727l-8.494,5.606l6.476,6.397l-6.225,4.049l-0.014,0.013Z" style="fill:#fff;fill-rule:nonzero;"/><path d="M657.969,195.532l6.146,7.584c5.065,6.251 3.205,11.501 -3.442,14.93l-3.166,1.636c-6.555,3.442 -11.105,3.482 -16.54,-3.232l-1.78,-2.202l-16.012,8.217l-5.237,-6.45l40.031,-20.47l0,-0.013Zm-12.609,15.656l1.081,1.332c1.741,2.15 3.364,1.86 6.041,0.541l3.469,-1.794c2.677,-1.411 4.128,-2.757 2.348,-4.959l-1.042,-1.28l-11.897,6.16Z" style="fill:#fff;fill-rule:nonzero;"/><path d="M675.605,218.666l5.685,8.415c4.102,6.067 2.783,10.934 -4.392,13.875l-2.427,1.003c-4.999,2.031 -7.835,1.24 -9.879,-0.488c-0.026,2.321 -0.976,4.563 -7.492,7.056c-4.009,1.596 -9.114,3.706 -11.105,4.894l-4.577,-6.78c1.596,-1.161 6.028,-2.968 12.53,-5.606c4.115,-1.675 4.827,-2.624 3.311,-4.867l-0.66,-0.989l-17.977,7.307l-4.656,-6.885l41.639,-16.948l0,0.013Zm-12.767,13.968l0.633,0.923c1.701,2.519 2.968,2.849 6.648,1.24l2.532,-1.082c2.796,-1.174 3.759,-2.216 2.163,-4.563l-0.739,-1.095l-11.237,4.577Z" style="fill:#fff;fill-rule:nonzero;"/><path d="M689.806,266.293l-19.85,6.107c-7.927,2.44 -12.715,1.701 -16.672,-5.461c-3.864,-6.977 -1.121,-11.817 6.806,-14.258l20.985,-6.502c7.782,-2.427 12.451,-0.119 15.524,5.421c3.772,6.806 1.556,12.187 -6.78,14.693l-0.013,0Zm-4.59,-12.767l-22.607,6.964c-2.295,0.752 -4.089,1.886 -2.967,3.904c0.989,1.794 2.875,1.649 5.407,0.923l22.634,-7.043c2.453,-0.752 3.759,-1.926 2.664,-3.891c-0.805,-1.438 -2.374,-1.702 -5.144,-0.844l0.013,-0.013Z" style="fill:#fff;fill-rule:nonzero;"/><path d="M705.253,270.501l3.759,8.508c3.812,8.626 -0.079,12.728 -9.378,14.666l-17.146,3.614c-7.809,1.57 -12.86,1.425 -16.501,-6.845l-4.748,-10.736l44.027,-9.207l-0.013,0Zm-34.161,15.379l0.659,1.504c1.227,2.77 3.285,3.02 6.595,2.348l20.576,-4.326c3.245,-0.647 5.038,-1.649 3.759,-4.551l-0.646,-1.451l-30.956,6.463l0.013,0.013Z" style="fill:#fff;fill-rule:nonzero;"/><path d="M719.274,306.377l-34.293,3.97c-2.467,0.343 -3.548,1.266 -2.955,3.02c0.699,2.058 2.322,2.137 4.59,1.86l34.293,-3.97l2.691,8.006l-33.357,3.864c-7.504,0.858 -12.279,0.106 -15.102,-8.27c-2.532,-7.504 0.462,-11.633 8.297,-12.543l33.145,-3.864l2.678,7.94l0.013,-0.013Z" style="fill:#fff;fill-rule:nonzero;"/><path d="M699.713,348.912l-1.952,0.066c-6.45,0 -13.071,0.105 -15.327,-9.259c-1.82,-7.558 1.662,-11.383 10.433,-11.607l20.365,-0.502c8.56,-0.237 13.269,1.544 15.023,8.851c2.427,10.063 -4.643,11.699 -9.998,11.712l-1.675,0.066l-1.952,-8.072l3.166,-0.092c2.902,-0.093 4.168,-0.739 3.746,-2.467c-0.383,-1.596 -1.755,-1.952 -4.986,-1.846l-23.187,0.646c-2.902,0.092 -4.63,0.501 -4.168,2.427c0.409,1.662 1.925,2.044 5.289,1.978l3.231,-0.105l1.979,8.204l0.013,0Z" style="fill:#fff;fill-rule:nonzero;"/><path d="M724.417,358.66l-0.989,-6.186l7.412,0.422l3.285,20.642l-7.413,-0.422l-0.989,-6.252l-37.498,-1.913l-1.306,-8.204l37.498,1.913Z" style="fill:#fff;fill-rule:nonzero;"/><path d="M701.972,392.056l-10.894,-2.783l-0.409,-8.692l44.647,13.084l0.606,12.847l-44.092,-1.226l-0.396,-8.363l10.789,0.488l-0.251,-5.328l0,-0.027Zm7.532,5.791c5.223,0.277 14.495,0.699 18.663,0.896l0,-0.329c-3.35,-0.699 -13.031,-2.955 -18.835,-4.392l0.185,3.825l-0.013,0Z" style="fill:#fff;fill-rule:nonzero;"/><path d="M704.294,418.169l-2.097,-0.475c-3.007,-0.646 -4.603,-0.303 -4.682,1.741c-0.066,1.781 1.279,2.757 4.233,3.39c3.601,0.858 5.791,0.356 10.222,-3.244c5.316,-4.287 8.204,-5.962 14.878,-4.393c6.476,1.504 9.378,5.171 9.141,11.238c-0.37,9.615 -7.044,10.024 -12.61,8.758l-0.91,-0.238l0.304,-7.913l1.569,0.382c2.876,0.633 4.92,0.646 4.999,-1.398c0.053,-1.319 -0.765,-2.269 -2.994,-2.757c-3.073,-0.646 -4.471,-0.237 -8.151,2.665c-7.07,5.605 -10.618,6.792 -17.358,5.157c-7.056,-1.781 -10.156,-5.527 -9.879,-12.649c0.317,-8.243 5.223,-10.631 12.61,-8.758l1.042,0.238l-0.317,8.23l0,0.026Z" style="fill:#fff;fill-rule:nonzero;"/><path d="M702.563,443.891l-2.031,-0.673c-2.928,-0.937 -4.551,-0.752 -4.827,1.279c-0.238,1.768 1.015,2.862 3.877,3.786c3.496,1.2 5.738,0.91 10.486,-2.243c5.698,-3.745 8.745,-5.13 15.234,-2.928c6.305,2.124 8.824,6.054 8.019,12.069c-1.292,9.536 -7.979,9.299 -13.387,7.505l-0.884,-0.317l1.069,-7.848l1.529,0.541c2.81,0.91 4.841,1.121 5.118,-0.91c0.172,-1.306 -0.541,-2.334 -2.717,-3.034c-2.994,-0.936 -4.432,-0.672 -8.375,1.86c-7.584,4.894 -11.225,5.738 -17.767,3.443c-6.858,-2.467 -9.562,-6.49 -8.613,-13.546c1.108,-8.164 6.226,-10.064 13.401,-7.505l1.016,0.343l-1.108,8.164l-0.04,0.014Z" style="fill:#fff;fill-rule:nonzero;"/><path d="M713.459,490.818l-19.006,-8.349c-7.584,-3.337 -10.723,-7.03 -9.048,-15.036c1.635,-7.808 6.872,-9.681 14.456,-6.344l20.127,8.798c7.479,3.244 9.497,8.045 8.204,14.244c-1.596,7.624 -6.793,10.235 -14.733,6.687Zm4.867,-12.662l-21.657,-9.509c-2.229,-0.937 -4.326,-1.24 -4.788,1.015c-0.422,2.005 1.095,3.126 3.495,4.234l21.737,9.457c2.347,1.029 4.102,0.989 4.563,-1.2c0.343,-1.609 -0.686,-2.836 -3.337,-3.997l-0.013,0Z" style="fill:#fff;fill-rule:nonzero;"/><path d="M722.442,503.956l-2.955,9.72c-2.123,7.004 -6.753,9.048 -13.545,5.329l-2.309,-1.253c-4.722,-2.612 -5.895,-5.302 -5.843,-7.98c-1.82,1.451 -4.154,2.111 -10.195,-1.372c-3.772,-2.11 -8.613,-4.761 -10.789,-5.552l2.374,-7.822c1.912,0.515 6.107,2.823 12.24,6.199c3.891,2.15 5.078,2.097 5.869,-0.488l0.343,-1.134l-17.001,-9.378l2.413,-7.953l39.385,21.697l0.013,-0.013Zm-18.888,-1.122l-0.33,1.069c-0.883,2.902 -0.342,4.102 3.232,5.948l2.427,1.293c2.664,1.438 4.089,1.517 4.906,-1.2l0.383,-1.267l-10.631,-5.856l0.013,0.013Z" style="fill:#fff;fill-rule:nonzero;"/><path d="M705.635,530.719l2.295,-5.83l6.173,4.128l-7.65,19.455l-6.173,-4.128l2.321,-5.896l-31.338,-20.681l3.046,-7.73l31.339,20.682l-0.013,0Z" style="fill:#fff;fill-rule:nonzero;"/><path d="M669.392,555.212c5.395,4.379 12.715,10.34 16.962,13.915l0.093,-0.172c-6.608,-6.489 -19.508,-19.362 -26.38,-26.353l3.179,-6.225c8.099,5.315 23.029,15.089 29.941,19.666l0.118,-0.238c-4.194,-3.244 -11.396,-9.153 -17.463,-13.954l-10.96,-8.705l3.482,-6.819l34.939,28.291l-5.487,10.75c-8.098,-5.171 -16.579,-10.605 -21.618,-14.074l-0.092,0.172c4.775,4.735 12.425,12.636 18.861,19.481l-5.487,10.75l-34.913,-28.345l3.693,-7.228l11.132,9.088Z" style="fill:#fff;fill-rule:nonzero;"/><path d="M657.03,586.233l4.92,-7.663l-9.022,-8.771l-5.909,9.219l-4.788,-5.974l9.932,-15.485l31.972,31.642l-9.655,15.049l-5.197,-5.21l5.171,-8.045l-7.241,-7.149l-4.92,7.663l-5.25,-5.249l-0.013,-0.027Z" style="fill:#fff;fill-rule:nonzero;"/><path d="M640.334,576.355l29.189,34.201l-5.79,7.531l-15.261,-11.752c-2.084,-1.609 -6.621,-5.342 -8.098,-6.569l-0.119,0.159c4.287,4.379 11.462,11.818 15.604,16.592l4.774,5.593l-4.788,6.225l-29.149,-34.253l5.751,-7.479l15.339,11.976c1.728,1.333 7.176,5.606 8.244,6.595l0.158,-0.211c-3.653,-3.798 -10.934,-11.317 -15.537,-16.698l-5.039,-5.79l4.709,-6.12l0.013,0Z" style="fill:#fff;fill-rule:nonzero;"/><path d="M642.762,631.515l4.22,-4.63l4.287,6.054l-14.087,15.445l-4.286,-6.054l4.273,-4.682l-21.895,-30.508l5.606,-6.133l21.895,30.508l-0.013,0Z" style="fill:#fff;fill-rule:nonzero;"/></g><path d="M639.416,668.591l-46.559,-13.164l-7.571,-48.313l10.393,-1.636l6.529,41.666l40.07,11.33l-2.862,10.117Z" style="fill:#fff;fill-rule:nonzero;"/><path d="M120.732,618.023l-9.496,-4.524l20.76,-43.697l48.907,0.62l-0.145,10.525l-42.154,-0.54l-17.872,37.616Z" style="fill:#fff;fill-rule:nonzero;"/><path d="M394.205,135.441l-8.31,-6.463l25.879,-33.291l-19.205,-36.944l9.325,-4.854l22.317,42.932l-30.006,38.62Z" style="fill:#fff;fill-rule:nonzero;"/></g></g></svg>