<svg viewBox="0 0 800 800" xmlns="http://www.w3.org/2000/svg" xml:space="preserve" style="fill-rule:evenodd;clip-rule:evenodd;stroke-linejoin:round;stroke-miterlimit:2"><path style="fill:none" d="M0 0h800v800H0z"/><path d="m176.216 596.406 5.527 6.304-32.75 18.268 6.872 7.835-6.898 3.244-11.95-13.638 39.212-22-.013-.013zM196.054 635.104l-17.187 11.646c-6.871 4.643-11.659 5.342-17.542-.329-5.75-5.54-4.537-10.974 2.322-15.617l18.149-12.359c6.726-4.603 11.87-3.759 16.434.633 5.605 5.408 5.051 11.198-2.176 16.039v-.013zm-8.125-10.855-19.587 13.269c-1.978 1.384-3.35 2.994-1.688 4.603 1.477 1.424 3.231.738 5.447-.712l19.574-13.362c2.123-1.437 3.02-2.941 1.411-4.497-1.187-1.148-2.77-.937-5.171.699h.014zM197.386 669.395c-.607.448-3.614 2.928-4.867 3.957l-4.999-3.997a18.257 18.257 0 0 1 2.203-2.216c-3.258 1.108-6.002 0-7.861-1.477-5.303-4.247-2.744-9.127 2.928-13.796l15.959-13.071c5.896-4.827 11.106-7.333 17.608-1.952 7.835 6.357 3.641 12.121-.224 15.366l-1.082.818-6.594-5.276 1.846-1.57c1.965-1.715 2.942-3.139 1.293-4.458-1.187-.95-2.388-.818-5.408 1.583l-17.555 14.416c-2.533 2.11-3.311 3.601-1.768 4.841 1.596 1.279 3.298.527 6.608-2.137l4.59-3.838-2.268-1.82 5.592-4.564 8.745 7.017-14.799 12.148.053.026zM238.801 652.699l-32.697 30.877-6.845-4.722 32.697-30.877 6.832 4.722h.013zM228.049 683.154l-1.424 1.609c-2.005 2.335-2.467 3.905-.712 4.946 1.53.911 3.033.198 4.999-2.083 2.479-2.744 3.073-4.92 2.044-10.526-1.227-6.713-1.306-10.063 3.258-15.168 4.418-4.972 9.021-5.764 14.245-2.664 8.283 4.92 5.434 10.987 1.661 15.26l-.646.699-6.806-4.049 1.095-1.187c1.939-2.229 2.928-4.01 1.161-5.065-1.135-.673-2.361-.409-3.852 1.319-2.031 2.401-2.347 3.825-1.556 8.428 1.543 8.89.884 12.57-3.772 17.701-4.946 5.342-9.708 6.265-15.841 2.638-7.083-4.208-6.832-9.668-1.662-15.261l.712-.804 7.083 4.207h.013zM264.311 676.059l-5.632-2.756 4.617-5.817 18.782 9.193-4.617 5.817-5.684-2.783-23.135 29.571-7.465-3.653 23.134-29.572zM293.353 681.202l-25.43 37.102-7.676-3.165 25.416-37.103 7.69 3.166zM303.154 716.496l-.976 1.688c-3.416 5.461-6.845 11.132-15.972 8.086-7.386-2.467-8.784-7.452-4.313-14.997l10.367-17.529c4.339-7.386 8.349-10.42 15.471-8.046 9.827 3.271 7.466 10.143 4.63 14.68l-.831 1.465-7.887-2.625 1.609-2.73c1.464-2.507 1.582-3.918-.106-4.485-1.569-.528-2.585.462-4.207 3.258l-11.752 19.995c-1.464 2.506-2.018 4.195-.145 4.815 1.622.54 2.756-.541 4.484-3.443l1.622-2.796 8.006 2.664zM316.066 721.706l-.884 1.966c-1.213 2.822-1.2 4.458.778 4.932 1.728.409 2.955-.712 4.155-3.482 1.543-3.363 1.477-5.618-1.174-10.657-3.165-6.041-4.234-9.219-1.385-15.445 2.744-6.054 6.912-8.177 12.807-6.766 9.365 2.242 8.455 8.876 6.12 14.073l-.408.857-7.69-1.846.686-1.464c1.187-2.691 1.596-4.696-.383-5.184-1.279-.303-2.374.317-3.284 2.401-1.24 2.888-1.108 4.339 1.016 8.52 4.102 8.033 4.577 11.739 1.648 18.031-3.139 6.568-7.412 8.863-14.337 7.201-8.019-1.926-9.391-7.201-6.12-14.073l.436-.976 8.019 1.925v-.013zM365.778 723.923l-9.035-1.108-3.983 11.937 10.868 1.332-3.297 6.898-18.268-2.242 14.641-42.523 17.74 2.176-2.44 6.938-9.497-1.161-3.31 9.628 9.035 1.108-2.454 7.004v.013zM380.458 744.829c.264-1.57.132-13.665.475-15.564h-.198c-.461 1.424-6.423 13.968-6.871 15.273l-8.508-.369 12.346-22.699-1.068-20.84 8.494.37c-.251 1.239-.343 12.398-.528 13.572h.264c.382-1.227 5.751-12.346 6.067-13.322l8.507.369-11.593 20.418.963 23.148-8.363-.369.013.013zM418.671 730.939l-.317 1.926c-1.266 6.318-2.453 12.833-12.082 13.229-7.781.317-10.841-3.851-9.351-12.491l3.482-20.074c1.438-8.442 4.115-12.702 11.62-13.005 10.341-.422 10.578 6.832 9.523 12.095l-.264 1.662-8.309.329.541-3.126c.474-2.862.092-4.233-1.689-4.154-1.648.066-2.255 1.345-2.783 4.537l-3.891 22.857c-.475 2.863-.409 4.643 1.57 4.564 1.715-.066 2.387-1.477 2.981-4.801l.527-3.192 8.442-.343v-.013zM443.372 722.907l-9.035 1.121-.963 12.543 10.868-1.345-1.53 7.505-18.254 2.268 3.878-44.805 17.727-2.202-.686 7.333-9.484 1.174-.87 10.143 9.035-1.121-.673 7.386h-.013zM450.85 697.108l8.204-1.676-.369 37.499 10.209-2.084-.607 7.597-17.767 3.614.33-44.95zM472.559 692.413l8.059-2.295 2.52 37.406 10.01-2.862v7.624l-17.449 4.985-3.14-44.844v-.014zM513.712 704.719l-8.534 3.166 1.953 12.424 10.261-3.811.237 7.65-17.238 6.41-6.542-44.489 16.75-6.225 1.016 7.293-8.956 3.324 1.491 10.064 8.533-3.166 1.042 7.347-.013.013zM525.347 721.798l-10.459-43.737 8.573-4.076 8.257 17.397c1.134 2.388 3.468 7.769 4.233 9.523l.185-.079c-1.82-5.843-4.84-15.735-6.357-21.868l-1.715-7.149 7.096-3.363 10.394 43.763-8.521 4.049-8.217-17.634c-.937-1.966-3.838-8.257-4.34-9.616l-.237.119c1.517 5.052 4.59 15.049 6.252 21.934l1.86 7.439-6.978 3.311-.026-.013zM567.868 684.143l.633 1.846c1.887 6.16 3.931 12.464-4.365 17.371-6.701 3.957-11.37 1.754-14.153-6.569l-6.449-19.322c-2.731-8.112-2.401-13.137 4.062-16.962 8.916-5.276 12.543 1.002 14.126 6.133l.554 1.583-7.149 4.234-1.015-3.008c-.937-2.743-1.926-3.772-3.456-2.862-1.425.844-1.345 2.256-.303 5.316l7.412 21.974c.937 2.743 1.833 4.273 3.548 3.271 1.477-.871 1.398-2.441.343-5.646l-1.042-3.06 7.268-4.299h-.014zM585.819 665.361l-7.426 5.262 5.078 11.515 8.929-6.331 2.203 7.333-15.01 10.631-17.78-41.31 14.588-10.327 2.862 6.779-7.808 5.527 4.036 9.351 7.426-5.263 2.902 6.833z" style="fill:#fff;fill-rule:nonzero"/><g><path d="m125.687 541.744 2.084-.541c2.967-.804 4.247-1.833 3.376-3.68-.752-1.609-2.4-1.859-5.315-1.081-3.588.87-5.316 2.334-7.611 7.558-2.769 6.238-4.576 9.048-11.237 10.696-6.45 1.623-10.697-.316-13.269-5.816-4.076-8.732 1.688-12.135 7.215-13.559l.923-.211 3.35 7.175-1.569.369c-2.849.752-4.683 1.675-3.812 3.522.554 1.2 1.728 1.662 3.917 1.081 3.034-.831 4.089-1.833 6.041-6.093 3.733-8.217 6.344-10.895 13.084-12.517 7.096-1.636 11.554.277 14.575 6.74 3.482 7.478.211 11.844-7.215 13.559l-1.042.263-3.482-7.465h-.013zM117.061 516.697l11.224-.567 2.968 8.191-46.533.739-4.379-12.095 42.484-11.897 2.862 7.874-10.446 2.743 1.82 5.026v-.014zm-8.916-3.297c-5.078 1.279-14.047 3.627-18.096 4.669l.105.303c3.39-.316 13.309-1.042 19.283-1.384l-1.305-3.601.013.013zM76.895 500.71l-2.202-8.072 37.432-2.071-2.744-10.05 7.611.105 4.761 17.49-44.871 2.585.013.013zM92.763 460.114l1.728 8.929 12.583.119-2.084-10.75 7.584 1.016 3.495 18.07-44.963-.844-3.39-17.543 7.36.185 1.82 9.391 10.182.185-1.727-8.93 7.425.172h-.013zM98.084 447.414l2.137.158c3.073.185 4.603-.382 4.379-2.414-.198-1.767-1.675-2.532-4.682-2.73-3.68-.316-5.778.515-9.629 4.722-4.616 5.025-7.241 7.109-14.073 6.542-6.621-.527-10.038-3.733-10.697-9.76-1.068-9.563 5.487-10.961 11.172-10.526l.936.093.871 7.861-1.61-.158c-2.941-.198-4.972.092-4.735 2.123.145 1.306 1.095 2.137 3.364 2.282 3.139.185 4.458-.435 7.663-3.838 6.173-6.595 9.496-8.283 16.395-7.663 7.241.725 10.855 3.97 11.646 11.052.91 8.191-3.588 11.278-11.172 10.526l-1.068-.079-.91-8.191h.013zM82.346 389.629l15.695 10.169 10.684-4.603-.119 8.442-3.456 1.464c2.928 2.743 3.891 5.196 3.839 8.824-.093 7.188-5.474 9.747-13.691 7.861-4.472-1.056-7.149-2.731-10.842-7.861-3.917 1.595-7.413 2.07-11.686.962-5.527-1.332-8.85-4.405-8.771-10.142.092-7.057 5.473-9.497 12.372-7.611 3.35.897 5.117 1.913 9.127 8.046l5.381-2.308-8.639-5.329.106-7.914zm-2.282 17.78c-1.755-2.401-2.928-2.941-5.751-3.641-2.361-.488-4.089-.184-4.115 1.399-.013 1.45 1.029 2.057 3.192 2.545 2.361.554 4.418.462 6.661-.303h.013zm18.729.382-8.626 3.707c1.49 1.411 3.073 2.018 5.302 2.585 3.944.91 6.397.29 6.424-2.15.026-1.715-1.214-2.849-3.113-4.128l.013-.014zM99.2 356.589c-6.489-2.48-15.313-5.856-20.457-7.927l-.026.198c8.309 4.102 24.585 12.306 33.291 16.804l-1.082 6.911c-9.351-2.519-26.59-7.149-34.596-9.325l-.04.264c4.999 1.78 13.691 5.13 20.945 7.808l13.124 4.854-1.174 7.557-42.035-15.959 1.859-11.924c9.312 2.388 19.059 4.907 24.929 6.622l.026-.198c-6.001-3.007-15.761-8.125-24.005-12.623l1.86-11.923 42.022 16.025-1.253 8.02-13.414-5.158.026-.026zM106.849 336.766l9.563 5.922-2.216 8.415-38.699-25.851 3.271-12.438 41.706 14.363-2.124 8.099-10.142-3.693-1.359 5.17v.013zm-5.46-7.782c-4.907-1.833-13.625-5.012-17.543-6.449l-.079.316c2.968 1.662 11.541 6.714 16.646 9.826l.976-3.693zM82.911 300.613l3.443-9.563c2.48-6.885 7.201-8.692 13.796-4.63l2.242 1.372c4.59 2.849 5.619 5.606 5.435 8.27 1.886-1.358 4.26-1.899 10.116 1.886 3.654 2.295 8.362 5.184 10.499 6.094l-2.77 7.689c-1.886-.606-5.948-3.126-11.91-6.819-3.785-2.347-4.973-2.347-5.883.198l-.409 1.121 16.514 10.222-2.809 7.822-38.237-23.649-.027-.013zm18.809 2.07.382-1.055c1.029-2.849.554-4.075-2.915-6.093l-2.361-1.412c-2.585-1.569-4.009-1.728-4.972.95l-.448 1.24 10.327 6.383-.013-.013zM93.729 273.27l3.403-7.359 15.129 11.435.079-.185c-2.889-3.957-9.22-12.266-12.636-16.817l3.878-8.375 11.185 16.949 24.928 9.734-3.521 7.597-16.976-7.426 3.258 5.513 10.644 8.561-3.376 7.293-36.008-26.92h.013zM134.059 248.592l-4.484 7.914 9.483 8.257 5.395-9.523 5.104 5.698-9.075 15.999-33.633-29.835 8.811-15.551 5.473 4.92-4.722 8.323 7.624 6.753 4.484-7.914 5.527 4.959h.013zM127.616 227.134l-3.496 5.197-5.13-5.368 11.672-17.345 5.131 5.369-3.535 5.249 26.129 26.96-4.643 6.898-26.128-26.96zM139.455 198.723l29.254 34.161-5.051 6.595-29.254-34.161 5.051-6.595zM171.598 228.595l-26.827-36.073 6.278-7.123 14.442 12.741c1.979 1.742 6.252 5.778 7.637 7.096l.132-.145c-3.983-4.656-10.644-12.556-14.456-17.595l-4.392-5.895 5.197-5.883 26.788 36.113-6.239 7.07-14.495-12.965c-1.636-1.438-6.78-6.068-7.782-7.123l-.171.198c3.389 4.036 10.142 12.029 14.376 17.7l4.63 6.107-5.105 5.791-.013-.014zM202.001 187.947c.356.66 2.4 3.984 3.245 5.368l-4.656 4.393a18.143 18.143 0 0 1-1.886-2.48c.646 3.377-.818 5.948-2.546 7.584-4.933 4.669-9.417 1.464-13.256-4.814l-10.736-17.622c-3.97-6.502-5.724-12.015.501-17.713 7.386-6.885 12.517-1.926 15.195 2.348l.659 1.187-6.133 5.803-1.293-2.044c-1.424-2.19-2.703-3.351-4.233-1.9-1.108 1.042-1.135 2.256.817 5.58l11.858 19.375c1.741 2.796 3.113 3.772 4.55 2.414 1.491-1.411.976-3.192-1.2-6.846l-3.166-5.078-2.11 1.992-3.746-6.173 8.151-7.702 9.985 16.341v-.013zM215.301 168.651l.95 1.926c1.398 2.743 2.664 3.772 4.299 2.559 1.425-1.069 1.333-2.731-.013-5.421-1.596-3.337-3.363-4.722-8.942-5.909-6.674-1.438-9.8-2.638-12.768-8.811-2.902-5.975-1.873-10.538 2.994-14.179 7.716-5.764 12.227-.831 14.746 4.3l.396.857-6.331 4.736-.686-1.465c-1.319-2.637-2.598-4.233-4.234-3.02-1.055.791-1.279 2.031-.251 4.062 1.438 2.797 2.638 3.628 7.202 4.67 8.811 1.978 11.963 3.983 14.917 10.261 3.047 6.608 2.084 11.37-3.627 15.643-6.608 4.933-11.541 2.625-14.746-4.3l-.475-.963 6.595-4.933-.026-.013zM225.95 123.477l11.712 32.473c.897 2.321 2.045 3.152 3.614 2.189 1.847-1.147 1.557-2.743.765-4.893l-11.712-32.473 7.175-4.458 11.396 31.589c2.546 7.109 2.915 11.937-4.603 16.592-6.727 4.182-11.436 2.216-14.113-5.209l-11.343-31.392 7.109-4.418zM245.303 112.554l8.719-4.392c7.188-3.627 11.91-.686 13.849 6.529l.923 3.443c1.965 7.135 1.042 11.593-6.674 15.471l-2.532 1.279 4.629 17.384-7.426 3.746-11.501-43.46h.013zm12.623 15.643 1.53-.765c2.466-1.253 2.532-2.901 1.807-5.79l-1.016-3.772c-.805-2.915-1.82-4.63-4.353-3.35l-1.477.738 3.495 12.939h.014zM271.672 100.236l9.061-3.627c7.465-2.981 11.924.343 13.229 7.703l.62 3.521c1.346 7.281.027 11.634-7.993 14.839l-2.638 1.055 3.1 17.727-7.716 3.086-7.69-44.304h.027zm11.211 16.685 1.596-.633c2.572-1.029 2.77-2.664 2.308-5.606l-.686-3.851c-.554-2.981-1.411-4.761-4.036-3.706l-1.53.606 2.361 13.19h-.013zM321.499 96.464l1.701 20.694c.673 8.257-1.068 12.781-8.903 15.116-7.65 2.281-11.778-1.438-12.464-9.695l-1.86-21.881c-.699-8.112 2.559-12.188 8.626-13.995 7.452-2.229 12.24 1.095 12.9 9.774v-.013zm-13.454 1.741 1.939 23.57c.238 2.413.963 4.392 3.179 3.732 1.965-.58 2.229-2.453 2.057-5.091l-2.031-23.623c-.211-2.558-1.081-4.075-3.231-3.442-1.583.475-2.176 1.952-1.926 4.841l.013.013zM328.795 82.324l9.959-2.018c7.175-1.464 11.158 1.636 11.132 9.378v2.625c-.053 5.395-1.873 7.716-4.247 8.943 2.136.91 3.838 2.651 3.64 9.615-.066 4.326-.079 9.839.251 12.134l-8.02 1.636c-.461-1.926-.422-6.714-.369-13.717.04-4.445-.567-5.474-3.218-4.933l-1.161.237-.158 19.415-8.138 1.662.343-44.95-.014-.027zm7.993 17.147 1.095-.224c2.968-.607 3.772-1.649 3.693-5.659l-.026-2.756c0-3.021-.607-4.313-3.39-3.759l-1.292.263-.093 12.135h.013zM360.342 84.382l-6.212.751.699-7.386 20.747-2.519-.699 7.399-6.291.765-3.298 37.406-8.243 1.002 3.297-37.405v-.013z" style="fill:#fff;fill-rule:nonzero"/></g><g><path d="m458.727 104.575-8.982-1.425-4.418 11.779 10.815 1.714-3.548 6.78-18.175-2.889 16.157-41.969 17.648 2.809-2.691 6.846-9.444-1.504-3.653 9.497 8.982 1.424-2.704 6.911.013.027zM469.754 127.155c.567-1.491 2.796-13.374 3.508-15.168l-.185-.053c-.725 1.319-9.021 12.464-9.72 13.651l-8.27-2.018 16.54-19.85 3.02-20.655 8.27 2.018c-.488 1.174-2.757 12.095-3.166 13.216l.251.066c.62-1.134 8.059-11 8.547-11.897l8.27 2.018-15.353 17.766-3.561 22.897-8.138-1.991h-.013zM503.612 98.691l-5.949-1.966 3.786-6.396 19.85 6.568-3.786 6.384-6.014-1.992-18.927 32.433-7.887-2.611 18.927-32.433v.013zM528.738 126.733l-8.402-3.495-7.056 10.42 10.103 4.207-5.038 5.764-16.989-7.07 25.549-37.01 16.5 6.872-4.221 6.028-8.824-3.68-5.777 8.388 8.402 3.496-4.247 6.093v-.013zM521.945 144.921l28.582-34.702 8.415 4.392-8.903 17.068c-1.226 2.334-4.115 7.452-5.051 9.114l.171.092c3.561-4.986 9.642-13.348 13.612-18.254l4.669-5.672 6.964 3.627-28.648 34.676-8.362-4.366 9.114-17.186c1.002-1.926 4.273-8.033 5.052-9.259l-.238-.119c-3.113 4.247-9.246 12.728-13.73 18.202l-4.828 5.961-6.845-3.574h.026zM561.159 152.096l-1.477 1.57c-2.084 2.268-2.599 3.812-.884 4.92 1.504.962 3.02.29 5.065-1.926 2.572-2.664 3.244-4.814 2.387-10.459-1.002-6.754-.976-10.104 3.759-15.05 4.577-4.827 9.206-5.46 14.324-2.189 8.112 5.183 5.078 11.158 1.161 15.313l-.66.673-6.661-4.261 1.135-1.16c2.005-2.163 3.06-3.918 1.332-5.026-1.108-.712-2.348-.488-3.891 1.187-2.11 2.322-2.48 3.746-1.833 8.376 1.253 8.942.474 12.596-4.353 17.568-5.118 5.184-9.919 5.949-15.92 2.111-6.951-4.445-6.515-9.879-1.174-15.313l.739-.779 6.951 4.445zM607.099 145.953l-33.634 29.848-6.687-4.933 33.647-29.848 6.687 4.933h-.013zM618.097 155.158l-11.621 10.828c-4.339 4.023-10.274 9.536-14.403 13.216l.251.211c4.59-3.205 11.739-7.795 16.83-11.079l13.875-9.008 6.608 5.566-40.347 23.53-8.375-7.057 30.613-31.734 6.555 5.527h.014zM625.483 195.544l-6.476-6.397-10.446 7.017 7.782 7.689-6.832 3.443-13.084-12.926 37.577-24.717 12.715 12.556-6.173 3.997-6.806-6.727-8.494 5.606 6.476 6.397-6.225 4.049-.014.013zM657.969 195.532l6.146 7.584c5.065 6.251 3.205 11.501-3.442 14.93l-3.166 1.636c-6.555 3.442-11.105 3.482-16.54-3.232l-1.78-2.202-16.012 8.217-5.237-6.45 40.031-20.47v-.013zm-12.609 15.656 1.081 1.332c1.741 2.15 3.364 1.86 6.041.541l3.469-1.794c2.677-1.411 4.128-2.757 2.348-4.959l-1.042-1.28-11.897 6.16zM675.605 218.666l5.685 8.415c4.102 6.067 2.783 10.934-4.392 13.875l-2.427 1.003c-4.999 2.031-7.835 1.24-9.879-.488-.026 2.321-.976 4.563-7.492 7.056-4.009 1.596-9.114 3.706-11.105 4.894l-4.577-6.78c1.596-1.161 6.028-2.968 12.53-5.606 4.115-1.675 4.827-2.624 3.311-4.867l-.66-.989-17.977 7.307-4.656-6.885 41.639-16.948v.013zm-12.767 13.968.633.923c1.701 2.519 2.968 2.849 6.648 1.24l2.532-1.082c2.796-1.174 3.759-2.216 2.163-4.563l-.739-1.095-11.237 4.577zM689.806 266.293l-19.85 6.107c-7.927 2.44-12.715 1.701-16.672-5.461-3.864-6.977-1.121-11.817 6.806-14.258l20.985-6.502c7.782-2.427 12.451-.119 15.524 5.421 3.772 6.806 1.556 12.187-6.78 14.693h-.013zm-4.59-12.767-22.607 6.964c-2.295.752-4.089 1.886-2.967 3.904.989 1.794 2.875 1.649 5.407.923l22.634-7.043c2.453-.752 3.759-1.926 2.664-3.891-.805-1.438-2.374-1.702-5.144-.844l.013-.013zM705.253 270.501l3.759 8.508c3.812 8.626-.079 12.728-9.378 14.666l-17.146 3.614c-7.809 1.57-12.86 1.425-16.501-6.845l-4.748-10.736 44.027-9.207h-.013zm-34.161 15.379.659 1.504c1.227 2.77 3.285 3.02 6.595 2.348l20.576-4.326c3.245-.647 5.038-1.649 3.759-4.551l-.646-1.451-30.956 6.463.013.013zM719.274 306.377l-34.293 3.97c-2.467.343-3.548 1.266-2.955 3.02.699 2.058 2.322 2.137 4.59 1.86l34.293-3.97 2.691 8.006-33.357 3.864c-7.504.858-12.279.106-15.102-8.27-2.532-7.504.462-11.633 8.297-12.543l33.145-3.864 2.678 7.94.013-.013zM699.713 348.912l-1.952.066c-6.45 0-13.071.105-15.327-9.259-1.82-7.558 1.662-11.383 10.433-11.607l20.365-.502c8.56-.237 13.269 1.544 15.023 8.851 2.427 10.063-4.643 11.699-9.998 11.712l-1.675.066-1.952-8.072 3.166-.092c2.902-.093 4.168-.739 3.746-2.467-.383-1.596-1.755-1.952-4.986-1.846l-23.187.646c-2.902.092-4.63.501-4.168 2.427.409 1.662 1.925 2.044 5.289 1.978l3.231-.105 1.979 8.204h.013zM724.417 358.66l-.989-6.186 7.412.422 3.285 20.642-7.413-.422-.989-6.252-37.498-1.913-1.306-8.204 37.498 1.913zM701.972 392.056l-10.894-2.783-.409-8.692 44.647 13.084.606 12.847-44.092-1.226-.396-8.363 10.789.488-.251-5.328v-.027zm7.532 5.791c5.223.277 14.495.699 18.663.896v-.329c-3.35-.699-13.031-2.955-18.835-4.392l.185 3.825h-.013zM704.294 418.169l-2.097-.475c-3.007-.646-4.603-.303-4.682 1.741-.066 1.781 1.279 2.757 4.233 3.39 3.601.858 5.791.356 10.222-3.244 5.316-4.287 8.204-5.962 14.878-4.393 6.476 1.504 9.378 5.171 9.141 11.238-.37 9.615-7.044 10.024-12.61 8.758l-.91-.238.304-7.913 1.569.382c2.876.633 4.92.646 4.999-1.398.053-1.319-.765-2.269-2.994-2.757-3.073-.646-4.471-.237-8.151 2.665-7.07 5.605-10.618 6.792-17.358 5.157-7.056-1.781-10.156-5.527-9.879-12.649.317-8.243 5.223-10.631 12.61-8.758l1.042.238-.317 8.23v.026zM702.563 443.891l-2.031-.673c-2.928-.937-4.551-.752-4.827 1.279-.238 1.768 1.015 2.862 3.877 3.786 3.496 1.2 5.738.91 10.486-2.243 5.698-3.745 8.745-5.13 15.234-2.928 6.305 2.124 8.824 6.054 8.019 12.069-1.292 9.536-7.979 9.299-13.387 7.505l-.884-.317 1.069-7.848 1.529.541c2.81.91 4.841 1.121 5.118-.91.172-1.306-.541-2.334-2.717-3.034-2.994-.936-4.432-.672-8.375 1.86-7.584 4.894-11.225 5.738-17.767 3.443-6.858-2.467-9.562-6.49-8.613-13.546 1.108-8.164 6.226-10.064 13.401-7.505l1.016.343-1.108 8.164-.04.014zM713.459 490.818l-19.006-8.349c-7.584-3.337-10.723-7.03-9.048-15.036 1.635-7.808 6.872-9.681 14.456-6.344l20.127 8.798c7.479 3.244 9.497 8.045 8.204 14.244-1.596 7.624-6.793 10.235-14.733 6.687zm4.867-12.662-21.657-9.509c-2.229-.937-4.326-1.24-4.788 1.015-.422 2.005 1.095 3.126 3.495 4.234l21.737 9.457c2.347 1.029 4.102.989 4.563-1.2.343-1.609-.686-2.836-3.337-3.997h-.013zM722.442 503.956l-2.955 9.72c-2.123 7.004-6.753 9.048-13.545 5.329l-2.309-1.253c-4.722-2.612-5.895-5.302-5.843-7.98-1.82 1.451-4.154 2.111-10.195-1.372-3.772-2.11-8.613-4.761-10.789-5.552l2.374-7.822c1.912.515 6.107 2.823 12.24 6.199 3.891 2.15 5.078 2.097 5.869-.488l.343-1.134-17.001-9.378 2.413-7.953 39.385 21.697.013-.013zm-18.888-1.122-.33 1.069c-.883 2.902-.342 4.102 3.232 5.948l2.427 1.293c2.664 1.438 4.089 1.517 4.906-1.2l.383-1.267-10.631-5.856.013.013zM705.635 530.719l2.295-5.83 6.173 4.128-7.65 19.455-6.173-4.128 2.321-5.896-31.338-20.681 3.046-7.73 31.339 20.682h-.013zM669.392 555.212c5.395 4.379 12.715 10.34 16.962 13.915l.093-.172c-6.608-6.489-19.508-19.362-26.38-26.353l3.179-6.225c8.099 5.315 23.029 15.089 29.941 19.666l.118-.238c-4.194-3.244-11.396-9.153-17.463-13.954l-10.96-8.705 3.482-6.819 34.939 28.291-5.487 10.75c-8.098-5.171-16.579-10.605-21.618-14.074l-.092.172c4.775 4.735 12.425 12.636 18.861 19.481l-5.487 10.75-34.913-28.345 3.693-7.228 11.132 9.088zM657.03 586.233l4.92-7.663-9.022-8.771-5.909 9.219-4.788-5.974 9.932-15.485 31.972 31.642-9.655 15.049-5.197-5.21 5.171-8.045-7.241-7.149-4.92 7.663-5.25-5.249-.013-.027zM640.334 576.355l29.189 34.201-5.79 7.531-15.261-11.752c-2.084-1.609-6.621-5.342-8.098-6.569l-.119.159c4.287 4.379 11.462 11.818 15.604 16.592l4.774 5.593-4.788 6.225-29.149-34.253 5.751-7.479 15.339 11.976c1.728 1.333 7.176 5.606 8.244 6.595l.158-.211c-3.653-3.798-10.934-11.317-15.537-16.698l-5.039-5.79 4.709-6.12h.013zM642.762 631.515l4.22-4.63 4.287 6.054-14.087 15.445-4.286-6.054 4.273-4.682-21.895-30.508 5.606-6.133 21.895 30.508h-.013z" style="fill:#fff;fill-rule:nonzero"/></g><path d="m639.416 668.591-46.559-13.164-7.571-48.313 10.393-1.636 6.529 41.666 40.07 11.33-2.862 10.117zM120.732 618.023l-9.496-4.524 20.76-43.697 48.907.62-.145 10.525-42.154-.54-17.872 37.616zM394.205 135.441l-8.31-6.463 25.879-33.291-19.205-36.944 9.325-4.854 22.317 42.932-30.006 38.62z" style="fill:#fff;fill-rule:nonzero"/></svg>