<svg viewBox="0 0 800 800" xmlns="http://www.w3.org/2000/svg" xml:space="preserve" style="fill-rule:evenodd;clip-rule:evenodd;stroke-linejoin:round;stroke-miterlimit:2"><path style="fill:none" d="M0 0h800v800H0z"/><path d="M186.404 380.191h7.471l8.624-40.51h-11.114c-2.916 8.138-6.195 17.735-8.078 23.626h-.182c.729-5.588 1.64-14.819 2.49-23.626H174.5l-8.563 40.51h7.045l2.551-12.633c1.397-6.984 3.219-15.366 4.13-20.164h.243c-.851 7.592-2.612 23.93-3.584 32.797h6.438c2.855-8.563 8.017-24.537 10.568-32.675h.182c-1.154 4.98-2.976 13.483-4.312 19.739l-2.794 12.936zm28.852-41.117c-5.831 0-9.778 2.733-11.297 10.082l-4.13 19.799c-1.579 7.471 1.093 11.844 8.442 11.844 7.532 0 10.265-3.523 11.844-10.993l3.948-18.707c1.7-7.835-1.64-12.025-8.807-12.025zm-.547 6.255c2.065 0 2.43 1.579 1.944 3.887l-4.434 21.379c-.546 2.369-1.275 3.948-3.158 3.948-2.126 0-2.247-1.944-1.822-4.13l4.494-21.318c.547-2.612 1.458-3.766 2.976-3.766zm6.76 34.862h7.653l3.704-17.491h1.094c2.49 0 2.854 1.032 2.004 5.041-1.336 6.316-2.247 10.628-2.187 12.45h7.532c.121-2.125 1.154-7.106 2.004-10.993 1.457-6.256.243-8.138-1.519-9.353 2.369-.668 4.434-2.429 5.467-7.288l.485-2.369c1.458-6.984-1.579-10.507-8.32-10.507h-9.353l-8.564 40.51zm14.941-34.497h1.214c2.612 0 2.916 1.275 2.369 4.008l-.486 2.49c-.668 3.645-1.579 4.434-4.373 4.434h-1.032l2.308-10.932zm29.189 9.778h-8.381l1.943-9.171h8.807l1.457-6.62h-16.459l-8.624 40.51h16.945l2.247-6.681h-10.082l2.308-11.357h8.381l1.458-6.681zm8.62 24.719h7.653l7.167-33.829h5.83l1.458-6.681h-19.253l-1.458 6.681h5.77l-7.167 33.829zm15.373 0h7.652l3.826-18.038h4.859l-3.826 18.038h7.774l8.564-40.51h-7.714l-3.34 15.791h-4.859l3.341-15.791h-7.653l-8.624 40.51zm38.449-9.899-.911 9.899h7.713l3.037-40.51h-11.844l-13.969 40.51h8.017l3.037-9.899h4.92zm-2.794-6.681c1.579-5.284 4.069-14.091 4.859-17.128h.303c-.364 3.827-1.154 12.33-1.64 17.128h-3.522zm18.798 16.58 1.397-6.923c1.336-6.378 2.733-15.913 3.462-20.711h.243c-.122 1.336-.183 7.713-.183 9.718l-.121 17.916h8.685l8.624-40.51h-7.227l-1.397 6.62c-1.154 5.709-2.551 15.123-3.34 20.711h-.183c.061-1.762.243-7.167.243-9.596v-17.735h-8.746l-8.563 40.51h7.106zm34.919 0c2.369-7.349 4.859-14.272 7.41-22.532h.243c-1.093 8.381-1.64 15.791-2.369 22.532h7.956l13.605-40.51h-7.713c-1.883 6.681-5.588 20.711-7.349 28.181h-.304c.972-7.774 2.49-20.285 3.401-28.181h-6.438c-2.672 8.746-6.377 20.043-8.806 27.756h-.304c1.154-6.377 3.523-20.529 4.494-27.756h-7.713l-4.13 40.51h8.017zm20.484 0h7.653l3.826-18.038h4.859l-3.826 18.038h7.774l8.564-40.51h-7.714l-3.34 15.791h-4.859l3.34-15.791h-7.652l-8.625 40.51zm41.668-41.117c-5.83 0-9.778 2.733-11.296 10.082l-4.13 19.799c-1.579 7.471 1.093 11.844 8.442 11.844 7.531 0 10.264-3.523 11.843-10.993l3.948-18.707c1.701-7.835-1.64-12.025-8.807-12.025zm-.546 6.255c2.065 0 2.429 1.579 1.943 3.887l-4.433 21.379c-.547 2.369-1.276 3.948-3.158 3.948-2.126 0-2.248-1.944-1.823-4.13l4.495-21.318c.546-2.612 1.457-3.766 2.976-3.766zm6.82 34.862h16.702l1.944-6.741h-9.596l7.227-33.769h-7.713l-8.564 40.51zm40.214-24.719h-8.381l1.944-9.171h8.806l1.458-6.62h-16.459l-8.625 40.51h16.945l2.247-6.681h-10.082l2.308-11.357h8.382l1.457-6.681zm-.132 13.058-.182.972c-1.458 6.863.911 11.297 8.503 11.297 6.559 0 9.9-2.976 11.296-9.536 1.276-6.256.061-9.474-5.344-15.791-2.794-3.28-3.219-4.555-2.733-7.41.364-2.065 1.214-2.854 2.429-2.854 1.883 0 1.944 1.883 1.458 4.555l-.304 1.458h7.288l.182-.851c.972-5.162.365-11.296-8.502-11.296-5.588 0-8.868 2.793-10.022 8.806-1.214 6.195.425 8.807 4.555 13.544 3.462 3.948 4.009 5.952 3.341 9.293-.486 2.733-1.336 4.008-2.976 4.008-1.883 0-2.247-1.457-1.761-4.251l.364-1.944h-7.592zm35.274 1.762-.911 9.899h7.714l3.036-40.51h-11.843l-13.969 40.51h8.017l3.037-9.899h4.919zm-2.794-6.681c1.58-5.284 4.07-14.091 4.859-17.128h.304c-.364 3.827-1.154 12.33-1.64 17.128h-3.523zm11.753 16.58h16.702l1.944-6.741h-9.596l7.227-33.769h-7.713l-8.564 40.51zm40.214-24.719h-8.381l1.943-9.171h8.807l1.458-6.62h-16.46l-8.624 40.51h16.945l2.247-6.681h-10.082l2.308-11.357h8.382l1.457-6.681zM210.692 460.191h9.264l8.675-40.951h7.058l1.765-8.087h-23.306l-1.765 8.087h6.985l-8.676 40.951zm18.608 0h9.264l4.632-21.836h5.882l-4.632 21.836h9.411l10.366-49.039h-9.337l-4.044 19.116h-5.882l4.044-19.115h-9.264l-10.44 49.038zm55.072-29.923h-10.146l2.353-11.102h10.661l1.764-8.014H269.08l-10.44 49.039h20.512l2.721-8.087h-12.205l2.794-13.749h10.146l1.764-8.087zm19.038 29.923c2.867-8.896 5.881-17.278 8.969-27.276h.294c-1.323 10.146-1.985 19.115-2.867 27.276h9.631l16.469-49.039h-9.337c-2.279 8.088-6.764 25.071-8.896 34.114h-.368a4279.867 4279.867 0 0 0 4.117-34.113h-7.793c-3.235 10.586-7.72 24.261-10.66 33.599h-.368c1.397-7.72 4.264-24.85 5.441-33.599h-9.338l-4.999 49.038h9.705zm24.796 0h9.264l4.632-21.836h5.882l-4.632 21.836h9.411l10.366-49.039h-9.337l-4.044 19.116h-5.881l4.043-19.115h-9.263l-10.441 49.038zm50.441-49.774c-7.058 0-11.837 3.309-13.675 12.205l-5 23.968c-1.911 9.043 1.324 14.336 10.22 14.336 9.116 0 12.425-4.264 14.336-13.307l4.779-22.645c2.059-9.484-1.985-14.557-10.66-14.557zm-.662 7.573c2.5 0 2.941 1.912 2.353 4.705l-5.367 25.88c-.662 2.867-1.544 4.779-3.823 4.779-2.574 0-2.721-2.353-2.206-5l5.44-25.806c.662-3.161 1.765-4.558 3.603-4.558zm8.256 42.201h20.219l2.352-8.161h-11.616l8.749-40.878h-9.337l-10.367 49.039zm48.681-29.923h-10.146l2.352-11.102h10.661l1.764-8.014h-19.924l-10.44 49.039h20.513l2.72-8.087h-12.205l2.794-13.749h10.146l1.765-8.087zm5.95 29.923h9.264l4.117-19.63h3.162c9.631 0 12.792-3.97 14.41-12.058l.808-3.896c1.691-8.161-1.543-13.454-10.513-13.454h-10.881l-10.367 49.038zm18.086-41.76h1.839c3.161 0 3.308 2.206 2.646 5.514l-.882 4.264c-.735 3.235-1.617 4.853-4.705 4.853h-1.912l3.014-14.631zm24.581 29.776-1.103 11.984h9.337l3.676-49.039h-14.336l-16.91 49.039h9.704l3.677-11.984h5.955zm-3.382-8.087c1.911-6.397 4.926-17.057 5.881-20.733h.368c-.441 4.631-1.397 14.924-1.985 20.733h-4.264zm30.783 4.484-.735 3.529c-.809 3.677-1.618 5.221-3.529 5.221-2.206 0-2.206-1.986-1.544-5.147l5.367-25.291c.735-3.529 1.47-4.926 3.308-4.926 1.985 0 2.353 1.544 1.691 4.705l-.735 3.456h9.264l.367-1.838c1.397-5.808 1.471-13.896-10.072-13.896-8.382 0-11.543 4.632-13.528 13.969l-4.779 22.204c-2.059 9.557 1.176 14.336 9.852 14.336 10.734 0 12.351-7.205 14.042-14.189l.442-2.133h-9.411zm9.12 15.587h8.97l3.676-14.778 4.043-5.882.441 20.66h9.338l-1.838-29.776 11.91-19.262h-10.293c-3.014 5.587-8.455 15.88-11.102 20.659h-.22l4.485-20.659h-9.044l-10.366 49.038zm44.892-11.984-1.103 11.984h9.338l3.676-49.039h-14.337l-16.91 49.039h9.705l3.676-11.984h5.955zm-3.382-8.087c1.912-6.397 4.926-17.057 5.882-20.733h.367c-.441 4.631-1.396 14.924-1.985 20.733h-4.264zm43.429-7.647H592.5l-1.691 7.867h3.235l-1.323 6.544c-1.029 4.631-1.985 6.47-4.264 6.47-2.206 0-2.574-1.839-1.838-5.441l5.22-24.777c.955-4.19 1.911-5.146 3.602-5.146 2.353 0 2.5 1.912 1.985 4.779l-.514 2.646h9.41l.368-1.47c1.103-5.514.735-13.454-10.514-13.528-9.41-.147-12.204 5.661-13.969 13.969l-4.779 22.498c-1.691 8.013-.514 14.042 7.058 14.042 2.647 0 5.809-.956 7.867-4.191-.22 1.103-.367 2.574-.367 3.456h7.131c.368-1.765 1.25-6.029 1.471-6.837l4.411-20.881zm24.433-2.205h-10.146l2.352-11.102h10.661l1.764-8.014h-19.924l-10.44 49.039h20.513l2.72-8.087h-12.205l2.794-13.749h10.146l1.765-8.087z" style="fill:#fff;fill-rule:nonzero"/></svg>