<?xml version="1.0" encoding="UTF-8" standalone="no"?><!DOCTYPE svg PUBLIC "-//W3C//DTD SVG 1.1//EN" "http://www.w3.org/Graphics/SVG/1.1/DTD/svg11.dtd"><svg width="100%" height="100%" viewBox="0 0 800 800" version="1.1" xmlns="http://www.w3.org/2000/svg" xmlns:xlink="http://www.w3.org/1999/xlink" xml:space="preserve" xmlns:serif="http://www.serif.com/" style="fill-rule:evenodd;clip-rule:evenodd;stroke-linejoin:round;stroke-miterlimit:2;"><g><rect x="0" y="-0" width="800" height="800" style="fill:none;"/><g id="Product-Option" serif:id="Product Option"><g id="Logistics-Excellence" serif:id="Logistics Excellence"><path d="M176.216,596.406l5.527,6.304l-32.75,18.268l6.872,7.835l-6.898,3.244l-11.95,-13.638l39.212,-22l-0.013,-0.013Z" style="fill:#fff;fill-rule:nonzero;"/><path d="M196.054,635.104l-17.187,11.646c-6.871,4.643 -11.659,5.342 -17.542,-0.329c-5.75,-5.54 -4.537,-10.974 2.322,-15.617l18.149,-12.359c6.726,-4.603 11.87,-3.759 16.434,0.633c5.605,5.408 5.051,11.198 -2.176,16.039l0,-0.013Zm-8.125,-10.855l-19.587,13.269c-1.978,1.384 -3.35,2.994 -1.688,4.603c1.477,1.424 3.231,0.738 5.447,-0.712l19.574,-13.362c2.123,-1.437 3.02,-2.941 1.411,-4.497c-1.187,-1.148 -2.77,-0.937 -5.171,0.699l0.014,0Z" style="fill:#fff;fill-rule:nonzero;"/><path d="M197.386,669.395c-0.607,0.448 -3.614,2.928 -4.867,3.957l-4.999,-3.997c0.501,-0.62 1.424,-1.569 2.203,-2.216c-3.258,1.108 -6.002,0 -7.861,-1.477c-5.303,-4.247 -2.744,-9.127 2.928,-13.796l15.959,-13.071c5.896,-4.827 11.106,-7.333 17.608,-1.952c7.835,6.357 3.641,12.121 -0.224,15.366l-1.082,0.818l-6.594,-5.276l1.846,-1.57c1.965,-1.715 2.942,-3.139 1.293,-4.458c-1.187,-0.95 -2.388,-0.818 -5.408,1.583l-17.555,14.416c-2.533,2.11 -3.311,3.601 -1.768,4.841c1.596,1.279 3.298,0.527 6.608,-2.137l4.59,-3.838l-2.268,-1.82l5.592,-4.564l8.745,7.017l-14.799,12.148l0.053,0.026Z" style="fill:#fff;fill-rule:nonzero;"/><path d="M238.801,652.699l-32.697,30.877l-6.845,-4.722l32.697,-30.877l6.832,4.722l0.013,0Z" style="fill:#fff;fill-rule:nonzero;"/><path d="M228.049,683.154l-1.424,1.609c-2.005,2.335 -2.467,3.905 -0.712,4.946c1.53,0.911 3.033,0.198 4.999,-2.083c2.479,-2.744 3.073,-4.92 2.044,-10.526c-1.227,-6.713 -1.306,-10.063 3.258,-15.168c4.418,-4.972 9.021,-5.764 14.245,-2.664c8.283,4.92 5.434,10.987 1.661,15.26l-0.646,0.699l-6.806,-4.049l1.095,-1.187c1.939,-2.229 2.928,-4.01 1.161,-5.065c-1.135,-0.673 -2.361,-0.409 -3.852,1.319c-2.031,2.401 -2.347,3.825 -1.556,8.428c1.543,8.89 0.884,12.57 -3.772,17.701c-4.946,5.342 -9.708,6.265 -15.841,2.638c-7.083,-4.208 -6.832,-9.668 -1.662,-15.261l0.712,-0.804l7.083,4.207l0.013,0Z" style="fill:#fff;fill-rule:nonzero;"/><path d="M264.311,676.059l-5.632,-2.756l4.617,-5.817l18.782,9.193l-4.617,5.817l-5.684,-2.783l-23.135,29.571l-7.465,-3.653l23.134,-29.572Z" style="fill:#fff;fill-rule:nonzero;"/><path d="M293.353,681.202l-25.43,37.102l-7.676,-3.165l25.416,-37.103l7.69,3.166Z" style="fill:#fff;fill-rule:nonzero;"/><path d="M303.154,716.496l-0.976,1.688c-3.416,5.461 -6.845,11.132 -15.972,8.086c-7.386,-2.467 -8.784,-7.452 -4.313,-14.997l10.367,-17.529c4.339,-7.386 8.349,-10.42 15.471,-8.046c9.827,3.271 7.466,10.143 4.63,14.68l-0.831,1.465l-7.887,-2.625l1.609,-2.73c1.464,-2.507 1.582,-3.918 -0.106,-4.485c-1.569,-0.528 -2.585,0.462 -4.207,3.258l-11.752,19.995c-1.464,2.506 -2.018,4.195 -0.145,4.815c1.622,0.54 2.756,-0.541 4.484,-3.443l1.622,-2.796l8.006,2.664Z" style="fill:#fff;fill-rule:nonzero;"/><path d="M316.066,721.706l-0.884,1.966c-1.213,2.822 -1.2,4.458 0.778,4.932c1.728,0.409 2.955,-0.712 4.155,-3.482c1.543,-3.363 1.477,-5.618 -1.174,-10.657c-3.165,-6.041 -4.234,-9.219 -1.385,-15.445c2.744,-6.054 6.912,-8.177 12.807,-6.766c9.365,2.242 8.455,8.876 6.12,14.073l-0.408,0.857l-7.69,-1.846l0.686,-1.464c1.187,-2.691 1.596,-4.696 -0.383,-5.184c-1.279,-0.303 -2.374,0.317 -3.284,2.401c-1.24,2.888 -1.108,4.339 1.016,8.52c4.102,8.033 4.577,11.739 1.648,18.031c-3.139,6.568 -7.412,8.863 -14.337,7.201c-8.019,-1.926 -9.391,-7.201 -6.12,-14.073l0.436,-0.976l8.019,1.925l0,-0.013Z" style="fill:#fff;fill-rule:nonzero;"/><path d="M365.778,723.923l-9.035,-1.108l-3.983,11.937l10.868,1.332l-3.297,6.898l-18.268,-2.242l14.641,-42.523l17.74,2.176l-2.44,6.938l-9.497,-1.161l-3.31,9.628l9.035,1.108l-2.454,7.004l0,0.013Z" style="fill:#fff;fill-rule:nonzero;"/><path d="M380.458,744.829c0.264,-1.57 0.132,-13.665 0.475,-15.564l-0.198,0c-0.461,1.424 -6.423,13.968 -6.871,15.273l-8.508,-0.369l12.346,-22.699l-1.068,-20.84l8.494,0.37c-0.251,1.239 -0.343,12.398 -0.528,13.572l0.264,0c0.382,-1.227 5.751,-12.346 6.067,-13.322l8.507,0.369l-11.593,20.418l0.963,23.148l-8.363,-0.369l0.013,0.013Z" style="fill:#fff;fill-rule:nonzero;"/><path d="M418.671,730.939l-0.317,1.926c-1.266,6.318 -2.453,12.833 -12.082,13.229c-7.781,0.317 -10.841,-3.851 -9.351,-12.491l3.482,-20.074c1.438,-8.442 4.115,-12.702 11.62,-13.005c10.341,-0.422 10.578,6.832 9.523,12.095l-0.264,1.662l-8.309,0.329l0.541,-3.126c0.474,-2.862 0.092,-4.233 -1.689,-4.154c-1.648,0.066 -2.255,1.345 -2.783,4.537l-3.891,22.857c-0.475,2.863 -0.409,4.643 1.57,4.564c1.715,-0.066 2.387,-1.477 2.981,-4.801l0.527,-3.192l8.442,-0.343l0,-0.013Z" style="fill:#fff;fill-rule:nonzero;"/><path d="M443.372,722.907l-9.035,1.121l-0.963,12.543l10.868,-1.345l-1.53,7.505l-18.254,2.268l3.878,-44.805l17.727,-2.202l-0.686,7.333l-9.484,1.174l-0.87,10.143l9.035,-1.121l-0.673,7.386l-0.013,0Z" style="fill:#fff;fill-rule:nonzero;"/><path d="M450.85,697.108l8.204,-1.676l-0.369,37.499l10.209,-2.084l-0.607,7.597l-17.767,3.614l0.33,-44.95Z" style="fill:#fff;fill-rule:nonzero;"/><path d="M472.559,692.413l8.059,-2.295l2.52,37.406l10.01,-2.862l0,7.624l-17.449,4.985l-3.14,-44.844l0,-0.014Z" style="fill:#fff;fill-rule:nonzero;"/><path d="M513.712,704.719l-8.534,3.166l1.953,12.424l10.261,-3.811l0.237,7.65l-17.238,6.41l-6.542,-44.489l16.75,-6.225l1.016,7.293l-8.956,3.324l1.491,10.064l8.533,-3.166l1.042,7.347l-0.013,0.013Z" style="fill:#fff;fill-rule:nonzero;"/><path d="M525.347,721.798l-10.459,-43.737l8.573,-4.076l8.257,17.397c1.134,2.388 3.468,7.769 4.233,9.523l0.185,-0.079c-1.82,-5.843 -4.84,-15.735 -6.357,-21.868l-1.715,-7.149l7.096,-3.363l10.394,43.763l-8.521,4.049l-8.217,-17.634c-0.937,-1.966 -3.838,-8.257 -4.34,-9.616l-0.237,0.119c1.517,5.052 4.59,15.049 6.252,21.934l1.86,7.439l-6.978,3.311l-0.026,-0.013Z" style="fill:#fff;fill-rule:nonzero;"/><path d="M567.868,684.143l0.633,1.846c1.887,6.16 3.931,12.464 -4.365,17.371c-6.701,3.957 -11.37,1.754 -14.153,-6.569l-6.449,-19.322c-2.731,-8.112 -2.401,-13.137 4.062,-16.962c8.916,-5.276 12.543,1.002 14.126,6.133l0.554,1.583l-7.149,4.234l-1.015,-3.008c-0.937,-2.743 -1.926,-3.772 -3.456,-2.862c-1.425,0.844 -1.345,2.256 -0.303,5.316l7.412,21.974c0.937,2.743 1.833,4.273 3.548,3.271c1.477,-0.871 1.398,-2.441 0.343,-5.646l-1.042,-3.06l7.268,-4.299l-0.014,0Z" style="fill:#fff;fill-rule:nonzero;"/><path d="M585.819,665.361l-7.426,5.262l5.078,11.515l8.929,-6.331l2.203,7.333l-15.01,10.631l-17.78,-41.31l14.588,-10.327l2.862,6.779l-7.808,5.527l4.036,9.351l7.426,-5.263l2.902,6.833Z" style="fill:#fff;fill-rule:nonzero;"/></g><g id="Sales---Support" serif:id="Sales &amp; Support"><path d="M125.687,541.744l2.084,-0.541c2.967,-0.804 4.247,-1.833 3.376,-3.68c-0.752,-1.609 -2.4,-1.859 -5.315,-1.081c-3.588,0.87 -5.316,2.334 -7.611,7.558c-2.769,6.238 -4.576,9.048 -11.237,10.696c-6.45,1.623 -10.697,-0.316 -13.269,-5.816c-4.076,-8.732 1.688,-12.135 7.215,-13.559l0.923,-0.211l3.35,7.175l-1.569,0.369c-2.849,0.752 -4.683,1.675 -3.812,3.522c0.554,1.2 1.728,1.662 3.917,1.081c3.034,-0.831 4.089,-1.833 6.041,-6.093c3.733,-8.217 6.344,-10.895 13.084,-12.517c7.096,-1.636 11.554,0.277 14.575,6.74c3.482,7.478 0.211,11.844 -7.215,13.559l-1.042,0.263l-3.482,-7.465l-0.013,0Z" style="fill:#fff;fill-rule:nonzero;"/><path d="M117.061,516.697l11.224,-0.567l2.968,8.191l-46.533,0.739l-4.379,-12.095l42.484,-11.897l2.862,7.874l-10.446,2.743l1.82,5.026l0,-0.014Zm-8.916,-3.297c-5.078,1.279 -14.047,3.627 -18.096,4.669l0.105,0.303c3.39,-0.316 13.309,-1.042 19.283,-1.384l-1.305,-3.601l0.013,0.013Z" style="fill:#fff;fill-rule:nonzero;"/><path d="M76.895,500.71l-2.202,-8.072l37.432,-2.071l-2.744,-10.05l7.611,0.105l4.761,17.49l-44.871,2.585l0.013,0.013Z" style="fill:#fff;fill-rule:nonzero;"/><path d="M92.763,460.114l1.728,8.929l12.583,0.119l-2.084,-10.75l7.584,1.016l3.495,18.07l-44.963,-0.844l-3.39,-17.543l7.36,0.185l1.82,9.391l10.182,0.185l-1.727,-8.93l7.425,0.172l-0.013,0Z" style="fill:#fff;fill-rule:nonzero;"/><path d="M98.084,447.414l2.137,0.158c3.073,0.185 4.603,-0.382 4.379,-2.414c-0.198,-1.767 -1.675,-2.532 -4.682,-2.73c-3.68,-0.316 -5.778,0.515 -9.629,4.722c-4.616,5.025 -7.241,7.109 -14.073,6.542c-6.621,-0.527 -10.038,-3.733 -10.697,-9.76c-1.068,-9.563 5.487,-10.961 11.172,-10.526l0.936,0.093l0.871,7.861l-1.61,-0.158c-2.941,-0.198 -4.972,0.092 -4.735,2.123c0.145,1.306 1.095,2.137 3.364,2.282c3.139,0.185 4.458,-0.435 7.663,-3.838c6.173,-6.595 9.496,-8.283 16.395,-7.663c7.241,0.725 10.855,3.97 11.646,11.052c0.91,8.191 -3.588,11.278 -11.172,10.526l-1.068,-0.079l-0.91,-8.191l0.013,0Z" style="fill:#fff;fill-rule:nonzero;"/><path d="M82.346,389.629l15.695,10.169l10.684,-4.603l-0.119,8.442l-3.456,1.464c2.928,2.743 3.891,5.196 3.839,8.824c-0.093,7.188 -5.474,9.747 -13.691,7.861c-4.472,-1.056 -7.149,-2.731 -10.842,-7.861c-3.917,1.595 -7.413,2.07 -11.686,0.962c-5.527,-1.332 -8.85,-4.405 -8.771,-10.142c0.092,-7.057 5.473,-9.497 12.372,-7.611c3.35,0.897 5.117,1.913 9.127,8.046l5.381,-2.308l-8.639,-5.329l0.106,-7.914Zm-2.282,17.78c-1.755,-2.401 -2.928,-2.941 -5.751,-3.641c-2.361,-0.488 -4.089,-0.184 -4.115,1.399c-0.013,1.45 1.029,2.057 3.192,2.545c2.361,0.554 4.418,0.462 6.661,-0.303l0.013,0Zm18.729,0.382l-8.626,3.707c1.49,1.411 3.073,2.018 5.302,2.585c3.944,0.91 6.397,0.29 6.424,-2.15c0.026,-1.715 -1.214,-2.849 -3.113,-4.128l0.013,-0.014Z" style="fill:#fff;fill-rule:nonzero;"/><path d="M99.2,356.589c-6.489,-2.48 -15.313,-5.856 -20.457,-7.927l-0.026,0.198c8.309,4.102 24.585,12.306 33.291,16.804l-1.082,6.911c-9.351,-2.519 -26.59,-7.149 -34.596,-9.325l-0.04,0.264c4.999,1.78 13.691,5.13 20.945,7.808l13.124,4.854l-1.174,7.557l-42.035,-15.959l1.859,-11.924c9.312,2.388 19.059,4.907 24.929,6.622l0.026,-0.198c-6.001,-3.007 -15.761,-8.125 -24.005,-12.623l1.86,-11.923l42.022,16.025l-1.253,8.02l-13.414,-5.158l0.026,-0.026Z" style="fill:#fff;fill-rule:nonzero;"/><path d="M106.849,336.766l9.563,5.922l-2.216,8.415l-38.699,-25.851l3.271,-12.438l41.706,14.363l-2.124,8.099l-10.142,-3.693l-1.359,5.17l0,0.013Zm-5.46,-7.782c-4.907,-1.833 -13.625,-5.012 -17.543,-6.449l-0.079,0.316c2.968,1.662 11.541,6.714 16.646,9.826l0.976,-3.693Z" style="fill:#fff;fill-rule:nonzero;"/><path d="M82.911,300.613l3.443,-9.563c2.48,-6.885 7.201,-8.692 13.796,-4.63l2.242,1.372c4.59,2.849 5.619,5.606 5.435,8.27c1.886,-1.358 4.26,-1.899 10.116,1.886c3.654,2.295 8.362,5.184 10.499,6.094l-2.77,7.689c-1.886,-0.606 -5.948,-3.126 -11.91,-6.819c-3.785,-2.347 -4.973,-2.347 -5.883,0.198l-0.409,1.121l16.514,10.222l-2.809,7.822l-38.237,-23.649l-0.027,-0.013Zm18.809,2.07l0.382,-1.055c1.029,-2.849 0.554,-4.075 -2.915,-6.093l-2.361,-1.412c-2.585,-1.569 -4.009,-1.728 -4.972,0.95l-0.448,1.24l10.327,6.383l-0.013,-0.013Z" style="fill:#fff;fill-rule:nonzero;"/><path d="M93.729,273.27l3.403,-7.359l15.129,11.435l0.079,-0.185c-2.889,-3.957 -9.22,-12.266 -12.636,-16.817l3.878,-8.375l11.185,16.949l24.928,9.734l-3.521,7.597l-16.976,-7.426l3.258,5.513l10.644,8.561l-3.376,7.293l-36.008,-26.92l0.013,0Z" style="fill:#fff;fill-rule:nonzero;"/><path d="M134.059,248.592l-4.484,7.914l9.483,8.257l5.395,-9.523l5.104,5.698l-9.075,15.999l-33.633,-29.835l8.811,-15.551l5.473,4.92l-4.722,8.323l7.624,6.753l4.484,-7.914l5.527,4.959l0.013,0Z" style="fill:#fff;fill-rule:nonzero;"/><path d="M127.616,227.134l-3.496,5.197l-5.13,-5.368l11.672,-17.345l5.131,5.369l-3.535,5.249l26.129,26.96l-4.643,6.898l-26.128,-26.96Z" style="fill:#fff;fill-rule:nonzero;"/><path d="M139.455,198.723l29.254,34.161l-5.051,6.595l-29.254,-34.161l5.051,-6.595Z" style="fill:#fff;fill-rule:nonzero;"/><path d="M171.598,228.595l-26.827,-36.073l6.278,-7.123l14.442,12.741c1.979,1.742 6.252,5.778 7.637,7.096l0.132,-0.145c-3.983,-4.656 -10.644,-12.556 -14.456,-17.595l-4.392,-5.895l5.197,-5.883l26.788,36.113l-6.239,7.07l-14.495,-12.965c-1.636,-1.438 -6.78,-6.068 -7.782,-7.123l-0.171,0.198c3.389,4.036 10.142,12.029 14.376,17.7l4.63,6.107l-5.105,5.791l-0.013,-0.014Z" style="fill:#fff;fill-rule:nonzero;"/><path d="M202.001,187.947c0.356,0.66 2.4,3.984 3.245,5.368l-4.656,4.393c-0.541,-0.581 -1.359,-1.623 -1.886,-2.48c0.646,3.377 -0.818,5.948 -2.546,7.584c-4.933,4.669 -9.417,1.464 -13.256,-4.814l-10.736,-17.622c-3.97,-6.502 -5.724,-12.015 0.501,-17.713c7.386,-6.885 12.517,-1.926 15.195,2.348l0.659,1.187l-6.133,5.803l-1.293,-2.044c-1.424,-2.19 -2.703,-3.351 -4.233,-1.9c-1.108,1.042 -1.135,2.256 0.817,5.58l11.858,19.375c1.741,2.796 3.113,3.772 4.55,2.414c1.491,-1.411 0.976,-3.192 -1.2,-6.846l-3.166,-5.078l-2.11,1.992l-3.746,-6.173l8.151,-7.702l9.985,16.341l0,-0.013Z" style="fill:#fff;fill-rule:nonzero;"/><path d="M215.301,168.651l0.95,1.926c1.398,2.743 2.664,3.772 4.299,2.559c1.425,-1.069 1.333,-2.731 -0.013,-5.421c-1.596,-3.337 -3.363,-4.722 -8.942,-5.909c-6.674,-1.438 -9.8,-2.638 -12.768,-8.811c-2.902,-5.975 -1.873,-10.538 2.994,-14.179c7.716,-5.764 12.227,-0.831 14.746,4.3l0.396,0.857l-6.331,4.736l-0.686,-1.465c-1.319,-2.637 -2.598,-4.233 -4.234,-3.02c-1.055,0.791 -1.279,2.031 -0.251,4.062c1.438,2.797 2.638,3.628 7.202,4.67c8.811,1.978 11.963,3.983 14.917,10.261c3.047,6.608 2.084,11.37 -3.627,15.643c-6.608,4.933 -11.541,2.625 -14.746,-4.3l-0.475,-0.963l6.595,-4.933l-0.026,-0.013Z" style="fill:#fff;fill-rule:nonzero;"/><path d="M225.95,123.477l11.712,32.473c0.897,2.321 2.045,3.152 3.614,2.189c1.847,-1.147 1.557,-2.743 0.765,-4.893l-11.712,-32.473l7.175,-4.458l11.396,31.589c2.546,7.109 2.915,11.937 -4.603,16.592c-6.727,4.182 -11.436,2.216 -14.113,-5.209l-11.343,-31.392l7.109,-4.418Z" style="fill:#fff;fill-rule:nonzero;"/><path d="M245.303,112.554l8.719,-4.392c7.188,-3.627 11.91,-0.686 13.849,6.529l0.923,3.443c1.965,7.135 1.042,11.593 -6.674,15.471l-2.532,1.279l4.629,17.384l-7.426,3.746l-11.501,-43.46l0.013,0Zm12.623,15.643l1.53,-0.765c2.466,-1.253 2.532,-2.901 1.807,-5.79l-1.016,-3.772c-0.805,-2.915 -1.82,-4.63 -4.353,-3.35l-1.477,0.738l3.495,12.939l0.014,0Z" style="fill:#fff;fill-rule:nonzero;"/><path d="M271.672,100.236l9.061,-3.627c7.465,-2.981 11.924,0.343 13.229,7.703l0.62,3.521c1.346,7.281 0.027,11.634 -7.993,14.839l-2.638,1.055l3.1,17.727l-7.716,3.086l-7.69,-44.304l0.027,0Zm11.211,16.685l1.596,-0.633c2.572,-1.029 2.77,-2.664 2.308,-5.606l-0.686,-3.851c-0.554,-2.981 -1.411,-4.761 -4.036,-3.706l-1.53,0.606l2.361,13.19l-0.013,0Z" style="fill:#fff;fill-rule:nonzero;"/><path d="M321.499,96.464l1.701,20.694c0.673,8.257 -1.068,12.781 -8.903,15.116c-7.65,2.281 -11.778,-1.438 -12.464,-9.695l-1.86,-21.881c-0.699,-8.112 2.559,-12.188 8.626,-13.995c7.452,-2.229 12.24,1.095 12.9,9.774l0,-0.013Zm-13.454,1.741l1.939,23.57c0.238,2.413 0.963,4.392 3.179,3.732c1.965,-0.58 2.229,-2.453 2.057,-5.091l-2.031,-23.623c-0.211,-2.558 -1.081,-4.075 -3.231,-3.442c-1.583,0.475 -2.176,1.952 -1.926,4.841l0.013,0.013Z" style="fill:#fff;fill-rule:nonzero;"/><path d="M328.795,82.324l9.959,-2.018c7.175,-1.464 11.158,1.636 11.132,9.378l0,2.625c-0.053,5.395 -1.873,7.716 -4.247,8.943c2.136,0.91 3.838,2.651 3.64,9.615c-0.066,4.326 -0.079,9.839 0.251,12.134l-8.02,1.636c-0.461,-1.926 -0.422,-6.714 -0.369,-13.717c0.04,-4.445 -0.567,-5.474 -3.218,-4.933l-1.161,0.237l-0.158,19.415l-8.138,1.662l0.343,-44.95l-0.014,-0.027Zm7.993,17.147l1.095,-0.224c2.968,-0.607 3.772,-1.649 3.693,-5.659l-0.026,-2.756c0,-3.021 -0.607,-4.313 -3.39,-3.759l-1.292,0.263l-0.093,12.135l0.013,-0Z" style="fill:#fff;fill-rule:nonzero;"/><path d="M360.342,84.382l-6.212,0.751l0.699,-7.386l20.747,-2.519l-0.699,7.399l-6.291,0.765l-3.298,37.406l-8.243,1.002l3.297,-37.405l0,-0.013Z" style="fill:#fff;fill-rule:nonzero;"/></g><g id="Product-Assortment" serif:id="Product Assortment"><path d="M459.533,95.99l-9.28,-1.472l-4.564,12.169l11.174,1.772l-3.666,7.004l-18.778,-2.984l16.693,-43.361l18.233,2.902l-2.78,7.073l-9.757,-1.554l-3.774,9.812l9.28,1.471l-2.794,7.141l0.013,0.027Z" style="fill:#00acb8;fill-rule:nonzero;"/><path d="M470.926,119.319c0.586,-1.54 2.889,-13.818 3.624,-15.671l-0.191,-0.055c-0.749,1.363 -9.32,12.878 -10.042,14.104l-8.544,-2.085l17.088,-20.508l3.12,-21.34l8.544,2.085c-0.504,1.213 -2.848,12.496 -3.271,13.654l0.26,0.068c0.64,-1.172 8.326,-11.365 8.83,-12.291l8.544,2.085l-15.862,18.355l-3.679,23.657l-8.408,-2.058l-0.013,-0Z" style="fill:#00acb8;fill-rule:nonzero;"/><path d="M505.907,89.911l-6.147,-2.03l3.912,-6.609l20.508,6.786l-3.911,6.595l-6.214,-2.058l-19.554,33.509l-8.149,-2.698l19.555,-33.509l-0,0.014Z" style="fill:#00acb8;fill-rule:nonzero;"/><path d="M531.866,118.883l-8.681,-3.611l-7.29,10.765l10.438,4.347l-5.205,5.955l-17.552,-7.304l26.396,-38.237l17.047,7.1l-4.361,6.227l-9.116,-3.802l-5.969,8.667l8.681,3.611l-4.388,6.296l-0,-0.014Z" style="fill:#00acb8;fill-rule:nonzero;"/><path d="M524.848,137.674l29.529,-35.852l8.694,4.537l-9.198,17.634c-1.267,2.412 -4.251,7.699 -5.218,9.416l0.176,0.095c3.679,-5.151 9.962,-13.79 14.064,-18.859l4.823,-5.86l7.195,3.747l-29.598,35.826l-8.639,-4.511l9.416,-17.756c1.036,-1.989 4.415,-8.299 5.22,-9.566l-0.246,-0.122c-3.216,4.387 -9.553,13.15 -14.185,18.805l-4.988,6.159l-7.072,-3.693l0.027,0Z" style="fill:#00acb8;fill-rule:nonzero;"/><path d="M565.362,145.087l-1.526,1.622c-2.153,2.343 -2.685,3.939 -0.913,5.083c1.553,0.994 3.12,0.3 5.232,-1.99c2.658,-2.752 3.352,-4.973 2.467,-10.806c-1.036,-6.977 -1.009,-10.438 3.883,-15.548c4.729,-4.988 9.511,-5.642 14.799,-2.262c8.381,5.355 5.247,11.528 1.2,15.821l-0.682,0.695l-6.882,-4.402l1.173,-1.199c2.071,-2.235 3.161,-4.047 1.376,-5.192c-1.145,-0.736 -2.426,-0.504 -4.02,1.226c-2.18,2.399 -2.563,3.87 -1.894,8.654c1.294,9.239 0.49,13.013 -4.497,18.15c-5.288,5.356 -10.248,6.147 -16.448,2.181c-7.182,-4.592 -6.731,-10.207 -1.213,-15.821l0.763,-0.804l7.182,4.592Z" style="fill:#00acb8;fill-rule:nonzero;"/><path d="M612.825,138.74l-34.749,30.838l-6.909,-5.096l34.763,-30.838l6.909,5.096l-0.014,0Z" style="fill:#00acb8;fill-rule:nonzero;"/><path d="M624.188,148.251l-12.007,11.187c-4.482,4.156 -10.614,9.852 -14.88,13.654l0.259,0.218c4.742,-3.311 12.128,-8.054 17.388,-11.446l14.335,-9.307l6.827,5.75l-41.684,24.311l-8.653,-7.291l31.628,-32.786l6.772,5.71l0.015,-0Z" style="fill:#00acb8;fill-rule:nonzero;"/><path d="M631.819,189.976l-6.691,-6.609l-10.792,7.249l8.04,7.944l-7.059,3.557l-13.518,-13.354l38.823,-25.537l13.137,12.973l-6.378,4.129l-7.032,-6.95l-8.775,5.792l6.691,6.609l-6.432,4.183l-0.014,0.014Z" style="fill:#00acb8;fill-rule:nonzero;"/><path d="M665.382,189.963l6.35,7.836c5.233,6.458 3.311,11.882 -3.556,15.425l-3.271,1.69c-6.773,3.556 -11.474,3.598 -17.089,-3.339l-1.839,-2.275l-16.543,8.489l-5.411,-6.663l41.359,-21.149l-0,-0.014Zm-13.027,16.176l1.117,1.376c1.798,2.221 3.475,1.921 6.241,0.559l3.584,-1.854c2.766,-1.458 4.265,-2.848 2.426,-5.123l-1.077,-1.323l-12.291,6.365Z" style="fill:#00acb8;fill-rule:nonzero;"/><path d="M683.603,213.864l5.873,8.695c4.238,6.268 2.875,11.296 -4.537,14.335l-2.508,1.036c-5.165,2.098 -8.095,1.281 -10.207,-0.504c-0.026,2.398 -1.008,4.714 -7.74,7.29c-4.142,1.649 -9.416,3.829 -11.473,5.056l-4.729,-7.005c1.649,-1.199 6.228,-3.066 12.946,-5.792c4.251,-1.73 4.987,-2.711 3.42,-5.028l-0.682,-1.022l-18.573,7.549l-4.81,-7.113l43.02,-17.51l-0,0.013Zm-13.191,14.432l0.654,0.953c1.758,2.603 3.067,2.944 6.869,1.281l2.616,-1.118c2.888,-1.212 3.883,-2.289 2.234,-4.714l-0.763,-1.131l-11.61,4.729Z" style="fill:#00acb8;fill-rule:nonzero;"/><path d="M698.275,263.071l-20.509,6.309c-8.19,2.521 -13.136,1.758 -17.225,-5.642c-3.992,-7.208 -1.158,-12.209 7.032,-14.731l21.681,-6.717c8.04,-2.508 12.864,-0.123 16.039,5.601c3.897,7.031 1.607,12.591 -7.005,15.18l-0.013,-0Zm-4.743,-13.191l-23.356,7.195c-2.371,0.777 -4.225,1.949 -3.066,4.034c1.022,1.853 2.971,1.703 5.587,0.953l23.384,-7.276c2.534,-0.777 3.884,-1.99 2.752,-4.02c-0.831,-1.486 -2.452,-1.759 -5.314,-0.872l0.013,-0.014Z" style="fill:#00acb8;fill-rule:nonzero;"/><path d="M714.234,267.418l3.883,8.79c3.939,8.912 -0.081,13.15 -9.689,15.153l-17.714,3.734c-8.068,1.622 -13.287,1.472 -17.048,-7.072l-4.906,-11.092l45.487,-9.513l-0.013,0Zm-35.294,15.889l0.681,1.554c1.268,2.862 3.394,3.12 6.814,2.426l21.258,-4.47c3.352,-0.668 5.205,-1.703 3.883,-4.701l-0.667,-1.5l-31.982,6.678l0.013,0.013Z" style="fill:#00acb8;fill-rule:nonzero;"/><path d="M728.72,304.484l-35.43,4.101c-2.549,0.355 -3.666,1.308 -3.053,3.121c0.722,2.126 2.399,2.207 4.742,1.921l35.43,-4.101l2.78,8.271l-34.463,3.992c-7.753,0.887 -12.686,0.11 -15.603,-8.544c-2.616,-7.753 0.478,-12.019 8.572,-12.959l34.244,-3.992l2.767,8.203l0.014,-0.013Z" style="fill:#00acb8;fill-rule:nonzero;"/><path d="M708.51,348.429l-2.017,0.068c-6.664,0 -13.504,0.109 -15.835,-9.566c-1.88,-7.808 1.717,-11.76 10.779,-11.991l21.04,-0.519c8.844,-0.245 13.709,1.595 15.521,9.144c2.508,10.397 -4.797,12.087 -10.329,12.101l-1.731,0.068l-2.016,-8.34l3.271,-0.095c2.998,-0.096 4.306,-0.763 3.87,-2.549c-0.396,-1.649 -1.813,-2.016 -5.152,-1.907l-23.955,0.668c-2.999,0.095 -4.784,0.517 -4.307,2.507c0.423,1.717 1.989,2.112 5.465,2.044l3.338,-0.109l2.045,8.476l0.013,0Z" style="fill:#00acb8;fill-rule:nonzero;"/><path d="M734.033,358.5l-1.022,-6.391l7.658,0.436l3.394,21.327l-7.659,-0.436l-1.022,-6.46l-38.741,-1.976l-1.349,-8.476l38.741,1.976Z" style="fill:#00acb8;fill-rule:nonzero;"/><path d="M710.844,393.004l-11.255,-2.875l-0.423,-8.981l46.128,13.518l0.626,13.273l-45.554,-1.266l-0.41,-8.641l11.147,0.504l-0.259,-5.504l-0,-0.028Zm7.782,5.983c5.396,0.286 14.975,0.722 19.281,0.926l0,-0.34c-3.461,-0.723 -13.463,-3.053 -19.459,-4.538l0.191,3.952l-0.013,-0Z" style="fill:#00acb8;fill-rule:nonzero;"/><path d="M713.243,419.983l-2.167,-0.491c-3.106,-0.667 -4.755,-0.313 -4.837,1.799c-0.068,1.84 1.322,2.848 4.373,3.502c3.721,0.887 5.984,0.368 10.561,-3.352c5.493,-4.429 8.476,-6.159 15.372,-4.538c6.69,1.554 9.689,5.342 9.444,11.61c-0.382,9.934 -7.278,10.357 -13.028,9.049l-0.94,-0.246l0.314,-8.175l1.621,0.394c2.971,0.654 5.083,0.668 5.164,-1.444c0.055,-1.363 -0.79,-2.344 -3.093,-2.849c-3.175,-0.667 -4.619,-0.244 -8.421,2.754c-7.305,5.791 -10.97,7.017 -17.934,5.328c-7.29,-1.84 -10.492,-5.71 -10.206,-13.069c0.327,-8.516 5.396,-10.983 13.028,-9.048l1.076,0.246l-0.327,8.503l-0,0.027Z" style="fill:#00acb8;fill-rule:nonzero;"/><path d="M711.455,446.558l-2.099,-0.696c-3.025,-0.968 -4.702,-0.777 -4.987,1.322c-0.246,1.826 1.049,2.957 4.006,3.911c3.612,1.24 5.928,0.94 10.833,-2.317c5.887,-3.869 9.035,-5.3 15.739,-3.025c6.515,2.194 9.117,6.254 8.285,12.469c-1.334,9.852 -8.243,9.607 -13.83,7.754l-0.914,-0.328l1.105,-8.108l1.579,0.559c2.904,0.94 5.002,1.158 5.288,-0.94c0.178,-1.349 -0.559,-2.412 -2.807,-3.135c-3.093,-0.967 -4.579,-0.694 -8.653,1.922c-7.835,5.056 -11.597,5.928 -18.356,3.557c-7.085,-2.549 -9.879,-6.705 -8.898,-13.995c1.144,-8.435 6.432,-10.398 13.845,-7.754l1.05,0.354l-1.145,8.435l-0.041,0.015Z" style="fill:#00acb8;fill-rule:nonzero;"/><path d="M722.712,495.041l-19.636,-8.626c-7.836,-3.448 -11.079,-7.263 -9.348,-15.535c1.689,-8.067 7.099,-10.002 14.935,-6.554l20.794,9.09c7.727,3.351 9.812,8.311 8.476,14.716c-1.649,7.877 -7.018,10.574 -15.221,6.909Zm5.028,-13.082l-22.375,-9.825c-2.303,-0.968 -4.469,-1.281 -4.947,1.049c-0.436,2.072 1.132,3.23 3.611,4.374l22.458,9.771c2.425,1.063 4.238,1.022 4.714,-1.24c0.355,-1.662 -0.708,-2.93 -3.447,-4.129l-0.014,-0Z" style="fill:#00acb8;fill-rule:nonzero;"/><path d="M731.993,508.614l-3.053,10.043c-2.194,7.236 -6.977,9.348 -13.994,5.505l-2.386,-1.294c-4.879,-2.699 -6.09,-5.478 -6.037,-8.245c-1.88,1.499 -4.291,2.181 -10.533,-1.417c-3.897,-2.18 -8.898,-4.919 -11.147,-5.737l2.453,-8.081c1.976,0.532 6.31,2.917 12.646,6.405c4.02,2.221 5.246,2.166 6.064,-0.505l0.354,-1.171l-17.565,-9.689l2.493,-8.217l40.691,22.417l0.014,-0.014Zm-19.515,-1.159l-0.341,1.104c-0.912,2.999 -0.353,4.238 3.34,6.146l2.507,1.336c2.752,1.485 4.225,1.567 5.069,-1.24l0.395,-1.309l-10.983,-6.05l0.013,0.013Z" style="fill:#00acb8;fill-rule:nonzero;"/><path d="M714.628,536.265l2.371,-6.024l6.378,4.265l-7.904,20.1l-6.377,-4.265l2.398,-6.091l-32.377,-21.367l3.147,-7.986l32.378,21.368l-0.014,-0Z" style="fill:#00acb8;fill-rule:nonzero;"/><path d="M677.184,561.57c5.574,4.524 13.136,10.683 17.524,14.376l0.096,-0.178c-6.827,-6.704 -20.155,-20.004 -27.255,-27.226l3.285,-6.432c8.367,5.491 23.792,15.59 30.934,20.318l0.122,-0.246c-4.334,-3.351 -11.774,-9.456 -18.043,-14.416l-11.323,-8.994l3.598,-7.045l36.097,29.229l-5.669,11.107c-8.366,-5.343 -17.129,-10.957 -22.335,-14.541l-0.095,0.178c4.934,4.892 12.837,13.055 19.487,20.127l-5.669,11.106l-36.071,-29.285l3.815,-7.468l11.502,9.39Z" style="fill:#00acb8;fill-rule:nonzero;"/><path d="M664.412,593.619l5.083,-7.917l-9.321,-9.062l-6.105,9.525l-4.947,-6.172l10.261,-15.998l33.032,32.691l-9.975,15.548l-5.369,-5.383l5.342,-8.312l-7.481,-7.386l-5.083,7.917l-5.424,-5.423l-0.013,-0.028Z" style="fill:#00acb8;fill-rule:nonzero;"/><path d="M647.162,583.414l30.157,35.335l-5.982,7.781l-15.767,-12.142c-2.153,-1.662 -6.841,-5.519 -8.367,-6.787l-0.123,0.164c4.43,4.525 11.843,12.21 16.122,17.143l4.932,5.778l-4.947,6.431l-30.115,-35.388l5.942,-7.727l15.847,12.373c1.785,1.377 7.414,5.792 8.518,6.813l0.163,-0.218c-3.774,-3.923 -11.297,-11.692 -16.052,-17.251l-5.206,-5.982l4.865,-6.323l0.013,-0Z" style="fill:#00acb8;fill-rule:nonzero;"/><path d="M649.671,640.403l4.36,-4.784l4.429,6.255l-14.554,15.957l-4.429,-6.255l4.415,-4.837l-22.621,-31.519l5.792,-6.337l22.621,31.52l-0.013,-0Z" style="fill:#00acb8;fill-rule:nonzero;"/></g><path d="M639.416,668.591l-46.559,-13.164l-7.571,-48.313l10.393,-1.636l6.529,41.666l40.07,11.33l-2.862,10.117Z" style="fill:#fff;fill-rule:nonzero;"/><path d="M120.732,618.023l-9.496,-4.524l20.76,-43.697l48.907,0.62l-0.145,10.525l-42.154,-0.54l-17.872,37.616Z" style="fill:#fff;fill-rule:nonzero;"/><path d="M394.205,135.441l-8.31,-6.463l25.879,-33.291l-19.205,-36.944l9.325,-4.854l22.317,42.932l-30.006,38.62Z" style="fill:#fff;fill-rule:nonzero;"/></g></g></svg>