<svg width="215" height="139" fill="none" xmlns="http://www.w3.org/2000/svg"><g clip-path="url(#a)"><path d="M152.192 31.184c.362.644-.213 2.012-.695 3.31-.469 1.258.557 2.566 1.887 2.403a3.937 3.937 0 0 1 3.726 1.68l2.878 4.192c.245.359.326.806.216 1.226l-.791 3.057a1.311 1.311 0 0 0 1.43 1.632 6.388 6.388 0 0 0 3.133-1.305l6.196-4.841.053-.047 8.225-7.66a.825.825 0 0 0 .167-.213l3.399-6.32c.199-.37.539-.636.944-.74l10.354-2.69a.832.832 0 0 0 .575-.526l4.474-12.551a1.497 1.497 0 0 1 1.558-.985l5.613.565c.501.05.944.352 1.175.796l5.074 9.75a1.503 1.503 0 0 1-.295 1.781l-8.022 7.621a.83.83 0 0 0-.256.676l.703 8.3a1.512 1.512 0 0 1-.579 1.315l-8.292 6.387a.837.837 0 0 0-.323.598l-.483 6.348a1.497 1.497 0 0 1-.716 1.166l-3.244 1.98a.843.843 0 0 0-.383.544l-1.529 7.496a.826.826 0 0 0 .078.551l4.159 8.04c.276.534.205 1.18-.178 1.646l-7.21 8.713-.032.039-11.376 15.587a.83.83 0 0 0-.096.814l5.064 12c.035.085.067.174.085.263l3.296 15.075a1.508 1.508 0 0 1-.535 1.503c-.277.224-.636.317-.994.317h-6.391c-.507 0-.982-.26-1.256-.686l-6.646-10.28a1.672 1.672 0 0 1-.198-.455l-1.143-4.6a.828.828 0 0 0-.628-.611l-8.19-1.788a.46.46 0 0 0-.074-.014l-10.965-1.358a.852.852 0 0 0-.525.11l-6.319 3.75a1.197 1.197 0 0 1-.231.11l-6.653 2.535c-.206.078-.429.11-.649.092l-14.495-1.144a.828.828 0 0 0-.554.156l-9.903 7.219a.82.82 0 0 0-.341.676l.025 8.559c0 .491.124 2.211.124 2.211s-1.32-.711-1.622-.711c-.181 0-.358-.028-.528-.096l-8.793-3.32a1.485 1.485 0 0 1-.813-.736l-5.861-11.897a.824.824 0 0 0-.409-.391l-6.163-2.755a.827.827 0 0 0-.877.128l-2.572 2.194c-.32.277-.742.401-1.16.348a1.508 1.508 0 0 1-1.036-.626l-5.749-8.193a.862.862 0 0 0-.28-.252l-11.404-6.242a.813.813 0 0 0-.398-.103l-12.054-.018c-.276 0-.546-.078-.784-.224l-14.339-8.894a.852.852 0 0 0-.276-.11l-9.61-1.898a1.513 1.513 0 0 1-.844-.487L9.95 79.174a1.575 1.575 0 0 1-.284-.497L5.68 66.915a.958.958 0 0 1-.057-.22L3.701 55.757l-.01-.053-1.555-11.169c-.028-.213-.01-.43.05-.64l2.817-9.373c.022-.06.043-.124.064-.185l7.399-18.92a.815.815 0 0 0 .056-.356l-.603-9.388c-.035-.544.021-2.385.021-2.385s1.696.711 2.176.967l4.666 2.485c.432.23 2.03 1.169 2.03 1.169l-.136-3.345c.288-.682.845-1.987.845-1.987l19.054 5.691.064.014 20.992 3.612s.029.003.047.007l24.38 2.847c.021 0 .046.004.071.004l25.445.824c.181.007.362.046.529.114l4.418 1.845c.095.039.198.06.305.064l3.867.07c.171 0 .338.036.501.097l4.421 1.66a.8.8 0 0 0 .259.053l4.957.192a1.494 1.494 0 0 1 1.256 2.211l-.33.611c-.369.683.312 1.454 1.033 1.173l3.875-1.514a1.494 1.494 0 0 1 1.671.416l2.345 2.712c.21.242.54.345.852.256l5.496-1.525c.43-.117.887-.039 1.253.213l3.91 6.946v.014z" fill="#00ACB8" stroke="#7FD5DB" stroke-width="5.747" stroke-miterlimit="10"/><g filter="url(#b)" fill="#E6E7E8"><ellipse cx="202.914" cy="37.9" rx="2.025" ry="2.028"/><ellipse cx="195.554" cy="45.871" rx="2.025" ry="2.028"/><ellipse cx="192.793" cy="49.857" rx="2.025" ry="2.028"/><ellipse cx="188.806" cy="52.923" rx="2.025" ry="2.028"/><ellipse cx="187.58" cy="61.201" rx="2.025" ry="2.028"/><ellipse cx="105.996" cy="121.907" rx="2.025" ry="2.028"/><ellipse cx="98.021" cy="121.907" rx="2.025" ry="2.028"/><ellipse cx="131.759" cy="74.384" rx="2.025" ry="2.028"/><ellipse cx="105.076" cy="105.657" rx="2.025" ry="2.028"/><ellipse cx="103.236" cy="85.422" rx="2.025" ry="2.028"/><ellipse cx="110.902" cy="67.026" rx="2.025" ry="2.028"/><ellipse cx="117.957" cy="36.06" rx="2.025" ry="2.028"/><ellipse cx="23.494" cy="10.306" rx="2.025" ry="2.028"/><ellipse cx="43.736" cy="90.328" rx="2.025" ry="2.028"/><ellipse cx="20.732" cy="84.196" rx="2.025" ry="2.028"/><ellipse cx="49.562" cy="54.149" rx="2.025" ry="2.028"/><ellipse cx="6.625" cy="57.215" rx="2.025" ry="2.028"/><ellipse cx="72.259" cy="62.12" rx="2.025" ry="2.028"/><ellipse cx="162.738" cy="55.069" rx="2.025" ry="2.028"/><ellipse cx="148.015" cy="59.975" rx="2.025" ry="2.028"/><ellipse cx="148.015" cy="44.338" rx="2.025" ry="2.028"/><ellipse cx="137.894" cy="50.777" rx="2.025" ry="2.028"/><ellipse cx="177.763" cy="80.823" rx="2.025" ry="2.028"/><ellipse cx="149.547" cy="94.62" rx="2.025" ry="2.028"/><ellipse cx="136.972" cy="84.809" rx="2.025" ry="2.028"/><ellipse cx="172.244" cy="117.308" rx="2.025" ry="2.028"/><ellipse cx="178.99" cy="125.893" rx="2.025" ry="2.028"/><path d="m162.703 89.22.723 2.224h2.34l-1.893 1.374.723 2.225-1.893-1.375-1.893 1.375.723-2.225-1.893-1.374h2.34l.723-2.225z"/></g></g><defs><clipPath id="a"><path fill="#fff" d="M0 0h214.079v138.888H0z"/></clipPath><filter id="b" x="2.684" y="8.278" width="204.171" height="123.474" filterUnits="userSpaceOnUse" color-interpolation-filters="sRGB"><feFlood flood-opacity="0" result="BackgroundImageFix"/><feColorMatrix in="SourceAlpha" values="0 0 0 0 0 0 0 0 0 0 0 0 0 0 0 0 0 0 127 0" result="hardAlpha"/><feOffset dy="1.916"/><feGaussianBlur stdDeviation=".958"/><feComposite in2="hardAlpha" operator="out"/><feColorMatrix values="0 0 0 0 0 0 0 0 0 0 0 0 0 0 0 0 0 0 0.25 0"/><feBlend in2="BackgroundImageFix" result="effect1_dropShadow_1749_55475"/><feBlend in="SourceGraphic" in2="effect1_dropShadow_1749_55475" result="shape"/></filter></defs></svg>