<svg width="215" height="139" fill="none" xmlns="http://www.w3.org/2000/svg"><g clip-path="url(#a)"><path d="M152.207 31.198c.362.644-.213 2.013-.695 3.311-.469 1.259.557 2.568 1.887 2.404a3.939 3.939 0 0 1 3.727 1.682l2.878 4.193c.244.359.326.807.216 1.227l-.791 3.058a1.312 1.312 0 0 0 1.43 1.632 6.386 6.386 0 0 0 3.133-1.305l6.196-4.843.054-.047 8.225-7.663a.783.783 0 0 0 .167-.214l3.4-6.322c.199-.37.539-.637.944-.74l10.355-2.692a.83.83 0 0 0 .575-.526l4.475-12.557a1.496 1.496 0 0 1 1.558-.985l5.614.565c.5.05.944.352 1.174.797l5.075 9.754c.309.594.188 1.32-.295 1.782l-8.023 7.624a.831.831 0 0 0-.256.676l.703 8.304a1.513 1.513 0 0 1-.579 1.315l-8.293 6.39a.837.837 0 0 0-.323.598l-.482 6.352a1.499 1.499 0 0 1-.717 1.166l-3.244 1.98a.843.843 0 0 0-.383.545l-1.529 7.5a.82.82 0 0 0 .078.551l4.159 8.044c.276.534.205 1.18-.178 1.647l-7.211 8.716-.032.039-11.377 15.594a.83.83 0 0 0-.096.814l5.064 12.006c.036.085.068.174.086.263l3.296 15.082a1.509 1.509 0 0 1-.536 1.504c-.276.224-.635.316-.993.316h-6.391c-.508 0-.983-.259-1.257-.686l-6.646-10.284a1.694 1.694 0 0 1-.199-.456l-1.143-4.601a.829.829 0 0 0-.628-.612l-8.19-1.789c-.025-.007-.05-.01-.075-.014l-10.965-1.358a.837.837 0 0 0-.525.11l-6.321 3.752a1.353 1.353 0 0 1-.23.11l-6.654 2.535c-.206.079-.43.111-.65.093l-14.496-1.145a.834.834 0 0 0-.554.156l-9.904 7.223a.824.824 0 0 0-.341.676l.025 8.563c0 .491.124 2.212.124 2.212s-1.32-.711-1.621-.711c-.181 0-.359-.029-.529-.096l-8.794-3.322a1.489 1.489 0 0 1-.813-.736l-5.862-11.903a.825.825 0 0 0-.408-.391l-6.164-2.756a.825.825 0 0 0-.877.128l-2.572 2.194c-.32.278-.742.402-1.16.349a1.509 1.509 0 0 1-1.037-.626l-5.749-8.197a.86.86 0 0 0-.28-.252l-11.406-6.245a.813.813 0 0 0-.397-.103l-12.055-.018c-.277 0-.547-.078-.785-.224l-14.34-8.898a.851.851 0 0 0-.277-.11l-9.61-1.899a1.513 1.513 0 0 1-.844-.487L9.95 79.21a1.576 1.576 0 0 1-.283-.498L5.68 66.945a.96.96 0 0 1-.056-.22L3.7 55.781l-.01-.053-1.555-11.174c-.028-.213-.01-.43.05-.64l2.818-9.378.063-.184 7.4-18.93a.816.816 0 0 0 .056-.356l-.603-9.391c-.036-.545.021-2.387.021-2.387s1.697.712 2.176.968l4.666 2.485c.433.232 2.03 1.17 2.03 1.17l-.135-3.346c.288-.683.845-1.988.845-1.988l19.056 5.694c.022.003.043.01.064.014l20.994 3.613s.029.003.046.007l24.384 2.848c.02 0 .046.004.07.004l25.448.825c.181.007.362.046.529.114l4.418 1.846c.096.039.199.06.305.064l3.868.07c.171 0 .337.036.501.097l4.421 1.66c.082.032.171.05.259.054l4.958.192a1.495 1.495 0 0 1 1.256 2.212l-.33.611c-.369.683.312 1.455 1.033 1.174l3.875-1.515a1.493 1.493 0 0 1 1.671.416l2.346 2.713c.209.242.54.345.852.256l5.497-1.525c.429-.117.887-.04 1.252.213l3.911 6.949v.014z" fill="#00ACB8" stroke="#7FD5DB" stroke-width="3.681" stroke-miterlimit="10"/><path transform="rotate(147.538 67.802 43.06) skewX(.018)" stroke="#E6E7E8" stroke-width="2" d="M0-1h11.995"/><path transform="rotate(161.923 77.22 39.967) skewX(.012)" stroke="#E6E7E8" stroke-width="2" d="M0-1h15.809"/><path stroke="#E6E7E8" stroke-width="2" d="m148.327 60.74-11-10"/><g opacity=".3" filter="url(#b)" fill="#E6E7E8"><ellipse cx="202.935" cy="37.917" rx="2.025" ry="2.029"/><ellipse cx="195.574" cy="45.892" rx="2.025" ry="2.029"/><ellipse cx="192.814" cy="49.879" rx="2.025" ry="2.029"/><ellipse cx="188.826" cy="52.947" rx="2.025" ry="2.029"/><ellipse cx="187.599" cy="61.228" rx="2.025" ry="2.029"/><ellipse cx="106.008" cy="121.962" rx="2.025" ry="2.029"/><ellipse cx="98.033" cy="121.962" rx="2.025" ry="2.029"/><ellipse cx="131.773" cy="74.418" rx="2.025" ry="2.029"/><ellipse cx="105.088" cy="105.705" rx="2.025" ry="2.029"/><ellipse cx="103.248" cy="85.461" rx="2.025" ry="2.029"/><ellipse cx="110.916" cy="67.056" rx="2.025" ry="2.029"/><ellipse cx="117.971" cy="36.077" rx="2.025" ry="2.029"/><ellipse cx="23.498" cy="10.311" rx="2.025" ry="2.029"/><ellipse cx="43.742" cy="90.368" rx="2.025" ry="2.029"/><ellipse cx="20.736" cy="84.234" rx="2.025" ry="2.029"/><ellipse cx="49.57" cy="54.174" rx="2.025" ry="2.029"/><ellipse cx="6.627" cy="57.241" rx="2.025" ry="2.029"/><ellipse cx="72.267" cy="62.149" rx="2.025" ry="2.029"/><ellipse cx="162.754" cy="55.094" rx="2.025" ry="2.029"/><ellipse cx="148.031" cy="60.002" rx="2.025" ry="2.029"/><ellipse cx="148.031" cy="44.358" rx="2.025" ry="2.029"/><ellipse cx="137.908" cy="50.8" rx="2.025" ry="2.029"/><ellipse cx="177.783" cy="80.86" rx="2.025" ry="2.029"/><ellipse cx="149.564" cy="94.663" rx="2.025" ry="2.029"/><ellipse cx="136.988" cy="84.847" rx="2.025" ry="2.029"/><ellipse cx="172.262" cy="117.361" rx="2.025" ry="2.029"/><ellipse cx="179.012" cy="125.95" rx="2.025" ry="2.029"/><path d="m162.723 89.26.723 2.225h2.34l-1.893 1.375.723 2.226-1.893-1.376-1.893 1.376.723-2.226-1.893-1.375H162l.723-2.226z"/></g><ellipse cx="162.746" cy="55.047" rx="2.025" ry="2.029" fill="#104DA7"/><ellipse cx="148.023" cy="59.955" rx="2.025" ry="2.029" fill="#104DA7"/><ellipse cx="148.023" cy="44.311" rx="2.025" ry="2.029" fill="#104DA7"/><ellipse cx="137.9" cy="50.752" rx="2.025" ry="2.029" fill="#104DA7"/></g><defs><clipPath id="a"><path fill="#fff" d="M0 0h214.1v138.95H0z"/></clipPath><filter id="b" x="3.375" y="8.282" width="202.813" height="122.151" filterUnits="userSpaceOnUse" color-interpolation-filters="sRGB"><feFlood flood-opacity="0" result="BackgroundImageFix"/><feColorMatrix in="SourceAlpha" values="0 0 0 0 0 0 0 0 0 0 0 0 0 0 0 0 0 0 127 0" result="hardAlpha"/><feOffset dy="1.227"/><feGaussianBlur stdDeviation=".613"/><feComposite in2="hardAlpha" operator="out"/><feColorMatrix values="0 0 0 0 0 0 0 0 0 0 0 0 0 0 0 0 0 0 0.25 0"/><feBlend in2="BackgroundImageFix" result="effect1_dropShadow_1780_55170"/><feBlend in="SourceGraphic" in2="effect1_dropShadow_1780_55170" result="shape"/></filter></defs></svg>